<svg id="fd59ce54-f850-4dfc-bc34-dd7d379d600e" xmlns="http://www.w3.org/2000/svg" viewBox="0 0 1074.39 584.23"><defs><style>.cls-1{fill:#f2f2f2;}.cls-2{fill:#a3044c;}.cls-13,.cls-3{fill:#ff0065;}.cls-4{fill:none;stroke:#3f3d56;stroke-miterlimit:10;}.cls-5{fill:#2f2e41;}.cls-6{opacity:0.1;isolation:isolate;}.cls-7{fill:#3f3d56;}.cls-8{fill:#6d0b46;}.cls-9{fill:#fbbebe;}.cls-10{fill:#57b894;}.cls-11{fill:#960555;}.cls-12{fill:#fff;}.cls-13{opacity:0.3;}</style></defs><title>404</title><ellipse class="cls-1" cx="540.64" cy="549.31" rx="527.5" ry="34.92"/><path class="cls-2" d="M520.43,167c-85.95,0-147.66,55.14-147.66,183.8,0,145.81,61.71,184.41,147.66,184.41s151.32-42.28,151.32-184.41C671.75,198.87,606.37,167,520.43,167ZM521,486.82c-59.53,0-90.63-34.92-90.63-135.92,0-89.11,32.38-136.1,91.9-136.1s91.9,30.86,91.9,136.1C614.16,449.35,580.52,486.82,521,486.82Z"/><path class="cls-3" d="M321.31,433.52H285.78V328.88a21,21,0,0,0-21-21h-8.33a21,21,0,0,0-21,21h0V433.52H135.31A12,12,0,0,1,124.73,416L230.81,215.18a20.94,20.94,0,0,0-8.74-28.31q-.4-.23-.84-.42l-6.26-3a21,21,0,0,0-27.43,9.07l-129.38,242A28.45,28.45,0,0,0,54.8,448h0A28.42,28.42,0,0,0,83.22,476.4H235.54v66.17a25.12,25.12,0,0,0,25.12,25.12h0a25.12,25.12,0,0,0,25.12-25.12h0V476.4h35.53A21.44,21.44,0,0,0,342.75,455h0a21.44,21.44,0,0,0-21.44-21.44Z"/><path class="cls-3" d="M979.31,433.52H943.77V328.88a21,21,0,0,0-20.95-21h-8.33a21,21,0,0,0-21,21h0V433.52H793.31A12,12,0,0,1,782.73,416L888.81,215.18a21,21,0,0,0-8.74-28.31l-.84-.42-6.26-3a21,21,0,0,0-27.43,9.07l-129.38,242A28.33,28.33,0,0,0,712.8,448h0a28.41,28.41,0,0,0,28.42,28.41H893.54v66.17a25.12,25.12,0,0,0,25.11,25.12h0a25.12,25.12,0,0,0,25.12-25.12h0V476.4h35.54A21.44,21.44,0,0,0,1000.75,455h0a21.44,21.44,0,0,0-21.44-21.44Z"/><path class="cls-4" d="M331.11,421.26H295.58V316.62a21,21,0,0,0-21-20.95H266.3a21,21,0,0,0-21,20.95h0V421.26H145.11a12,12,0,0,1-10.58-17.55L240.62,202.93a21,21,0,0,0-8.74-28.32l-.84-.42-6.27-2.95a21,21,0,0,0-27.43,9.07L68,422.34a28.43,28.43,0,0,0-3.35,13.39h0A28.41,28.41,0,0,0,93,464.15H245.34v66.17a25.12,25.12,0,0,0,25.12,25.12h0a25.12,25.12,0,0,0,25.12-25.12h0V464.15h35.53a21.44,21.44,0,0,0,21.45-21.44h0A21.45,21.45,0,0,0,331.11,421.26Z"/><path class="cls-4" d="M997.69,421.26H962.15V316.62a21,21,0,0,0-20.95-20.95h-8.33a21,21,0,0,0-21,20.95h0V421.26H811.69a12,12,0,0,1-10.58-17.55L907.19,202.93a21,21,0,0,0-8.74-28.32l-.84-.42-6.26-2.95a21,21,0,0,0-27.43,9.07l-129.38,242a28.32,28.32,0,0,0-3.36,13.39h0a28.41,28.41,0,0,0,28.42,28.42H911.92v66.17A25.12,25.12,0,0,0,937,555.44h0a25.12,25.12,0,0,0,25.12-25.12h0V464.15h35.54a21.44,21.44,0,0,0,21.44-21.44h0a21.44,21.44,0,0,0-21.44-21.45Z"/><path class="cls-4" d="M540,156c-85.94,0-147.65,55.14-147.65,183.8,0,145.81,61.71,184.41,147.65,184.41s151.33-42.27,151.33-184.41C691.36,187.84,626,156,540,156Zm.57,319.81c-59.53,0-90.63-34.92-90.63-135.92,0-89.11,32.37-136.1,91.9-136.1s91.9,30.87,91.9,136.1c0,98.45-33.65,135.92-93.17,135.92Z"/><circle class="cls-5" cx="471.14" cy="18.25" r="12.9"/><ellipse class="cls-5" cx="502.61" cy="46.88" rx="36.19" ry="46.88"/><path class="cls-6" d="M502.61,79.61c-18.13,0-33.14-17.27-35.78-39.81a62.11,62.11,0,0,0-.41,7.08c0,25.9,16.2,46.89,36.19,46.89s36.18-21,36.18-46.89a59.9,59.9,0,0,0-.41-7.08C535.75,62.34,520.74,79.61,502.61,79.61Z"/><path class="cls-7" d="M576.24,184.19c-.77,3.19-4.13,5.75-7.84,7.54-7.8,3.75-17.42,4.87-26.76,5.25a44.79,44.79,0,0,1-7.14-.13,20.57,20.57,0,0,1-12.25-5.63,1.68,1.68,0,0,1-.49-2.33,1.75,1.75,0,0,1,.53-.52c5-5.46,13.26-8.8,21.62-11.21,6.33-1.83,17.38-6.56,24.29-5.92C574.89,171.85,577.22,180.16,576.24,184.19Z"/><path class="cls-6" d="M576.24,184.19c-.77,3.19-4.13,5.75-7.84,7.54-7.8,3.75-17.42,4.87-26.76,5.25a44.79,44.79,0,0,1-7.14-.13,20.57,20.57,0,0,1-12.25-5.63,1.68,1.68,0,0,1-.49-2.33,1.75,1.75,0,0,1,.53-.52c5-5.46,13.26-8.8,21.62-11.21,6.33-1.83,17.38-6.56,24.29-5.92C574.89,171.85,577.22,180.16,576.24,184.19Z"/><path class="cls-8" d="M477,160.32a19.76,19.76,0,0,0-1.19,15.08,26.36,26.36,0,0,0,8.82,12.49c10.1,8.09,24,9.21,36.93,9.1a284.57,284.57,0,0,0,33.9-2.33,40.45,40.45,0,0,0,11-2.55c4.22-1.83,7.93-5.18,9.43-9.53s.44-9.67-3.13-12.57c-3.14-2.55-7.46-2.9-11.5-3.15l-23.09-1.38c2.28-2.31,5.32-3.62,8.1-5.29,3.68-2.23,6.13-6,8.81-9.34A129.92,129.92,0,0,1,568.57,137c.75,4.31,3.48,7.85,6.69,10.83s6.91,5.37,10.24,8.2c8.08,6.86,13.9,16.16,22.39,22.5a44,44,0,0,0,16.05-8l-3.3-6A4,4,0,0,0,619.4,163c-.94-.57-2.14-.28-3.23-.44-2.9-.44-4.17-3.78-5.31-6.49-3.12-7.42-9.1-13.18-14.21-19.4a98.55,98.55,0,0,1-10-14.72c-1.72-3.11-3.29-6.34-5.62-9s-5.59-4.77-9.14-4.78c-3.13,0-6,1.59-8.71,3.19a230.79,230.79,0,0,0-23.63,16.09c-3.94,3.07-7.86,6.3-12.49,8.18-1.95.79-4,1.33-5.87,2.29-3.27,1.68-5.76,4.53-8.43,7.06C503.22,154,490.16,159.85,477,160.32Z"/><path class="cls-9" d="M525.32,96.1a23.82,23.82,0,0,1-1.73,8,10,10,0,0,1-5.77,5.57,12.28,12.28,0,0,1-5.62.19,11,11,0,0,1-4.59-1.56c-2.16-1.49-3.24-4.15-3.63-6.75s-.22-5.25-.47-7.86a44.6,44.6,0,0,0-1.2-6.26c-.17-.68-.35-1.36-.52-2s-.33-1.36-.48-2-.27-1.28-.38-1.92-.17-1.1-.23-1.65a18.29,18.29,0,0,0-.81-4.81,14.82,14.82,0,0,0-1.68-2.85c-.29-.41-.57-.82-.82-1.24a6,6,0,0,1-1-3.75,3.76,3.76,0,0,1,.15-.6l.09-.23a1.8,1.8,0,0,0,1.23-1.14,3.37,3.37,0,0,0-.15-1.78,11.21,11.21,0,0,0-1-2.29c-.26-.48-1.16-1.34-1.17-1.89,0-1.1,2.14-2,3-2.42a16.83,16.83,0,0,1,8.6-1.74c1.9.12,4,.71,5,2.31.94,1.43.82,3.3,1.22,5a1.47,1.47,0,0,0,.3.66,1.3,1.3,0,0,0,.74.34,4.83,4.83,0,0,0,1.42.06h0a2.38,2.38,0,0,0,.37-.06,4.9,4.9,0,0,0,2-.87c.39-.11.79-.19,1.18-.26h0c1.58,5,1.78,10.31,3.07,15.38.64,2.52,1.56,5,1.68,7.6,0,.11,0,.23,0,.34,0,.84,0,1.68,0,2.51a6.85,6.85,0,0,0,.12,1.11A15.32,15.32,0,0,0,525,90.9v0c.06.19.11.37.16.56a2.88,2.88,0,0,1,.09.4h0A15.23,15.23,0,0,1,525.32,96.1Z"/><circle class="cls-9" cx="503.24" cy="45" r="18.57"/><path class="cls-9" d="M621.1,146.15a30.36,30.36,0,0,0-5.23-14.1l1.44,8.58a3.2,3.2,0,0,1-3.36-1,10.54,10.54,0,0,1-1.77-3.28A67.07,67.07,0,0,0,604,121.59c-11.82-1-23.5-5.89-33.89-11.6S550,97.44,539.69,91.49a42.47,42.47,0,0,0-5.54-2.83c-3.21-1.29-6.81-2-9.86-3.47l-.61-.32a12.46,12.46,0,0,1-1.94-1.31,9.37,9.37,0,0,1-.93-.85,20.46,20.46,0,0,1-3.56-5.95c-1.63-3.62-2.22-8-3.85-11.59a11,11,0,0,1,2.51-1.76h0l.4-.2a11.66,11.66,0,0,1,2-.73c.39-.11.79-.19,1.18-.26h0a11.49,11.49,0,0,1,5.49.44c2.59.87,4.77,2.62,6.94,4.27a115.64,115.64,0,0,1,10.15,8c1.79,1.72,3.43,3.6,5.36,5.17a43,43,0,0,0,5.06,3.35l31.31,18.65c3.53,2.1,7.07,4.21,10.53,6.43,5.24,3.39,10.3,7.06,15.36,10.72l8.94,6.48a10.07,10.07,0,0,1,2.53,2.34,8.46,8.46,0,0,1,1.12,3.44A31.31,31.31,0,0,1,621.1,146.15Z"/><path class="cls-3" d="M529.92,110.06c-1.25,5.62-6.93,9-9.89,14-3.69,6.12-2.19,13.24-.8,20.25l-7.59,6.54c-1.4,1.2-2.8,2.41-4.3,3.47a59.08,59.08,0,0,1-6.86,3.94l-6.72,3.45a31.73,31.73,0,0,1-6.58,2.79c-4.42,1.14-9.11.34-13.47-1a6.56,6.56,0,0,1-1.48-.6,2.48,2.48,0,0,1-.7-.63,4,4,0,0,1-.44-2.54c.44-7.35,2.24-14.55,4-21.69A86.17,86.17,0,0,1,479,125.44a83.74,83.74,0,0,1,5.42-10.15,68.36,68.36,0,0,1,7.92-11.51A18.42,18.42,0,0,0,496,99c1.12-2.55.69-5.48.91-8.25a17.23,17.23,0,0,1,1.64-6h0a16.22,16.22,0,0,1,1.74-2.88l.91,2.13c.21.46.41.93.6,1.39l.77,1.79,2.2,5.11a21.64,21.64,0,0,0,3.33,6,6.51,6.51,0,0,0,11.13-.86,21.41,21.41,0,0,0,2.27-6,19.31,19.31,0,0,0,.25-7.83c-.76-5-2.89-10.13-4.44-14.78a15.16,15.16,0,0,1-1.08-4.88,5.62,5.62,0,0,1,.06-.56l0-.14a11.66,11.66,0,0,1,2-.73c.39-.11.79-.19,1.18-.26q2,11.07,4.1,22.13l.09.52c.2,1.06.4,2.12.62,3.17s.41,1.91.65,2.86v0c.08.33.16.64.25,1h0q.36,1.31.81,2.58C527.88,99.59,531.11,104.74,529.92,110.06Z"/><path class="cls-8" d="M605.27,189a6.6,6.6,0,0,0,.61,3.15c1.16,2.12,4,2.6,6.36,2.8a188,188,0,0,0,42.27-1.29,5,5,0,0,0,2.15-.66c2-1.4.76-4.8-1.41-5.89s-4.75-.82-7.14-1.3a22.41,22.41,0,0,1-6.68-2.89q-7.24-4.17-14.29-8.69c-2.79-1.79-6.09-3.71-9.24-2.65C609.38,174.46,605.21,179.8,605.27,189Z"/><path class="cls-9" d="M501.38,83h0c0,.13,0,.26-.07.39s-.07.43-.12.65c-.39,2-.86,4-1.41,6-1.51,5.46-3.54,10.83-5.55,16.12q-8.07,21.28-16.16,42.58c-1.36,3.58-2.72,7.15-4.26,10.66l-1.58,3.53c-1.89,4.26-3.71,8.65-4.31,13.18a27.44,27.44,0,0,0-.2,9c.61,3,2.41,5.88,5.23,7,1.38.54,3.35,1.26,3,2.69a2.2,2.2,0,0,1-1.9,1.31,7.33,7.33,0,0,1-6-1.72c-1.51-1.34-2.66-3.42-4.67-3.64-1.39-.15-2.66.68-3.94,1.26-5.18,2.37-11.22.71-16.67-1,.43-2.21,2.64-3.66,4.84-4.1s4.48-.13,6.72-.19a3.49,3.49,0,0,0,2-.53,3.68,3.68,0,0,0,1.1-1.88,79.12,79.12,0,0,0,3.22-13.15c.72-4.66,1-9.4,2.06-14,.8-3.6,2-7.08,3.1-10.61a222.56,222.56,0,0,0,5.06-22.08,77.92,77.92,0,0,0,1.43-9.37c.18-2.61.09-5.23.34-7.83a60.9,60.9,0,0,1,2.11-10q1.45-5.35,2.89-10.69c1.42-5.27,2.95-10.75,6.57-14.84a13.92,13.92,0,0,1,10-4.79,9.46,9.46,0,0,1,2.13.23l.35.09a8.5,8.5,0,0,1,2.18.9c1.11-.71,1.68-.46,2.42.63a7,7,0,0,1,.88,3.79A52.74,52.74,0,0,1,501.38,83Z"/><path class="cls-3" d="M502.61,87.16l-.05,0-.25.25L499.78,90l-1.24-5.21-4.26-17.85a9.46,9.46,0,0,1,2.13.23,3.76,3.76,0,0,1,.15-.6l.2.69,1.45,4.9,2.72,9.31.45,1.53h0Z"/><path class="cls-5" d="M518.66,30.2a12.56,12.56,0,0,1-3.7,8.9,11.65,11.65,0,0,1-1.36,1.17,12.51,12.51,0,0,1-7.54,2.53H491a12.59,12.59,0,0,1,0-25.18h15.1A12.62,12.62,0,0,1,518.66,30.2Z"/><circle class="cls-5" cx="532.82" cy="18.25" r="12.9"/><path class="cls-6" d="M532.5,5.35H532a12.9,12.9,0,0,1,0,25.78h.47a12.9,12.9,0,0,0,0-25.8Z"/><path class="cls-6" d="M471.14,5.35h.47a12.9,12.9,0,0,0,0,25.78h-.47a12.9,12.9,0,0,1,0-25.8Z"/><path class="cls-6" d="M513.6,40.27a12.51,12.51,0,0,1-7.53,2.53H491a12.51,12.51,0,0,1-7.54-2.53Z"/><path class="cls-9" d="M611.09,133.76s3.25,9.37,6.22,6.87l-2.37-12.25Z"/><path class="cls-10" d="M1006.86,419.55a20.81,20.81,0,1,0,2.78-39.92l.52,10.72-5.07-9.18a20.71,20.71,0,0,0-10.69,11.72,20.42,20.42,0,0,0-1.19,5.63A20.8,20.8,0,0,0,1006.86,419.55Z"/><path class="cls-4" d="M1031.94,543.79c-1.79-9.11,6-17.18,13.62-22.43S1062.17,511,1064.78,502c3.75-12.8-7.43-24.53-16.14-34.64a125.94,125.94,0,0,1-16.52-24.56c-1.81-3.53-3.48-7.22-3.95-11.17-.69-5.67,1.14-11.32,3-16.73q9.18-27.06,19.63-53.65"/><path class="cls-4" d="M1007.72,416.79a20.81,20.81,0,1,0,2.77-39.91l.52,10.71-5.06-9.18a20.8,20.8,0,0,0,1.77,38.38Z"/><path class="cls-10" d="M1029.4,357.59a20.77,20.77,0,0,1,15-13.2l1.71,10.18,3.18-10.69a20.83,20.83,0,1,1-19.87,13.71Z"/><path class="cls-4" d="M1030.54,353.91a20.79,20.79,0,0,1,15-13.2l1.71,10.19,3.18-10.7a20.83,20.83,0,1,1-19.87,13.71Z"/><path class="cls-10" d="M1045,467.6a20.81,20.81,0,0,0,18.42-37L1061,438.8l-1.73-10.3-.06,0A20.81,20.81,0,0,0,1045,467.6Z"/><path class="cls-4" d="M1046,463.88a20.81,20.81,0,0,0,18.42-37l-2.44,8.22-1.73-10.31-.06,0a20.81,20.81,0,0,0-14.2,39.13Z"/><path class="cls-10" d="M1023.32,502.17a20.8,20.8,0,1,0,4-16.3l9.28,14-12.67-7.41A20.52,20.52,0,0,0,1023.32,502.17Z"/><path class="cls-4" d="M1024.18,499.41a20.8,20.8,0,1,0,4-16.3l9.27,14-12.67-7.41A20.64,20.64,0,0,0,1024.18,499.41Z"/><path class="cls-10" d="M9,470.25A13.67,13.67,0,1,0,10.83,444l.34,7-3.33-6a13.66,13.66,0,0,0-7,7.7A13.66,13.66,0,0,0,9,470.25Z"/><path class="cls-4" d="M25.48,551.88c-1.17-6,3.92-11.29,9-14.74s10.91-6.84,12.63-12.69c2.47-8.42-4.88-16.12-10.6-22.76A82.09,82.09,0,0,1,25.6,485.55a22.28,22.28,0,0,1-2.6-7.34c-.45-3.72.75-7.43,2-11q6-17.78,12.9-35.25"/><path class="cls-4" d="M9.57,468.44a13.68,13.68,0,1,0,1.82-26.23l.34,7-3.33-6a13.63,13.63,0,0,0-7,7.7,13.42,13.42,0,0,0-.78,3.7A13.68,13.68,0,0,0,9.57,468.44Z"/><path class="cls-10" d="M23.81,429.54a13.66,13.66,0,0,1,9.84-8.67l1.13,6.69,2.09-7A13.67,13.67,0,1,1,23,434,13.85,13.85,0,0,1,23.81,429.54Z"/><path class="cls-4" d="M24.56,427.12a13.66,13.66,0,0,1,9.85-8.67l1.12,6.69,2.09-7a13.67,13.67,0,1,1-13.88,13.46A13.85,13.85,0,0,1,24.56,427.12Z"/><path class="cls-10" d="M34.06,501.82a13.67,13.67,0,0,0,12.1-24.32l-1.6,5.4-1.14-6.77,0,0A13.68,13.68,0,1,0,34,501.81Z"/><path class="cls-4" d="M34.71,499.37a13.67,13.67,0,0,0,12.1-24.32l-1.6,5.4-1.14-6.77h0a13.67,13.67,0,0,0-9.32,25.7Z"/><path class="cls-10" d="M19.82,524.53a13.68,13.68,0,1,0,2.64-10.71L28.55,523l-8.33-4.87A13.65,13.65,0,0,0,19.82,524.53Z"/><path class="cls-4" d="M20.39,522.72A13.66,13.66,0,1,0,23,512l6.09,9.17-8.32-4.87A13.39,13.39,0,0,0,20.39,522.72Z"/><ellipse class="cls-11" cx="480.95" cy="319.12" rx="17" ry="22"/><ellipse class="cls-11" cx="573.45" cy="319.62" rx="17" ry="22"/><path class="cls-11" d="M560.45,384.62c0,9.94-13.88,18-31,18s-31-8.06-31-18c0-8.61,10.41-15.81,24.32-17.57a48,48,0,0,1,6.68-.43,50.26,50.26,0,0,1,11.13,1.2C552.2,370.41,560.45,377,560.45,384.62Z"/><ellipse class="cls-4" cx="484.95" cy="314.12" rx="17" ry="22"/><ellipse class="cls-4" cx="577.45" cy="314.62" rx="17" ry="22"/><ellipse class="cls-4" cx="533.45" cy="379.62" rx="31" ry="18"/><path class="cls-12" d="M541,369.32a5,5,0,0,1-1.32,3.39,4.37,4.37,0,0,1-3.18,1.41h-10a4.66,4.66,0,0,1-4.5-4.8,4.9,4.9,0,0,1,.82-2.75,49.32,49.32,0,0,1,17.81.83A5.25,5.25,0,0,1,541,369.32Z"/><circle class="cls-12" cx="484.95" cy="308.12" r="5"/><circle class="cls-12" cx="577.95" cy="308.12" r="5"/><circle class="cls-13" cx="582.95" cy="355.12" r="5"/><circle class="cls-13" cx="460.95" cy="355.12" r="5"/></svg>