<svg fill="#ffffff" enable-background="new 0 0 64 64" height="25" viewBox="0 0 64 64" width="25" xmlns="http://www.w3.org/2000/svg"><g><path d="m21.192 34.232c.557 3.342 3.42 5.768 6.808 5.768s6.251-2.426 6.808-5.768l.373-2.232h-14.362zm11.626-.232c-.434 2.324-2.445 4-4.818 4s-4.384-1.676-4.818-4z"/><path d="m28 54c-1.654 0-3 1.346-3 3s1.346 3 3 3 3-1.346 3-3-1.346-3-3-3zm0 4c-.551 0-1-.449-1-1s.449-1 1-1 1 .449 1 1-.449 1-1 1z"/><path d="m59 15h-11.281c-1.423-7.946-8.37-14-16.719-14h-6c-9.374 0-17 7.626-17 17v5h1.026c-.635.838-1.026 1.87-1.026 3 0 2.457 1.786 4.495 4.125 4.912.736 6.139 4.957 11.209 10.626 13.186l-.002.009c-.241-.063-.489-.107-.749-.107-1.475 0-2.697 1.071-2.947 2.475l-6.479 1.331c-6.707 1.379-11.574 7.348-11.574 14.194v1h54v-1c0-6.847-4.868-12.816-11.574-14.193l-6.479-1.331c-.25-1.405-1.472-2.476-2.947-2.476-.26 0-.508.044-.749.106l-.002-.009c5.668-1.977 9.89-7.047 10.626-13.186 2.339-.416 4.125-2.454 4.125-4.911 0-1.13-.391-2.162-1.026-3h1.026 11c2.206 0 4-1.794 4-4s-1.794-4-4-4zm-13 3v3h-2-5.018c-.24-10.385-4.165-15.531-7.197-17.96 7.905.412 14.215 6.954 14.215 14.96zm-22-1c0-2.206 1.794-4 4-4s4 1.794 4 4-1.794 4-4 4-4-1.794-4-4zm4-6c-3.309 0-6 2.691-6 6 0 1.538.586 2.937 1.54 4h-4.523c.333-13.723 7.423-17.314 8.983-17.937 1.56.623 8.65 4.214 8.982 17.937h-4.522c.954-1.063 1.54-2.462 1.54-4 0-3.309-2.691-6-6-6zm-18 7c0-8.006 6.31-14.548 14.215-14.96-3.032 2.429-6.957 7.575-7.197 17.96h-5.018-2zm0 8c0-1.302.839-2.402 2-2.816v5.631c-1.161-.413-2-1.513-2-2.815zm21.326 18.647.188.676c-.324.479-.514 1.056-.514 1.677 0 .906.417 1.738 1.092 2.297-.055.226-.092.46-.092.703 0 .06.021.117.025.177-.686.238-1.254.713-1.613 1.333-.739-.326-1.554-.51-2.412-.51s-1.673.184-2.412.51c-.358-.62-.927-1.095-1.613-1.333.004-.06.025-.117.025-.177 0-.243-.037-.477-.092-.703.675-.559 1.092-1.391 1.092-2.297 0-.621-.19-1.198-.514-1.677l.188-.676c1.074.228 2.185.353 3.326.353s2.252-.125 3.326-.353zm2.674 5.353c0-.551.449-1 1-1s1 .449 1 1c0 .483-.371.87-.814.959-.318-.34-.712-.602-1.158-.766-.014-.064-.028-.128-.028-.193zm-.832 3.966c-.295-.501-.661-.955-1.084-1.349.151-.36.501-.617.916-.617.551 0 1 .449 1 1 0 .492-.364.883-.832.966zm-11.168-.966c0-.551.449-1 1-1 .414 0 .769.253.921.613-.425.395-.792.85-1.088 1.353-.469-.083-.833-.474-.833-.966zm-1.186-2.041c-.443-.088-.814-.476-.814-.959 0-.551.449-1 1-1s1 .449 1 1c0 .065-.014.129-.028.193-.445.164-.84.426-1.158.766zm3.186 6.041c0-2.206 1.794-4 4-4s4 1.794 4 4-1.794 4-4 4-4-1.794-4-4zm-2-11c.551 0 1 .449 1 1 0 .224-.082.433-.215.603-.5-.374-1.114-.603-1.785-.603 0-.551.449-1 1-1zm-9.024 3.766 5.351-1.099c-.202.403-.327.852-.327 1.333 0 1.309.847 2.412 2.018 2.821-.004.061-.018.118-.018.179 0 1.344.893 2.47 2.113 2.851-.072.372-.113.756-.113 1.149 0 1.538.586 2.937 1.54 4h-10.54v-6h-2v6h-7.959c.442-5.474 4.484-10.114 9.935-11.234zm39.983 11.234h-7.959v-6h-2v6h-10.54c.954-1.063 1.54-2.462 1.54-4 0-.393-.041-.777-.113-1.149 1.22-.381 2.113-1.507 2.113-2.851 0-.061-.014-.118-.018-.179 1.171-.409 2.018-1.512 2.018-2.821 0-.481-.125-.93-.327-1.334l5.351 1.099c5.451 1.12 9.493 5.76 9.935 11.235zm-17.959-14c-.671 0-1.285.229-1.785.603-.133-.17-.215-.379-.215-.603 0-.551.449-1 1-1s1 .449 1 1zm7-18c0 7.72-6.28 14-14 14s-14-6.28-14-14v-6h28zm2-.184v-5.631c1.161.414 2 1.514 2 2.816s-.839 2.401-2 2.815zm15-7.816h-11v-3c0-.338-.031-.667-.051-1h11.051c1.103 0 2 .897 2 2s-.897 2-2 2z"/></g></svg>