<svg version="1.2" xmlns="http://www.w3.org/2000/svg" viewBox="0 0 50 50" width="50" height="50"><style>.s0{fill:#000000}</style><path class="s0" d="m2.4 50q-0.7 0-1.3-0.4q-0.6-0.4-0.9-1.1q-0.3-0.7-0.2-1.4q0.2-0.7 0.7-1.3l45.1-45.1c0.5-0.4 1.1-0.7 1.8-0.7c0.6 0 1.2 0.3 1.7 0.7c0.4 0.5 0.7 1.1 0.7 1.7c0 0.7-0.3 1.3-0.7 1.8l-45.1 45.1q-0.2 0.2-0.4 0.3q-0.2 0.1-0.4 0.2q-0.2 0.1-0.5 0.2q-0.2 0-0.5 0z" /><path class="s0" d="m47.6 50q-0.3 0-0.5 0q-0.3-0.1-0.5-0.2q-0.2-0.1-0.4-0.2q-0.2-0.1-0.4-0.3l-45.1-45.1c-0.4-0.5-0.7-1.1-0.7-1.8c0-0.6 0.3-1.2 0.7-1.7c0.5-0.4 1.1-0.7 1.7-0.7c0.7 0 1.3 0.3 1.8 0.7l45.1 45.1q0.5 0.6 0.7 1.3q0.1 0.7-0.2 1.4q-0.3 0.7-0.9 1.1q-0.6 0.4-1.3 0.4z" /></svg>