<svg id="Layer_1" enable-background="new 0 0 512 512" height="512" viewBox="0 0 512 512" width="512" xmlns="http://www.w3.org/2000/svg"><g><path d="m511.982 359.594c-.002-3.688-2.684-6.827-6.325-7.405l-17.052-2.703-8.709-21.017 10.139-13.987c2.164-2.984 1.838-7.099-.77-9.706l-30.979-30.975c-2.608-2.609-6.729-2.932-9.713-.763l-13.959 10.147-21.013-8.7-2.713-17.056c-.58-3.642-3.72-6.322-7.407-6.322h-.003l-43.795.018c-3.688.001-6.828 2.685-7.405 6.328l-2.7 17.065-20.996 8.712-13.974-10.143c-2.985-2.166-7.103-1.841-9.712.77l-30.957 30.997c-2.605 2.608-2.929 6.723-.763 9.706l10.146 13.974-8.697 21.032-17.041 2.715c-3.643.581-6.321 3.722-6.32 7.41l.018 43.822c.001 3.688 2.684 6.827 6.325 7.404l17.052 2.704 8.709 21.017-10.139 13.987c-2.164 2.984-1.838 7.099.77 9.705l30.977 30.975c2.607 2.609 6.728 2.932 9.713.763l13.959-10.148 21.013 8.7 2.713 17.056c.58 3.642 3.72 6.322 7.407 6.322h.003l43.795-.018c3.688-.001 6.828-2.685 7.405-6.327l2.701-17.065 20.997-8.712 13.974 10.142c2.985 2.167 7.104 1.842 9.712-.77l30.957-30.997c2.605-2.608 2.929-6.723.763-9.706l-10.146-13.974 8.697-21.032 17.041-2.715c3.643-.581 6.322-3.722 6.32-7.41zm-29.849 39.794c-2.576.411-4.754 2.13-5.751 4.541l-11.905 28.789c-.996 2.409-.67 5.163.861 7.272l8.851 12.19-21.907 21.936-12.188-8.847c-2.111-1.533-4.87-1.859-7.279-.857l-28.754 11.931c-2.409 1-4.126 3.179-4.533 5.754l-2.357 14.886-30.988.013-2.366-14.877c-.41-2.576-2.129-4.753-4.538-5.751l-28.771-11.913c-.924-.382-1.898-.57-2.868-.57-1.561 0-3.109.487-4.411 1.434l-12.175 8.851-21.921-21.92 8.846-12.203c1.53-2.111 1.854-4.865.856-7.273l-11.923-28.772c-.999-2.41-3.178-4.128-5.754-4.536l-14.876-2.359-.012-31.018 14.864-2.368c2.576-.411 4.754-2.13 5.751-4.541l11.905-28.789c.996-2.409.67-5.163-.861-7.272l-8.851-12.191 21.907-21.936 12.188 8.847c2.111 1.533 4.87 1.859 7.279.857l28.754-11.931c2.409-1 4.126-3.179 4.534-5.755l2.355-14.886 30.987-.013 2.366 14.877c.41 2.576 2.129 4.753 4.538 5.751l28.771 11.913c2.411.998 5.169.671 7.279-.863l12.175-8.851 21.923 21.92-8.846 12.203c-1.53 2.111-1.854 4.865-.856 7.273l11.923 28.772c.999 2.41 3.178 4.128 5.754 4.536l14.876 2.358.012 31.019z"/><path d="m37.355 90.823c4.143 0 7.5-3.358 7.5-7.5v-29.782c0-21.251 17.206-38.541 38.354-38.541h241.849c4.143 0 7.5-3.358 7.5-7.5s-3.358-7.5-7.5-7.5h-241.849c-29.419 0-53.354 24.019-53.354 53.541v29.782c0 4.142 3.358 7.5 7.5 7.5z"/><path d="m360.08 15h68.145c21.148 0 38.354 17.29 38.354 38.541v204.918c0 4.142 3.357 7.5 7.5 7.5s7.5-3.358 7.5-7.5v-204.918c0-29.522-23.934-53.541-53.354-53.541h-68.145c-4.143 0-7.5 3.358-7.5 7.5s3.358 7.5 7.5 7.5z"/><path d="m230.583 407h-147.374c-21.148 0-38.354-17.29-38.354-38.541v-102.712c0-4.142-3.357-7.5-7.5-7.5s-7.5 3.358-7.5 7.5v102.712c0 29.522 23.935 53.541 53.354 53.541h147.374c4.143 0 7.5-3.358 7.5-7.5s-3.357-7.5-7.5-7.5z"/><path d="m139.974 393.475h87.136c4.143 0 7.5-3.358 7.5-7.5s-3.357-7.5-7.5-7.5h-87.136c-4.143 0-7.5 3.358-7.5 7.5s3.357 7.5 7.5 7.5z"/><path d="m67.26 242.495c-4.143 0-7.5 3.358-7.5 7.5v119.71c0 13.107 10.634 23.77 23.704 23.77h21.403c4.143 0 7.5-3.358 7.5-7.5s-3.357-7.5-7.5-7.5h-21.403c-4.8 0-8.704-3.934-8.704-8.77v-119.71c0-4.142-3.358-7.5-7.5-7.5z"/><path d="m444.174 259.205c4.143 0 7.5-3.358 7.5-7.5v-168.382c0-13.107-10.634-23.77-23.704-23.77h-344.506c-13.07 0-23.704 10.663-23.704 23.77 0 4.142 3.357 7.5 7.5 7.5s7.5-3.358 7.5-7.5c0-4.836 3.904-8.77 8.704-8.77h344.506c4.8 0 8.704 3.934 8.704 8.77v168.381c0 4.143 3.357 7.501 7.5 7.501z"/><path d="m89.558 44.332h30.619c4.143 0 7.5-3.358 7.5-7.5s-3.357-7.5-7.5-7.5h-30.619c-4.143 0-7.5 3.358-7.5 7.5s3.357 7.5 7.5 7.5z"/><path d="m180.14 44.332c4.143 0 7.5-3.358 7.5-7.5s-3.357-7.5-7.5-7.5h-30.619c-4.143 0-7.5 3.358-7.5 7.5s3.357 7.5 7.5 7.5z"/><path d="m148.755 227.164c12.625 0 22.896-10.292 22.896-22.942v-75.685c0-12.651-10.271-22.943-22.896-22.943h-9.243c-4.143 0-7.5 3.358-7.5 7.5s3.357 7.5 7.5 7.5h9.243c4.354 0 7.896 3.563 7.896 7.943v75.685c0 4.379-3.542 7.942-7.896 7.942h-99.727c-1.643 0-3.239.539-4.546 1.535l-29.482 22.465v-107.627c0-4.38 3.542-7.943 7.896-7.943h82.169c4.143 0 7.5-3.358 7.5-7.5s-3.357-7.5-7.5-7.5h-82.169c-12.625 0-22.896 10.292-22.896 22.943v122.771c0 2.851 1.616 5.456 4.172 6.721 1.055.522 2.193.779 3.327.779 1.613 0 3.215-.52 4.547-1.535l39.515-30.109z"/><path d="m136.239 148.797c0-4.142-3.357-7.5-7.5-7.5h-82.829c-4.143 0-7.5 3.358-7.5 7.5s3.357 7.5 7.5 7.5h82.829c4.143 0 7.5-3.358 7.5-7.5z"/><path d="m45.91 175.328c-4.143 0-7.5 3.358-7.5 7.5s3.357 7.5 7.5 7.5h72.851c4.143 0 7.5-3.358 7.5-7.5s-3.357-7.5-7.5-7.5z"/><path d="m439.47 374.054c-4.143 0-7.5 3.358-7.5 7.5 0 28.019-22.778 50.814-50.777 50.814s-50.777-22.795-50.777-50.814 22.778-50.814 50.777-50.814c17.182 0 33.071 8.598 42.503 23 2.27 3.465 6.918 4.435 10.384 2.165 3.465-2.269 4.435-6.918 2.165-10.383-12.214-18.648-32.794-29.782-55.052-29.782-36.27 0-65.777 29.524-65.777 65.814s29.508 65.814 65.777 65.814 65.777-29.524 65.777-65.814c0-4.142-3.358-7.5-7.5-7.5z"/><path d="m121.936 304.304h32.123c4.143 0 7.5-3.358 7.5-7.5s-3.357-7.5-7.5-7.5h-32.123c-4.143 0-7.5 3.358-7.5 7.5s3.357 7.5 7.5 7.5z"/><path d="m121.936 339.304h52.08c4.143 0 7.5-3.358 7.5-7.5s-3.357-7.5-7.5-7.5h-52.08c-4.143 0-7.5 3.358-7.5 7.5s3.357 7.5 7.5 7.5z"/><path d="m389.872 149.495h-32.122c-4.143 0-7.5 3.358-7.5 7.5s3.357 7.5 7.5 7.5h32.122c4.143 0 7.5-3.358 7.5-7.5s-3.357-7.5-7.5-7.5z"/><path d="m389.872 114.495h-52.08c-4.143 0-7.5 3.358-7.5 7.5s3.357 7.5 7.5 7.5h52.08c4.143 0 7.5-3.358 7.5-7.5s-3.357-7.5-7.5-7.5z"/></g></svg>