<?xml version="1.0" encoding="iso-8859-1"?>
<!-- Generator: Adobe Illustrator 19.0.0, SVG Export Plug-In . SVG Version: 6.00 Build 0)  -->
<svg version="1.1" id="Layer_1" xmlns="http://www.w3.org/2000/svg" xmlns:xlink="http://www.w3.org/1999/xlink" x="0px" y="0px"
	 viewBox="0 0 512 512" style="enable-background:new 0 0 512 512;" xml:space="preserve">
<g>
	<g>
		<path d="M319.827,230.518c-0.921-4.852-5.162-8.365-10.102-8.365H188.566c-5.679,0-10.283,4.604-10.283,10.283v49.9
			c0,5.679,4.604,10.283,10.283,10.283h50.567c-5.361,7.789-12.413,14.394-20.671,19.237c-9.854,5.784-21.152,8.842-32.67,8.842
			c-26.834,0-51.186-16.875-60.601-42.001c-2.719-7.231-4.097-14.867-4.097-22.696c0-7.202,1.175-14.278,3.489-21.026
			c8.976-26.122,33.575-43.673,61.209-43.673c12.142,0,23.968,3.38,34.199,9.775c3.737,2.336,8.552,2.03,11.964-0.764l40.862-33.453
			c2.376-1.944,3.758-4.849,3.769-7.92c0.011-3.071-1.352-5.984-3.714-7.946c-24.396-20.255-55.322-31.41-87.08-31.41
			c-75.22,0-136.417,61.196-136.417,136.417c0,22.563,5.624,44.92,16.264,64.655c23.867,44.265,69.907,71.762,120.152,71.762
			c31.442,0,62.128-10.954,86.403-30.844c23.937-19.611,40.64-46.993,47.031-77.095c1.98-9.3,2.983-18.88,2.983-28.478
			C322.211,247.424,321.409,238.851,319.827,230.518z M299.109,280.2c-11.274,53.107-58.932,91.651-113.316,91.651
			c-42.673,0-81.777-23.357-102.051-60.956C74.714,294.15,69.941,275.167,69.941,256c0-63.881,51.971-115.851,115.851-115.851
			c22.738,0,44.971,6.73,63.799,19.148l-25.227,20.653c-11.896-6.046-25.09-9.213-38.572-9.213c-36.416,0-68.829,23.129-80.66,57.56
			c-3.055,8.908-4.604,18.228-4.604,27.704c0,10.309,1.821,20.38,5.409,29.923c12.402,33.101,44.494,55.34,79.855,55.34
			c15.174,0,30.072-4.036,43.076-11.67c16.875-9.896,29.933-25.397,36.772-43.649c1.183-3.157,0.743-6.695-1.178-9.466
			c-1.921-2.771-5.078-4.424-8.451-4.424h-57.165v-29.334h102.041c0.502,4.394,0.755,8.836,0.755,13.281
			C301.644,264.16,300.793,272.3,299.109,280.2z"/>
	</g>
</g>
<g>
	<g>
		<path d="M256,0C114.841,0,0,114.841,0,256s114.841,256,256,256c141.158,0,256-114.841,256-256S397.159,0,256,0z M256,491.435
			C126.181,491.435,20.565,385.819,20.565,256S126.181,20.565,256,20.565S491.435,126.181,491.435,256S385.819,491.435,256,491.435z
			"/>
	</g>
</g>
<g>
	<g>
		<path d="M463.523,228.237h-28.789v-28.79c0-5.679-4.602-10.283-10.283-10.283h-34.96c-5.68,0-10.283,4.604-10.283,10.283v28.79
			h-28.79c-5.68,0-10.283,4.604-10.283,10.283v34.96c0,5.679,4.602,10.283,10.283,10.283h28.79v28.79
			c0,5.679,4.603,10.283,10.283,10.283h34.96c5.68,0,10.283-4.604,10.283-10.283v-28.79h28.789c5.68,0,10.283-4.604,10.283-10.283
			v-34.96C473.806,232.841,469.203,228.237,463.523,228.237z M453.241,263.197h-28.789c-5.68,0-10.283,4.604-10.283,10.283v28.79
			h-14.394v-28.79c0-5.679-4.603-10.283-10.283-10.283h-28.79v-14.394h28.79c5.68,0,10.283-4.604,10.283-10.283v-28.79h14.394v28.79
			c0,5.679,4.603,10.283,10.283,10.283h28.789V263.197z"/>
	</g>
</g>
<g>
</g>
<g>
</g>
<g>
</g>
<g>
</g>
<g>
</g>
<g>
</g>
<g>
</g>
<g>
</g>
<g>
</g>
<g>
</g>
<g>
</g>
<g>
</g>
<g>
</g>
<g>
</g>
<g>
</g>
</svg>
