<svg xmlns="http://www.w3.org/2000/svg" viewBox="0 0 512 512" style="fill: #fff;"><path d="m352 256c0-52.933594-43.066406-96-96-96s-96 43.066406-96 96 43.066406 96 96 96 96-43.066406 96-96zm-96 56c-30.878906 0-56-25.121094-56-56s25.121094-56 56-56 56 25.121094 56 56-25.121094 56-56 56zm-140-56c0 22.785156 5.296875 44.511719 15.738281 64.5625 5.101563 9.796875 1.296875 21.875-8.5 26.976562-2.953125 1.539063-6.109375 2.265626-9.222656 2.265626-7.21875 0-14.1875-3.917969-17.753906-10.765626-13.253907-25.453124-20.261719-54.167968-20.261719-83.039062 0-11.046875 8.953125-20 20-20s20 8.953125 20 20zm30.464844 118.328125c6.445312-8.96875 18.941406-11.015625 27.914062-4.566406 2.640625 1.898437 5.378906 3.726562 8.136719 5.429687 9.394531 5.804688 12.304687 18.128906 6.496094 27.527344-3.78125 6.117188-10.328125 9.484375-17.03125 9.484375-3.585938 0-7.21875-.964844-10.496094-2.988281-3.539063-2.1875-7.054687-4.535156-10.449219-6.972656-8.96875-6.445313-11.015625-18.941407-4.570312-27.914063zm99.375 118.300781c-1.28125 10.101563-9.890625 17.484375-19.816406 17.484375-.835938 0-1.6875-.054687-2.539063-.160156-127.40625-16.164063-223.484375-125.339844-223.484375-253.953125 0-68.378906 26.628906-132.667969 74.980469-181.019531 48.351562-48.351563 112.640625-74.980469 181.019531-74.980469 85.460938 0 164.886719 42.179688 212.472656 112.828125 6.167969 9.160156 3.746094 21.589844-5.417968 27.761719-9.160157 6.171875-21.589844 3.746094-27.761719-5.417969-40.136719-59.59375-107.160157-95.171875-179.292969-95.171875-119.101562 0-216 96.898438-216 216 0 108.519531 81.046875 200.636719 188.515625 214.269531 10.960937 1.390625 18.714844 11.402344 17.324219 22.359375zm30.160156-236.628906c0 11.046875-8.953125 20-20 20s-20-8.953125-20-20 8.953125-20 20-20 20 8.953125 20 20zm228.574219-74.582031c-4.695313-3.796875-10.851563-5.265625-16.761719-4.003907l-74.527344 15.953126c-21.027344 4.390624-36.285156 23.152343-36.285156 44.636718v140.765625c-9.097656-4.335937-19.269531-6.769531-30-6.769531-38.597656 0-70 31.402344-70 70s31.402344 70 70 70c38.15625 0 69.257812-30.691406 69.964844-68.679688.007812-.222656.035156-.4375.035156-.664062v-128.226562l55.402344-11.875c22.945312-4.882813 39.597656-25.449219 39.597656-48.90625v-56.675782c0-6.039062-2.730469-11.757812-7.425781-15.554687zm-157.574219 290.582031c-16.542969 0-30-13.457031-30-30s13.457031-30 30-30 30 13.457031 30 30-13.457031 30-30 30zm125-218.351562c0 4.691406-3.332031 8.804687-7.949219 9.785156l-47.050781 10.085937v-35.515625c0-2.640625 1.878906-4.945312 4.464844-5.480468.042968-.007813.085937-.019532.132812-.027344l50.402344-10.789063zm0 0"/></svg>