<svg height="512" viewBox="0 0 64 64" width="512" xmlns="http://www.w3.org/2000/svg"><g id="Setting"><path d="m13 12h-2v2h-1v2h1v10h2v-10h1v-2h-1z"/><path d="m18 12h-2v6h-1v2h1v6h2v-6h1v-2h-1z"/><path d="m13 40h-2v6h-1v2h1v6h2v-6h1v-2h-1z"/><path d="m16 50h-1v2h1v2h2v-2h1v-2h-1v-10h-2z"/><path d="m33 5h2v2h-2z"/><path d="m46.805 45.651 1.847-1.846a2.993 2.993 0 0 0 .319-3.866l-1.016-1.421a.977.977 0 0 1 -.112-.947q.091-.212.178-.428a.968.968 0 0 1 .749-.59l1.723-.288a2.991 2.991 0 0 0 2.507-2.959v-2.612a2.991 2.991 0 0 0 -2.506-2.959l-1.725-.288a.971.971 0 0 1 -.749-.591c-.057-.143-.116-.286-.177-.427a.975.975 0 0 1 .113-.947l1.015-1.421a2.992 2.992 0 0 0 -.32-3.866l-1.846-1.846a2.992 2.992 0 0 0 -3.865-.32l-1.423 1.016a.974.974 0 0 1 -.947.111q-.211-.091-.427-.177a.971.971 0 0 1 -.591-.748l-.287-1.724a2.983 2.983 0 0 0 -1.265-1.973v-9.534a3 3 0 0 0 -3-3h-30a3 3 0 0 0 -3 3v54a3 3 0 0 0 3 3h30a3 3 0 0 0 3-3v-9.534a2.983 2.983 0 0 0 1.265-1.973l.287-1.724a.971.971 0 0 1 .591-.748c.144-.057.286-.116.428-.177a.974.974 0 0 1 .947.111l1.421 1.016a2.992 2.992 0 0 0 3.866-.32zm-16.805-41.651a1 1 0 0 1 -1 1h-18a1 1 0 0 1 -1-1zm5 56h-30a1 1 0 0 1 -1-1v-54a1 1 0 0 1 1-1h3a3 3 0 0 0 3 3h18a3 3 0 0 0 3-3h3a1 1 0 0 1 1 1v9h-2v-5a1 1 0 0 0 -1-1h-26a1 1 0 0 0 -1 1v48a1 1 0 0 0 1 1h26a1 1 0 0 0 1-1v-7h2v9a1 1 0 0 1 -1 1zm-13.971-35.939 1.016 1.421a.977.977 0 0 1 .112.947q-.091.212-.178.428a.968.968 0 0 1 -.749.59l-1.723.288a2.991 2.991 0 0 0 -2.507 2.959v2.612a2.991 2.991 0 0 0 2.506 2.959l1.725.288a.971.971 0 0 1 .749.591c.057.143.116.286.177.427a.975.975 0 0 1 -.113.947l-1.015 1.421a2.992 2.992 0 0 0 .32 3.866l1.851 1.846a2.989 2.989 0 0 0 3.865.32l1.423-1.016a.974.974 0 0 1 .947-.111q.212.092.427.177a.971.971 0 0 1 .591.748l.287 1.724a2.983 2.983 0 0 0 1.26 1.973v6.534h-24v-46h24v4.534a2.983 2.983 0 0 0 -1.265 1.973l-.287 1.724a.971.971 0 0 1 -.591.748c-.144.057-.286.116-.428.177a.971.971 0 0 1 -.947-.111l-1.421-1.016a2.992 2.992 0 0 0 -3.866.32l-1.847 1.851a2.993 2.993 0 0 0 -.319 3.861zm23.071 20.283-1.42-1.016a2.981 2.981 0 0 0 -2.9-.32c-.122.052-.244.1-.368.151a2.983 2.983 0 0 0 -1.83 2.281l-.288 1.725a1 1 0 0 1 -.986.835h-2.614a1 1 0 0 1 -.986-.835l-.288-1.725a2.983 2.983 0 0 0 -1.83-2.281c-.124-.049-.246-.1-.366-.151a2.921 2.921 0 0 0 -1.161-.238 3 3 0 0 0 -1.743.558l-1.42 1.016a.993.993 0 0 1 -1.288-.107l-1.846-1.846a1 1 0 0 1 -.106-1.289l1.015-1.422a2.982 2.982 0 0 0 .32-2.9c-.053-.12-.1-.243-.151-.366a2.98 2.98 0 0 0 -2.28-1.83l-1.726-.288a1 1 0 0 1 -.838-.99v-2.612a1 1 0 0 1 .836-.986l1.724-.288a2.977 2.977 0 0 0 2.28-1.829c.049-.124.1-.247.152-.367a2.982 2.982 0 0 0 -.32-2.9l-1.015-1.424a1 1 0 0 1 .106-1.289l1.846-1.846a1 1 0 0 1 1.289-.107l1.422 1.016a2.977 2.977 0 0 0 2.9.32c.122-.052.244-.1.368-.151a2.983 2.983 0 0 0 1.83-2.281l.288-1.725a1 1 0 0 1 .988-.837h2.612a1 1 0 0 1 .986.835l.288 1.725a2.983 2.983 0 0 0 1.83 2.281c.124.049.246.1.366.151a2.983 2.983 0 0 0 2.9-.32l1.424-1.016a1 1 0 0 1 1.288.107l1.846 1.846a1 1 0 0 1 .106 1.289l-1.012 1.422a2.982 2.982 0 0 0 -.32 2.9c.053.12.1.243.151.366a2.98 2.98 0 0 0 2.28 1.83l1.726.288a1 1 0 0 1 .835.986v2.612a1 1 0 0 1 -.836.986l-1.724.288a2.977 2.977 0 0 0 -2.28 1.829c-.049.124-.1.247-.152.367a2.982 2.982 0 0 0 .32 2.9l1.015 1.428a1 1 0 0 1 -.106 1.289l-1.846 1.846a1 1 0 0 1 -1.291.109z"/><path d="m35 23a9 9 0 1 0 9 9 9.01 9.01 0 0 0 -9-9zm0 16a7 7 0 1 1 7-7 7.008 7.008 0 0 1 -7 7z"/><path d="m34 31h2v2h-2z"/><path d="m38 31h2v2h-2z"/><path d="m30 31h2v2h-2z"/><path d="m53 7a4 4 0 1 0 4 4 4 4 0 0 0 -4-4zm0 6a2 2 0 1 1 2-2 2 2 0 0 1 -2 2z"/><path d="m61.242 8.03-.668-.167.355-.591a1 1 0 0 0 -.151-1.221l-2.828-2.829a1 1 0 0 0 -1.222-.151l-.591.355-.167-.668a1 1 0 0 0 -.97-.758h-4a1 1 0 0 0 -.97.758l-.167.668-.591-.355a1 1 0 0 0 -1.222.151l-2.828 2.829a1 1 0 0 0 -.151 1.221l.355.591-.668.167a1 1 0 0 0 -.758.97v4a1 1 0 0 0 .758.97l.668.167-.355.591a1 1 0 0 0 .151 1.221l2.828 2.829a1 1 0 0 0 1.222.151l.591-.355.167.668a1 1 0 0 0 .97.758h4a1 1 0 0 0 .97-.758l.167-.668.591.355a1 1 0 0 0 1.222-.151l2.828-2.829a1 1 0 0 0 .151-1.221l-.355-.591.668-.167a1 1 0 0 0 .758-.97v-4a1 1 0 0 0 -.758-.97zm-1.242 4.189-1.22.3a1 1 0 0 0 -.615 1.485l.647 1.078-1.725 1.726-1.078-.648a1 1 0 0 0 -1.485.615l-.3 1.22h-2.443l-.3-1.22a1 1 0 0 0 -1.485-.615l-1.078.648-1.725-1.726.647-1.078a1 1 0 0 0 -.615-1.485l-1.22-.3v-2.438l1.22-.3a1 1 0 0 0 .615-1.485l-.647-1.078 1.725-1.725 1.078.647a1 1 0 0 0 1.485-.615l.3-1.22h2.438l.3 1.22a1 1 0 0 0 1.485.615l1.078-.647 1.725 1.725-.647 1.078a1 1 0 0 0 .615 1.485l1.22.3z"/><path d="m53 49a4 4 0 1 0 4 4 4 4 0 0 0 -4-4zm0 6a2 2 0 1 1 2-2 2 2 0 0 1 -2 2z"/><path d="m61.242 50.03-.668-.167.355-.591a1 1 0 0 0 -.151-1.221l-2.828-2.829a1 1 0 0 0 -1.222-.151l-.591.355-.167-.668a1 1 0 0 0 -.97-.758h-4a1 1 0 0 0 -.97.758l-.167.668-.591-.355a1 1 0 0 0 -1.222.151l-2.828 2.829a1 1 0 0 0 -.151 1.221l.355.591-.668.167a1 1 0 0 0 -.758.97v4a1 1 0 0 0 .758.97l.668.167-.355.591a1 1 0 0 0 .151 1.221l2.828 2.829a1 1 0 0 0 1.222.151l.591-.355.167.668a1 1 0 0 0 .97.758h4a1 1 0 0 0 .97-.758l.167-.668.591.355a1 1 0 0 0 1.222-.151l2.828-2.829a1 1 0 0 0 .151-1.221l-.355-.591.668-.167a1 1 0 0 0 .758-.97v-4a1 1 0 0 0 -.758-.97zm-1.242 4.189-1.22.3a1 1 0 0 0 -.615 1.485l.647 1.078-1.725 1.726-1.078-.648a1 1 0 0 0 -1.485.615l-.3 1.22h-2.443l-.3-1.22a1 1 0 0 0 -1.485-.615l-1.078.648-1.725-1.726.647-1.078a1 1 0 0 0 -.615-1.485l-1.22-.3v-2.438l1.22-.3a1 1 0 0 0 .615-1.485l-.647-1.078 1.725-1.725 1.078.647a1 1 0 0 0 1.485-.615l.3-1.22h2.438l.3 1.22a1 1 0 0 0 1.485.615l1.078-.647 1.725 1.725-.647 1.078a1 1 0 0 0 .615 1.485l1.22.3z"/><path d="m52 22v4a1 1 0 0 0 1 1h5v10h-5a1 1 0 0 0 -1 1v4h2v-3h5a1 1 0 0 0 1-1v-12a1 1 0 0 0 -1-1h-5v-3z"/></g></svg>