<?xml version="1.0" encoding="iso-8859-1"?>
<!-- Generator: Adobe Illustrator 19.0.0, SVG Export Plug-In . SVG Version: 6.00 Build 0)  -->
<svg fill="#ffffff" version="1.1" id="Capa_1" xmlns="http://www.w3.org/2000/svg" xmlns:xlink="http://www.w3.org/1999/xlink" x="0px" y="0px"
	 viewBox="0 0 512 512" style="enable-background:new 0 0 512 512;" xml:space="preserve">
<g>
	<g>
		<path d="M479.462,140.444c-18.58-23.128-48.192-38.443-81.437-42.693C387.487,33.508,331.152,0,276.999,0h-130.8
			c-18.183,0-35.997,6.279-50.161,17.679C81.873,29.08,71.932,45.141,68.062,62.836L11.113,318.904
			c-5.139,23.494,0.654,47.828,15.894,66.763C42.524,404.944,65.555,416,90.196,416h21.742l-0.705,3.127
			c-5.117,22.69,0.28,46.122,14.806,64.288C140.565,501.581,162.236,512,185.495,512c35.263,0,65.688-23.936,73.988-58.208
			l13.199-54.5C274.863,390.289,282.856,384,292.12,384h33.389c48.374,0,92.52-16.91,124.307-47.615
			c7.944-7.674,8.164-20.336,0.489-28.28c-7.675-7.945-20.335-8.163-28.28-0.489C397.384,331.418,364.009,344,325.509,344H292.12
			c-27.792,0-51.772,18.865-58.314,45.877l-13.199,54.5C216.668,460.641,202.23,472,185.495,472
			c-11.038,0-21.322-4.944-28.216-13.565c-6.893-8.621-9.454-19.741-7.026-30.509L182.033,287h41.652
			c32.573,0,61.366-5.515,85.58-16.391c25.854-11.613,46.67-29.344,61.87-52.701c6.025-9.258,3.404-21.647-5.854-27.671
			c-9.257-6.026-21.647-3.405-27.671,5.854C315.625,229.872,277.295,247,223.685,247h-32.632l17.77-78.799
			C212.965,149.83,229.01,137,247.842,137h138.809c0.577,0,1.15-0.024,1.715-0.073c24.98,2.075,46.959,12.446,59.912,28.569
			c14.028,17.462,17.886,41.499,11.467,71.444c-2.315,10.8,4.563,21.433,15.364,23.748c10.801,2.319,21.433-4.563,23.748-15.364
			C510.149,192.649,494.543,159.216,479.462,140.444z M247.842,97c-18.089,0-35.832,6.222-49.96,17.519s-24.101,27.237-28.08,44.883
			c-1.11,2.434-48.798,213.759-48.843,216.598H90.196c-12.47,0-24.144-5.618-32.028-15.414c-7.608-9.453-10.517-21.53-7.993-33.066
			l56.948-256.068C111.109,53.228,127.543,40,146.198,40h130.8c33.38,0,69.83,17.975,80.01,57H247.842z"/>
	</g>
</g>
<g>
</g>
<g>
</g>
<g>
</g>
<g>
</g>
<g>
</g>
<g>
</g>
<g>
</g>
<g>
</g>
<g>
</g>
<g>
</g>
<g>
</g>
<g>
</g>
<g>
</g>
<g>
</g>
<g>
</g>
</svg>
