<svg xmlns="http://www.w3.org/2000/svg" height="25" viewBox="0 0 64 64" width="25"><g id="Setting-Computer-Gear-Configuration-Tutorial"><path d="m20 16a1 1 0 0 0 1 1h2.522a9.4 9.4 0 0 0 .362.874l-1.784 1.783a1 1 0 0 0 0 1.414l2.829 2.829a1 1 0 0 0 1.414 0l1.783-1.783a8.983 8.983 0 0 0 .874.362v2.521a1 1 0 0 0 1 1h4a1 1 0 0 0 1-1v-2.522a8.763 8.763 0 0 0 .873-.362l1.784 1.784a1 1 0 0 0 1.414 0l2.829-2.829a1 1 0 0 0 0-1.414l-1.784-1.783a9.247 9.247 0 0 0 .362-.874h2.522a1 1 0 0 0 1-1v-4a1 1 0 0 0 -1-1h-2.522a9.12 9.12 0 0 0 -.363-.873l1.785-1.784a1 1 0 0 0 0-1.414l-2.829-2.829a1 1 0 0 0 -1.414 0l-1.783 1.784a9.285 9.285 0 0 0 -.874-.362v-2.522a1 1 0 0 0 -1-1h-4a1 1 0 0 0 -1 1v2.523a9.124 9.124 0 0 0 -.874.361l-1.783-1.784a1 1 0 0 0 -1.414 0l-2.829 2.829a1 1 0 0 0 0 1.414l1.783 1.784a9.266 9.266 0 0 0 -.362.873h-2.521a1 1 0 0 0 -1 1zm2-3h2.262a1 1 0 0 0 .968-.75 7 7 0 0 1 .745-1.8 1 1 0 0 0 -.154-1.216l-1.6-1.6 1.414-1.414 1.6 1.6a1 1 0 0 0 1.216.154 7 7 0 0 1 1.8-.745 1 1 0 0 0 .749-.967v-2.262h2v2.262a1 1 0 0 0 .75.968 6.982 6.982 0 0 1 1.8.745 1 1 0 0 0 1.216-.154l1.6-1.6 1.414 1.414-1.6 1.6a1 1 0 0 0 -.155 1.216 7 7 0 0 1 .747 1.8 1 1 0 0 0 .967.75h2.261v2h-2.262a1 1 0 0 0 -.967.75 7.01 7.01 0 0 1 -.747 1.8 1 1 0 0 0 .155 1.216l1.6 1.6-1.414 1.414-1.6-1.6a1 1 0 0 0 -1.216-.154 6.963 6.963 0 0 1 -1.8.745 1 1 0 0 0 -.751.968v2.26h-1.998v-2.262a1 1 0 0 0 -.75-.968 6.955 6.955 0 0 1 -1.8-.745 1 1 0 0 0 -1.216.154l-1.6 1.6-1.414-1.414 1.6-1.6a1 1 0 0 0 .154-1.216 6.976 6.976 0 0 1 -.745-1.8 1 1 0 0 0 -.968-.75h-2.261z"/><path d="m32 19a5 5 0 1 0 -5-5 5.006 5.006 0 0 0 5 5zm0-8a3 3 0 1 1 -3 3 3 3 0 0 1 3-3z"/><path d="m55.707 56.293-6-6a1 1 0 0 0 -.707-.293h-30v-2a3 3 0 0 0 -3-3h-6a1 1 0 0 1 0-2h6a3 3 0 0 0 3-3v-2h7v4h-4a1 1 0 0 0 -1 1v4a1 1 0 0 0 1 1h20a1 1 0 0 0 1-1v-4a1 1 0 0 0 -1-1h-4v-4h14a3 3 0 0 0 3-3v-26a3 3 0 0 0 -3-3h-8v2h8a1 1 0 0 1 1 1v21h-42v-21a1 1 0 0 1 1-1h8v-2h-8a3 3 0 0 0 -3 3v26a3 3 0 0 0 3 3h5v2a1 1 0 0 1 -1 1h-6a3 3 0 0 0 0 6h6a1 1 0 0 1 1 1v2h-2a1 1 0 0 0 -.707.293l-6 6a1 1 0 0 0 -.293.707v3a2 2 0 0 0 2 2h44a2 2 0 0 0 2-2v-3a1 1 0 0 0 -.293-.707zm-14.707-10.293h-18v-2h18zm-5-4h-8v-4h8zm-25-7v-3h42v3a1 1 0 0 1 -1 1h-40a1 1 0 0 1 -1-1zm4.414 17h33.172l4 4h-41.172zm-5.414 8v-2h44v2z"/><path d="m16 53h2v2h-2z"/><path d="m20 53h2v2h-2z"/><path d="m42 53h2v2h-2z"/><path d="m24 53h16v2h-16z"/><path d="m46 53h2v2h-2z"/><path d="m47 33h2v2h-2z"/></g></svg>