<svg 
 xmlns="http://www.w3.org/2000/svg"
 xmlns:xlink="http://www.w3.org/1999/xlink"
 width="4px" height="20px">
<path fill-rule="evenodd"  fill="rgb(124, 142, 165)"
 d="M2.000,12.000 C0.895,12.000 -0.000,11.105 -0.000,10.000 C-0.000,8.895 0.895,8.000 2.000,8.000 C3.104,8.000 4.000,8.895 4.000,10.000 C4.000,11.105 3.104,12.000 2.000,12.000 ZM2.000,4.000 C0.895,4.000 -0.000,3.105 -0.000,2.000 C-0.000,0.895 0.895,-0.000 2.000,-0.000 C3.104,-0.000 4.000,0.895 4.000,2.000 C4.000,3.105 3.104,4.000 2.000,4.000 ZM2.000,16.000 C3.104,16.000 4.000,16.895 4.000,18.000 C4.000,19.104 3.104,20.000 2.000,20.000 C0.895,20.000 -0.000,19.104 -0.000,18.000 C-0.000,16.895 0.895,16.000 2.000,16.000 Z"/>
</svg>