<svg 
 xmlns="http://www.w3.org/2000/svg"
 xmlns:xlink="http://www.w3.org/1999/xlink"
 width="17px" height="16px">
<path fill-rule="evenodd"  fill="rgb(124, 142, 165)"
 d="M11.777,-0.000 C10.940,-0.000 10.139,0.197 9.395,0.585 C9.080,0.749 8.783,0.947 8.506,1.173 C8.230,0.947 7.931,0.749 7.618,0.585 C6.874,0.197 6.073,-0.000 5.236,-0.000 C2.354,-0.000 0.009,2.394 0.009,5.337 C0.009,7.335 1.010,9.428 2.986,11.557 C4.579,13.272 6.527,14.702 7.881,15.599 L8.506,16.012 L9.132,15.599 C10.487,14.701 12.436,13.270 14.027,11.557 C16.002,9.428 17.004,7.335 17.004,5.337 C17.004,2.394 14.659,-0.000 11.777,-0.000 ZM5.236,2.296 C6.168,2.296 7.027,2.738 7.590,3.507 L8.506,4.754 L9.423,3.505 C9.986,2.737 10.844,2.296 11.777,2.296 C13.403,2.296 14.727,3.660 14.727,5.337 C14.727,6.734 13.932,8.298 12.364,9.986 C11.114,11.332 9.604,12.490 8.506,13.255 C7.409,12.490 5.899,11.332 4.649,9.986 C3.081,8.298 2.286,6.734 2.286,5.337 C2.286,3.660 3.610,2.296 5.236,2.296 Z"/>
</svg>