<svg id="SVG" xmlns="http://www.w3.org/2000/svg" width="1593.78" height="55.594" viewBox="0 0 1593.78 55.594">
  <defs>
    <style>
      .cls-1 {
        fill: #72859b;
      }

      .cls-1, .cls-2, .cls-3 {
        fill-rule: evenodd;
      }

      .cls-2 {
        fill: #fb324f;
      }

      .cls-3 {
        fill: #fff;
      }
    </style>
  </defs>
  <g id="Up">
    <path id="Play_list" data-name="Play list" class="cls-1" d="M1564.14,6.492h-14.81V8.267h14.81V6.492Zm0-4.021h-14.81V4.246h14.81V2.471Zm-14.81,9.817h7.79V10.513h-7.79v1.775Zm0,4.021h7.79V14.534h-7.79v1.775Zm10.03-5.706v5.615l4.67-2.808Z" transform="translate(0 -0.281)"/>
    <path id="Genre" class="cls-1" d="M1592.98,5.662a4.807,4.807,0,0,0-1.23-1.768,28.217,28.217,0,0,0-12.34,0,4.788,4.788,0,0,0-.34,6.5l0.32,0.349,4.13,4.1a0.758,0.758,0,0,0,.54.222,0.8,0.8,0,0,0,.54-0.209,0.727,0.727,0,0,0,.22-0.52,0.694,0.694,0,0,0-.21-0.524l-4.11-4.079-0.27-.3a3.338,3.338,0,0,1,.27-4.507,3.482,3.482,0,0,1,4.58-.252,0.8,0.8,0,0,0,.5.165,0.811,0.811,0,0,0,.5-0.165,3.481,3.481,0,0,1,4.58.252,3.387,3.387,0,0,1,.88,1.227,2.253,2.253,0,0,1,.06,1.327,0.741,0.741,0,0,0,.6.866,0.768,0.768,0,0,0,.57-0.112,0.744,0.744,0,0,0,.33-0.471A3.809,3.809,0,0,0,1592.98,5.662Zm-13.43,4.979h0Zm6.22,4.015a1.692,1.692,0,0,1,1.72-1.662,1.76,1.76,0,0,1,.57.095v-1.87a0.553,0.553,0,0,1,.4-0.53l4.57-1.364a0.59,0.59,0,0,1,.51.084,0.536,0.536,0,0,1,.23.446v4.063a1.716,1.716,0,1,1-1.71-1.662,1.757,1.757,0,0,1,.57.095V10.6l-3.43,1.023v3.029A1.716,1.716,0,0,1,1585.77,14.656Z" transform="translate(0 -0.281)"/>
    <path id="Blog" class="cls-1" d="M1486.75,8.788a0.79,0.79,0,1,0,.79-0.79A0.788,0.788,0,0,0,1486.75,8.788Zm-1.16,6.268a0.8,0.8,0,0,0-.57-0.206,7.69,7.69,0,0,1-3.26-.556,0.781,0.781,0,0,0-.6,0l-2.61,1.1,0.85-2.015a0.774,0.774,0,0,0-.14-0.833,5.321,5.321,0,0,1-1.4-3.575c0-3.261,3.05-5.914,6.81-5.914s6.81,2.653,6.81,5.914a5.212,5.212,0,0,1-.56,2.3,0.792,0.792,0,0,0,1.42.7,6.755,6.755,0,0,0,.72-3c0-4.132-3.76-7.494-8.39-7.494s-8.39,3.362-8.39,7.494a6.838,6.838,0,0,0,1.48,4.236l-1.42,3.364a0.793,0.793,0,0,0,1.04,1.035l4.1-1.733a9.2,9.2,0,0,0,3.19.56q0.21,0,.42-0.009a0.786,0.786,0,0,0,.55-0.256,0.8,0.8,0,0,0,.21-0.568A0.777,0.777,0,0,0,1485.59,15.056Zm-1.74-6.268a0.79,0.79,0,1,0,.79-0.79A0.788,0.788,0,0,0,1483.85,8.788Zm5.07,2.42a0.741,0.741,0,0,0-.34-0.2l-2.6-.721a0.791,0.791,0,0,0-.97.991l0.77,2.539a0.844,0.844,0,0,0,.2.33l3.54,3.533a2.076,2.076,0,0,0,2.93-2.942Zm1.28,3.507-0.71.707-2.26-2.256-0.29-.975,1.02,0.282Zm1.28,1.492a0.489,0.489,0,0,1-.49.5h-0.01a0.5,0.5,0,0,1-.35-0.147l-0.02-.021,0.71-.707,0.02,0.022A0.508,0.508,0,0,1,1491.48,16.206Zm-10.53-7.418a0.79,0.79,0,1,0,.79-0.79A0.788,0.788,0,0,0,1480.95,8.788Z" transform="translate(0 -0.281)"/>
    <path id="Admin" class="cls-1" d="M1520.05,15.673a0.727,0.727,0,0,0-.54.881,0.212,0.212,0,0,1-.05.185,0.2,0.2,0,0,1-.17.084h-7.97a0.22,0.22,0,0,1-.17-0.084,0.211,0.211,0,0,1-.04-0.185,4.319,4.319,0,0,1,7.12-2.167,0.74,0.74,0,0,0,1.04-.042,0.726,0.726,0,0,0,.19-0.526,0.714,0.714,0,0,0-.24-0.508,5.627,5.627,0,0,0-1.59-1.042,3.328,3.328,0,1,0-4.64,0,6.053,6.053,0,0,0-1.29.775,5.779,5.779,0,0,0-2.01,3.168,1.642,1.642,0,0,0,.32,1.43,1.663,1.663,0,0,0,1.31.64h7.97a1.687,1.687,0,0,0,1.64-2.07A0.736,0.736,0,0,0,1520.05,15.673Zm-4.74-7.658a1.869,1.869,0,1,1-1.87,1.869A1.864,1.864,0,0,1,1515.31,8.015Zm6.33-.488h-0.33a0.137,0.137,0,0,1-.12-0.08,0.167,0.167,0,0,1,.02-0.171l0.23-.231a2.043,2.043,0,0,0,0-2.873l-0.46-.46a2.028,2.028,0,0,0-2.87,0l-0.23.231a0.156,0.156,0,0,1-.16.02,0.129,0.129,0,0,1-.09-0.124V3.514a2.033,2.033,0,0,0-2.03-2.031h-0.65a2.033,2.033,0,0,0-2.03,2.031V3.841a0.129,0.129,0,0,1-.09.124,0.156,0.156,0,0,1-.16-0.02l-0.23-.231a2.028,2.028,0,0,0-2.87,0l-0.46.46a2.037,2.037,0,0,0,0,2.873l0.23,0.231a0.167,0.167,0,0,1,.02.171,0.126,0.126,0,0,1-.12.08h-0.33a2.033,2.033,0,0,0-2.03,2.031v0.65a2.033,2.033,0,0,0,2.03,2.031h0.33a0.133,0.133,0,0,1,.12.088l0.01,0.011a0.7,0.7,0,0,0,.39.4,0.746,0.746,0,0,0,.28.056,0.712,0.712,0,0,0,.28-0.056,0.752,0.752,0,0,0,.4-0.4,0.772,0.772,0,0,0,0-.56l-0.01-.01a1.585,1.585,0,0,0-1.47-.992h-0.33a0.573,0.573,0,0,1-.57-0.569V9.559a0.573,0.573,0,0,1,.57-0.569h0.33A1.585,1.585,0,0,0,1510.71,8l0.01-.01a1.609,1.609,0,0,0-.34-1.746l-0.24-.231a0.573,0.573,0,0,1,0-.8l0.46-.46a0.557,0.557,0,0,1,.81,0l0.23,0.232a1.587,1.587,0,0,0,1.74.341l0.01,0a1.6,1.6,0,0,0,.99-1.475V3.514a0.573,0.573,0,0,1,.57-0.569h0.65a0.573,0.573,0,0,1,.57.569V3.841a1.6,1.6,0,0,0,.99,1.475l0.01,0a1.587,1.587,0,0,0,1.74-.341l0.23-.231a0.557,0.557,0,0,1,.81,0l0.46,0.46a0.585,0.585,0,0,1,0,.8l-0.24.231a1.609,1.609,0,0,0-.34,1.746L1519.84,8a1.585,1.585,0,0,0,1.47.992h0.33a0.573,0.573,0,0,1,.57.569v0.65a0.573,0.573,0,0,1-.57.569h-0.33a1.585,1.585,0,0,0-1.47.992l-0.01.01a0.739,0.739,0,0,0,.4.955,0.727,0.727,0,0,0,.56,0,0.7,0.7,0,0,0,.39-0.4l0.01-.011a0.133,0.133,0,0,1,.12-0.088h0.33a2.033,2.033,0,0,0,2.03-2.031V9.559A2.033,2.033,0,0,0,1521.64,7.528Z" transform="translate(0 -0.281)"/>
    <path class="cls-2" d="M1418.97,49.1l2.17,2.175v1.858l-3.1-3.1a1.964,1.964,0,0,1,0-2.782l8.17-8.2h8.04v7.382a3.976,3.976,0,0,0-.55-0.325,4.475,4.475,0,0,0-.77-0.305V40.354h-6.18l-7.78,7.815a0.655,0.655,0,0,0-.01.925S1418.96,49.1,1418.97,49.1Zm10.56-5.986a0.655,0.655,0,1,0,.66-0.656h-0.01A0.655,0.655,0,0,0,1429.53,43.111Zm4.72,5.776h0v4.988a1.762,1.762,0,0,1-1.14,1.515,4.859,4.859,0,0,1-2.14.454,4.933,4.933,0,0,1-2.15-.454,0.524,0.524,0,0,0-.7-0.245,0.517,0.517,0,0,0-.25.245,5.3,5.3,0,0,1-4.29,0,1.754,1.754,0,0,1-1.13-1.515v-2.56h0V51.283a1.754,1.754,0,0,1,1.13-1.515,5.257,5.257,0,0,1,4.11-.069V48.888h0v-0.1a1.76,1.76,0,0,1,1.13-1.515,4.935,4.935,0,0,1,2.15-.454,4.86,4.86,0,0,1,2.14.454,1.762,1.762,0,0,1,1.14,1.515v0.1h0Zm-5.24-.1a0.688,0.688,0,0,0,.4.341,4.018,4.018,0,0,0,3.12,0,0.688,0.688,0,0,0,.4-0.341,0.688,0.688,0,0,0-.4-0.341,4.019,4.019,0,0,0-3.12,0A0.688,0.688,0,0,0,1429.01,48.788Zm-5.26,2.494a0.742,0.742,0,0,0,.42.341,3.6,3.6,0,0,0,1.56.315,3.828,3.828,0,0,0,1.57-.3,0.652,0.652,0,0,0,.39-0.321,0.713,0.713,0,0,0-.41-0.362,3.541,3.541,0,0,0-1.55-.327,3.6,3.6,0,0,0-1.56.315,0.743,0.743,0,0,0-.42.342h0Zm3.94,2.593V52.9a5.525,5.525,0,0,1-3.94-.015v0.994a0.742,0.742,0,0,0,.42.341,4.016,4.016,0,0,0,3.12,0,0.688,0.688,0,0,0,.4-0.341h0Zm5.24,0v-1a5.369,5.369,0,0,1-3.92,0v0.994a0.687,0.687,0,0,0,.4.341,4.016,4.016,0,0,0,3.12,0,0.685,0.685,0,0,0,.4-0.339h0Zm0-2.593V50.388a5.371,5.371,0,0,1-3.92,0v0.9a0.688,0.688,0,0,0,.4.341,4.019,4.019,0,0,0,3.12,0,0.689,0.689,0,0,0,.4-0.341h0Z" transform="translate(0 -0.281)"/>
    <path class="cls-2" d="M1464.26,45.027h-15.08v1.815h15.08V45.027Zm0-4.1h-15.08v1.815h15.08V40.926Zm-15.08,10.013h7.93V49.125h-7.93v1.815Zm0,4.1h7.93V53.226h-7.93V55.04Zm10.21-5.82v5.727l4.76-2.864Z" transform="translate(0 -0.281)"/>
    <path class="cls-1" d="M1464.26,6.976h-15.08V8.791h15.08V6.976Zm0-4.1h-15.08V4.69h15.08V2.875Zm-15.08,10.013h7.93V11.073h-7.93v1.815Zm0,4.1h7.93V15.174h-7.93v1.815Zm10.21-5.82V16.9l4.76-2.864Z" transform="translate(0 -0.281)"/>
    <path class="cls-1" d="M1418.97,12.016l2.17,2.175v1.858l-3.1-3.1a1.964,1.964,0,0,1,0-2.782l8.17-8.2h8.04V9.344a3.969,3.969,0,0,0-.55-0.325,4.468,4.468,0,0,0-.77-0.305V3.277h-6.18l-7.78,7.815A0.645,0.645,0,0,0,1418.97,12.016Zm10.56-5.986a0.655,0.655,0,1,0,.66-0.656h-0.01A0.655,0.655,0,0,0,1429.53,6.03Zm4.72,5.776h0V16.8a1.762,1.762,0,0,1-1.14,1.515,4.862,4.862,0,0,1-2.14.454,4.933,4.933,0,0,1-2.15-.454,0.524,0.524,0,0,0-.7-0.245,0.517,0.517,0,0,0-.25.245,5.3,5.3,0,0,1-4.29,0,1.754,1.754,0,0,1-1.13-1.515v-2.56h0V14.2a1.754,1.754,0,0,1,1.13-1.515,5.257,5.257,0,0,1,4.11-.069v-0.81h0v-0.1a1.76,1.76,0,0,1,1.13-1.515,4.934,4.934,0,0,1,2.15-.454,4.86,4.86,0,0,1,2.14.454,1.762,1.762,0,0,1,1.14,1.515v0.1h0Zm-5.24-.1a0.688,0.688,0,0,0,.4.341,4.018,4.018,0,0,0,3.12,0,0.688,0.688,0,0,0,.4-0.341,0.688,0.688,0,0,0-.4-0.341,4.018,4.018,0,0,0-3.12,0A0.688,0.688,0,0,0,1429.01,11.708Zm-5.26,2.495a0.742,0.742,0,0,0,.42.341,3.6,3.6,0,0,0,1.56.315,3.828,3.828,0,0,0,1.57-.3,0.652,0.652,0,0,0,.39-0.321,0.713,0.713,0,0,0-.41-0.362,3.541,3.541,0,0,0-1.55-.327,3.6,3.6,0,0,0-1.56.315A0.742,0.742,0,0,0,1423.75,14.2Zm3.94,2.593V15.817a5.525,5.525,0,0,1-3.94-.015V16.8a0.742,0.742,0,0,0,.42.341,4.017,4.017,0,0,0,3.12,0A0.689,0.689,0,0,0,1427.69,16.8Zm5.24,0v-1a5.369,5.369,0,0,1-3.92,0v0.994a0.687,0.687,0,0,0,.4.341,4.016,4.016,0,0,0,3.12,0A0.685,0.685,0,0,0,1432.93,16.8Zm0-2.593v-0.9a5.37,5.37,0,0,1-3.92,0v0.9a0.688,0.688,0,0,0,.4.341,4.018,4.018,0,0,0,3.12,0A0.688,0.688,0,0,0,1432.93,14.2Z" transform="translate(0 -0.281)"/>
    <path class="cls-1" d="M1398.86,13.184a0.931,0.931,0,0,0,0,1.2,0.774,0.774,0,0,0,1.09,0h0l2.37-2.592,0.1-.1h0v-0.1h0v-0.1h0v-0.1h0v-0.1h0V11.2h0V10.8h0V10.7h0V10.6h0V10.5h0V10.389h0v-0.1h0l-0.1-.1L1399.95,7.6a0.774,0.774,0,0,0-1.09,0h0a0.931,0.931,0,0,0,0,1.2l1.09,1.1h-7.7a0.813,0.813,0,0,0-.8.827c0,0.023.01,0.047,0.01,0.07a0.852,0.852,0,0,0,.79.8h7.7Zm-7.4-8.972a6.918,6.918,0,0,0-6.62,7.2v0.077a7.078,7.078,0,0,0,6.62,6.679,6.679,6.679,0,0,0,5.53-3.09,0.828,0.828,0,0,0-.16-1.167c-0.01-.01-0.03-0.02-0.04-0.029a0.707,0.707,0,0,0-1,.075c-0.03.038-.06,0.079-0.09,0.123h0a4.949,4.949,0,0,1-4.14,2.293,5.16,5.16,0,0,1-4.95-5.36,0.5,0.5,0,0,0,.01-0.122,5.184,5.184,0,0,1,4.94-4.985A4.95,4.95,0,0,1,1395.7,8.2a0.8,0.8,0,0,0,1.08.3s0.01,0,.01-0.006h0a0.84,0.84,0,0,0,.23-1.155l-0.03-.041a6.679,6.679,0,0,0-5.53-3.09h0v0Z" transform="translate(0 -0.281)"/>
    <path class="cls-1" d="M1366.82,15.11a3.548,3.548,0,0,0-2.96-3.689,9.436,9.436,0,0,0-2.37,0h-0.79l-1.08-.1h-1.98a3.407,3.407,0,0,0-3.35,2.891,14.615,14.615,0,0,0-.1,2.193v0.9a1.093,1.093,0,0,0,.19.494,0.838,0.838,0,0,0,.7.4h0.29a0.821,0.821,0,0,0,.59-1V15.508a1.793,1.793,0,0,1,1.88-2.094h5.63c1.18,0,1.87.8,1.87,2.193v1.6a0.983,0.983,0,0,0,.89,1h0a0.983,0.983,0,0,0,.89-1h0v-0.2A4.382,4.382,0,0,1,1366.82,15.11Zm-6.41-4.087h0.19c0.2,0,.4-0.1.6-0.1a4.76,4.76,0,0,0,2.76-4.885,4.008,4.008,0,0,0-3.16-3.689,3.734,3.734,0,0,0-3.75,2.393,4.817,4.817,0,0,0,.79,4.984,3.406,3.406,0,0,0,2.57,1.3h0Zm-1.19-6.38a1.5,1.5,0,0,1,1.09-.4h0a1.63,1.63,0,0,1,1.48.9,2.68,2.68,0,0,1,.2,2.293,2.614,2.614,0,0,1-.79,1.2,1.317,1.317,0,0,1-1.68.1,3.071,3.071,0,0,1-1.19-2.193,2.473,2.473,0,0,1,.89-1.894h0v0Z" transform="translate(0 -0.281)"/>
    <path class="cls-3" d="M1319.65,13.623a2.675,2.675,0,0,1-3.78-.114c-0.02-.027-0.05-0.055-0.07-0.084a0.1,0.1,0,0,0-.1-0.1,3.02,3.02,0,0,1,0-3.788,2.769,2.769,0,0,1,3.85-.4l0.1,0.1,2.96-2.093a0.1,0.1,0,0,0,.1-0.1,1,1,0,0,0,.59-1.1,2.78,2.78,0,0,1,2.57-2.592,2.691,2.691,0,0,1,2.76,2.193,2.842,2.842,0,0,1-1.28,3.19,2.666,2.666,0,0,1-3.26-.494l-0.29-.3c-1.09.8-2.18,1.5-3.26,2.293a0.363,0.363,0,0,0-.1.3v1.5a0.363,0.363,0,0,0,.1.3c1.08,0.8,2.17,1.5,3.26,2.293a2.588,2.588,0,0,1,1.77-1.1,2.719,2.719,0,0,1,3.15,2.207c0,0.029.01,0.057,0.01,0.086h0a2.974,2.974,0,0,1-2.17,3.389,2.793,2.793,0,0,1-3.25-2.239c0-.018-0.01-0.036-0.01-0.054a1.211,1.211,0,0,1,0-.6,0.686,0.686,0,0,0-.2-0.4C1322.02,15.218,1320.83,14.42,1319.65,13.623Zm-1.88-3.589a1.443,1.443,0,0,0-1.38,1.5,1.359,1.359,0,0,0,1.32,1.4h0.06a1.444,1.444,0,0,0,1.39-1.5,1.359,1.359,0,0,0-1.32-1.4h-0.07Zm8.3-2.193a1.446,1.446,0,1,0-1.39-1.506V6.345h0a1.519,1.519,0,0,0,1.39,1.5h0Zm0,7.178a1.446,1.446,0,1,0,1.38,1.506V16.514h0a1.518,1.518,0,0,0-1.38-1.5h0Z" transform="translate(0 -0.281)"/>
    <path class="cls-3" d="M1287.71,8.6h-9.48V10.29h9.48V8.6Zm0-4.387h-9.48v1.7h9.48v-1.7Zm3.17,8.872V9.6h-1.59v3.389h-3.16v1.694h3.16V18.17h1.59V14.779h3.16v-1.7h-3.16Zm-12.65,1.7h6.32v-1.7h-6.32v1.7Z" transform="translate(0 -0.281)"/>
    <path class="cls-3" d="M1253.52,4.451a4.46,4.46,0,0,0-1.97.494,1.768,1.768,0,0,0-.69.494c-0.2-.2-0.49-0.3-0.69-0.494a4.468,4.468,0,0,0-1.98-.494,4.3,4.3,0,0,0-4.24,4.287,7.867,7.867,0,0,0,2.37,5.084,30.763,30.763,0,0,0,3.95,3.289l0.49,0.3,0.49-.3a17.787,17.787,0,0,0,3.95-3.289,7.471,7.471,0,0,0,2.37-5.084,4.014,4.014,0,0,0-3.73-4.278C1253.74,4.453,1253.63,4.45,1253.52,4.451Zm-5.33,1.894a2.241,2.241,0,0,1,1.88,1l0.79,1,0.79-1a2.527,2.527,0,0,1,1.87-1,2.375,2.375,0,0,1,2.38,2.369,0.508,0.508,0,0,1-.01.123,6.591,6.591,0,0,1-1.87,3.789,20.63,20.63,0,0,1-3.16,2.691,26.628,26.628,0,0,1-3.16-2.691,5.6,5.6,0,0,1-1.88-3.789,2.438,2.438,0,0,1,2.37-2.492h0Z" transform="translate(0 -0.281)"/>
    <path class="cls-3" d="M1225.18,14.3h0a0.2,0.2,0,0,0,.2.1h0.1a0.431,0.431,0,0,0,.49,0h0.1a0.1,0.1,0,0,0,.1-0.1h0l1.87-2.492a0.643,0.643,0,0,0,.1-0.6,0.589,0.589,0,0,0-.59-0.3h-1.28V5.529a0.646,0.646,0,0,0-.6-0.6h0a0.645,0.645,0,0,0-.59.6h0v5.38h-1.28a0.845,0.845,0,0,0-.59.3,0.447,0.447,0,0,0,.09.6Zm7.32-1a0.646,0.646,0,0,0-.6.6V15.8a1.876,1.876,0,0,1-1.87,1.894h-8.7a1.89,1.89,0,0,1-1.88-1.892V13.9a0.581,0.581,0,0,0-.58-0.6,0.591,0.591,0,0,0-.6.588v1.9a3.093,3.093,0,0,0,3.06,3.091h8.69a3.089,3.089,0,0,0,3.07-3.09V13.9a0.637,0.637,0,0,0-.59-0.6h0Z" transform="translate(0 -0.281)"/>
    <path class="cls-1" d="M1183.44,16.667a0.567,0.567,0,0,1-.12-0.786,0.622,0.622,0,0,1,.12-0.111l4.34-4.485L1183.44,6.8a0.567,0.567,0,0,1-.12-0.786,0.62,0.62,0,0,1,.12-0.111l0.39-.4a0.551,0.551,0,0,1,.77-0.119,0.423,0.423,0,0,1,.12.119h0l5.23,5.283a0.814,0.814,0,0,1,.2.494h0a1,1,0,0,1-.2.494l-5.23,5.283a0.759,0.759,0,0,1-.49.2,1.078,1.078,0,0,1-.5-0.2Z" transform="translate(0 -0.281)"/>
    <path class="cls-3" d="M1151.36,16.906a0.567,0.567,0,0,1-.12-0.786,0.616,0.616,0,0,1,.12-0.111l4.34-4.485-4.34-4.485a0.567,0.567,0,0,1-.12-0.786,0.619,0.619,0,0,1,.12-0.111l0.39-.4a0.55,0.55,0,0,1,.77-0.119,0.423,0.423,0,0,1,.12.119h0l5.23,5.283a0.814,0.814,0,0,1,.2.494h0a1,1,0,0,1-.2.494l-5.23,5.283a0.758,0.758,0,0,1-.49.2,1.078,1.078,0,0,1-.5-0.2Z" transform="translate(0 -0.281)"/>
    <path class="cls-3" d="M1126.04,16.812a0.746,0.746,0,0,0,0-.9l-4.34-4.485,4.34-4.485a0.556,0.556,0,0,0,.11-0.786,0.567,0.567,0,0,0-.11-0.111l-0.39-.4a0.551,0.551,0,0,0-.77-0.119,0.423,0.423,0,0,0-.12.119h0l-5.24,5.283a0.749,0.749,0,0,0-.19.494h0a1.093,1.093,0,0,0,.19.494l5.24,5.283a0.738,0.738,0,0,0,.49.2,1,1,0,0,0,.49-0.2Zm-6.61-5.383h0Z" transform="translate(0 -0.281)"/>
    <path class="cls-1" d="M1094.21,17.052a0.746,0.746,0,0,0,0-.9l-4.34-4.485,4.34-4.485a0.556,0.556,0,0,0,.11-0.786,0.567,0.567,0,0,0-.11-0.111l-0.4-.4a0.55,0.55,0,0,0-.77-0.119,0.565,0.565,0,0,0-.11.119h0l-5.25,5.283a0.749,0.749,0,0,0-.19.494h0a1.093,1.093,0,0,0,.19.494l5.25,5.283a0.738,0.738,0,0,0,.49.2,1,1,0,0,0,.49-0.2Zm-6.63-5.383h0Z" transform="translate(0 -0.281)"/>
    <path class="cls-3" d="M1047.91,14.162h0l0.2,0.2a0.1,0.1,0,0,1,.1.1,0.618,0.618,0,0,0,.59,0,0.1,0.1,0,0,0,.1-0.1c0.1,0,.1-0.1.2-0.1h0l2.27-2.991a0.769,0.769,0,0,0,.1-0.8,0.664,0.664,0,0,0-.69-0.4h-1.48V3.495a0.792,0.792,0,0,0-.77-0.8h-0.02a0.737,0.737,0,0,0-.8.664,0.6,0.6,0,0,0,.01.134V9.978h-1.49a1.015,1.015,0,0,0-.69.4,0.769,0.769,0,0,0,.1.8Zm8.79-1.2a0.847,0.847,0,0,0-.79.7h0v2.293a2.37,2.37,0,0,1-2.27,2.293h-10.37a2.37,2.37,0,0,1-2.27-2.293V13.664a0.777,0.777,0,0,0-.76-0.8h-0.03a0.733,0.733,0,0,0-.79.664v2.427a3.84,3.84,0,0,0,3.75,3.788h10.37a3.825,3.825,0,0,0,3.75-3.788V13.664a0.558,0.558,0,0,0-.4-0.683,0.542,0.542,0,0,0-.19-0.016h0Z" transform="translate(0 -0.281)"/>
    <path class="cls-3" d="M1015.54,0.934a0.521,0.521,0,0,0-.4-0.2,0.731,0.731,0,0,0-.39.2,0.605,0.605,0,0,0,0,.8,13.225,13.225,0,0,1,0,18.043,0.605,0.605,0,0,0,0,.8,0.5,0.5,0,0,0,.39.2,0.761,0.761,0,0,0,.4-0.2A14.433,14.433,0,0,0,1015.54.934Zm-2.27,2.293a0.521,0.521,0,0,0-.4-0.2,0.7,0.7,0,0,0-.39.2,0.605,0.605,0,0,0,0,.8,9.709,9.709,0,0,1,0,13.358,0.605,0.605,0,0,0,0,.8,0.5,0.5,0,0,0,.39.2,0.76,0.76,0,0,0,.4-0.2,10.935,10.935,0,0,0,0-14.952h0Zm-2.37,2.492a0.521,0.521,0,0,0-.4-0.2,0.731,0.731,0,0,0-.39.2,0.605,0.605,0,0,0,0,.8,6.2,6.2,0,0,1,0,8.374,0.605,0.605,0,0,0,0,.8,0.5,0.5,0,0,0,.39.2,0.759,0.759,0,0,0,.4-0.2,7.429,7.429,0,0,0,0-9.968h0Zm-3.26-2.791a0.456,0.456,0,0,0-.59.1l-3.85,3.289h-3.06a0.557,0.557,0,0,0-.5.6h0V14.59a0.557,0.557,0,0,0,.5.6h3.06l3.85,3.289a0.337,0.337,0,0,0,.29.1c0.1,0,.2,0,0.2-0.1a0.565,0.565,0,0,0,.3-0.494V3.426c0.19-.2,0-0.4-0.2-0.494h0v0Zm-0.69,1.7V16.78l-3.16-2.691a0.369,0.369,0,0,0-.3-0.1h-2.66V7.413h2.66a0.368,0.368,0,0,0,.3-0.1Z" transform="translate(0 -0.281)"/>
    <path class="cls-3" d="M978.233,10.963a5.955,5.955,0,0,0-.987.7l-4.541,2.891c-0.988.6-1.876,1.2-2.864,1.794a0.615,0.615,0,0,1-.789-0.2,0.365,0.365,0,0,1-.1-0.3V10.863a0.377,0.377,0,0,1-.2.2l-0.988.7-4.541,2.891-2.863,1.794a0.531,0.531,0,0,1-.742-0.118,0.6,0.6,0,0,1-.048-0.08,0.368,0.368,0,0,1-.1-0.3V5.082a0.368,0.368,0,0,1,.1-0.3h0a0.612,0.612,0,0,1,.4-0.3h0.1a0.361,0.361,0,0,1,.3.1h0l0.987,0.7c1.481,1,2.962,1.894,4.541,2.891,0.988,0.6,1.876,1.2,2.864,1.794a0.377,0.377,0,0,1,.2.2V5.18a0.365,0.365,0,0,1,.1-0.3h0a0.611,0.611,0,0,1,.395-0.3h0.1a0.358,0.358,0,0,1,.3.1h0l0.988,0.7,4.541,2.891c0.987,0.6,1.876,1.2,2.863,1.794a0.652,0.652,0,0,1,.2.9,0.136,0.136,0,0,0-.192-0.009Zm-10.761-.494a0.341,0.341,0,0,1-.2-0.1c-1.481-1-2.962-1.894-4.542-2.891l-1.974-1.3V14.85l0.2-.1L965.5,11.86Zm9.379,0a0.343,0.343,0,0,1-.2-0.1l-4.541-2.891-1.974-1.3V14.85a0.345,0.345,0,0,0,.2-0.1c1.481-1,3.06-1.894,4.541-2.891Z" transform="translate(0 -0.281)"/>
    <path class="cls-3" d="M938.8,14.491a0.889,0.889,0,0,0,.889-0.889V13.594h0V3.925A3.135,3.135,0,0,0,936.605.736h-1.364a3.2,3.2,0,0,0-3.159,3.19V17.482a3.135,3.135,0,0,0,3.079,3.189h1.364a3.2,3.2,0,0,0,3.159-3.19,0.889,0.889,0,1,0-1.777-.007v0.007a1.357,1.357,0,0,1-1.316,1.4h-1.35a1.356,1.356,0,0,1-1.382-1.329c0-.022,0-0.044,0-0.066V3.925a1.357,1.357,0,0,1,1.316-1.4h1.35a1.356,1.356,0,0,1,1.382,1.33c0,0.022,0,.044,0,0.066v9.67a0.889,0.889,0,0,0,.88.9H938.8ZM925.27,0.735h-1.283a3.2,3.2,0,0,0-3.159,3.19V17.482a3.134,3.134,0,0,0,3.078,3.189h1.364a3.2,3.2,0,0,0,3.159-3.19V3.925a3.134,3.134,0,0,0-3.077-3.19H925.27Zm-2.665,3.19a1.355,1.355,0,0,1,1.316-1.4h1.349a1.356,1.356,0,0,1,1.383,1.329c0,0.022,0,.044,0,0.066V17.482a1.356,1.356,0,0,1-1.316,1.4h-1.349a1.356,1.356,0,0,1-1.383-1.329c0-.022,0-0.044,0-0.066V3.925h0Z" transform="translate(0 -0.281)"/>
    <path class="cls-3" d="M898.426,8.809l-13.92-7.676c-1.579-.9-3.554-0.3-3.554,1.894V18.38A2.125,2.125,0,0,0,882.9,20.67l0.032,0h0.1a2.254,2.254,0,0,0,1.383-.4l13.92-7.676a2.068,2.068,0,0,0,1.193-2.669l-0.009-.022A1.705,1.705,0,0,0,898.426,8.809Zm-15.1,9.47V3.128L897.143,10.7Z" transform="translate(0 -0.281)"/>
    <path class="cls-3" d="M842.161,10.723l0.987,0.7,4.541,2.891,2.863,1.794a0.616,0.616,0,0,0,.79-0.2,0.372,0.372,0,0,0,.1-0.3V10.623a0.374,0.374,0,0,0,.2.2l0.988,0.7,4.541,2.891L860.03,16.2a0.531,0.531,0,0,0,.742-0.118,0.6,0.6,0,0,0,.048-0.08,0.368,0.368,0,0,0,.1-0.3V4.842a0.368,0.368,0,0,0-.1-0.3h0a0.615,0.615,0,0,0-.4-0.3h-0.1a0.358,0.358,0,0,0-.3.1h0l-0.988.7L854.5,7.937l-2.863,1.794a0.373,0.373,0,0,0-.2.2V4.941a0.372,0.372,0,0,0-.1-0.3h0a0.614,0.614,0,0,0-.395-0.3h-0.1a0.361,0.361,0,0,0-.3.1h0l-0.987.7-4.541,2.891L842.161,9.83a0.653,0.653,0,0,0-.2.9,0.137,0.137,0,0,1,.193-0.009Zm10.761-.494,0.2-.1,4.541-2.891,1.975-1.3v8.667l-0.2-.1L854.9,11.621Zm-9.379,0,0.2-.1,4.542-2.891,1.974-1.3v8.667l-0.2-.1-4.542-2.891Z" transform="translate(0 -0.281)"/>
    <path class="cls-1" d="M819.007,0.48A2.013,2.013,0,0,1,821.06,2.45a2.037,2.037,0,0,1-4.072.033V2.467A2.008,2.008,0,0,1,819.007.48Zm0,7.944a1.987,1.987,0,1,1-2.019,2V10.411a2.009,2.009,0,0,1,2.019-1.985h0Zm0,7.944a1.987,1.987,0,1,1-2.019,2V18.356a2.009,2.009,0,0,1,2.019-1.985h0Z" transform="translate(0 -0.281)"/>
    <path class="cls-1" d="M788.914,20.672a2.891,2.891,0,0,0,2.863-2.492h-5.825A3.071,3.071,0,0,0,788.914,20.672Zm7.4-5.881a5.754,5.754,0,0,1-1.876-4.287V8.211A5.86,5.86,0,0,0,789.7,2.429v-0.9a0.79,0.79,0,1,0-1.58-.009V1.532h0v0.9a5.784,5.784,0,0,0-4.739,5.782V10.5a5.919,5.919,0,0,1-1.875,4.287,1.61,1.61,0,0,0-.494,1.1,1.509,1.509,0,0,0,1.382,1.5H795.43a1.443,1.443,0,0,0,1.382-1.5,1.613,1.613,0,0,0-.493-1.1h0Z" transform="translate(0 -0.281)"/>
    <path class="cls-1" d="M748.036,14.981h0l-0.1-.2h0l-0.1-.1-2.172-2.293a0.9,0.9,0,0,0-1.185,0,0.916,0.916,0,0,0,0,1.2l0.79,0.8h-3.751a4.257,4.257,0,0,1-4.247-4.268c0-.039,0-0.079,0-0.119a3.639,3.639,0,0,1,1.185-2.791,0.916,0.916,0,0,0,0-1.2,0.85,0.85,0,0,0-.592-0.3h0a0.7,0.7,0,0,0-.592.3A5.842,5.842,0,0,0,735.6,10.1a6.081,6.081,0,0,0,5.924,6.181h3.751l-0.79.8a0.916,0.916,0,0,0,0,1.2,0.9,0.9,0,0,0,1.185,0h0l2.172-2.293,0.1-.1h0l0.1-.1h0v-0.1h0v-0.7h0Zm-0.1,0h0Zm0.1,0.4h0ZM747.345,3.812H743.5l0.79-.8a0.916,0.916,0,0,0,0-1.2,0.9,0.9,0,0,0-1.185,0l-2.172,2.293-0.1.1-0.1.1h0v0.1h0v0.2l0.1,0.2h0l0.1,0.1,0.1,0.1L743.2,7.294a0.894,0.894,0,0,0,1.184,0,0.916,0.916,0,0,0,0-1.2L743.5,5.6h3.751a4.32,4.32,0,0,1,4.245,4.387,3.634,3.634,0,0,1-1.184,2.791,0.916,0.916,0,0,0,0,1.2,0.849,0.849,0,0,0,.592.3h0a0.7,0.7,0,0,0,.592-0.3,5.846,5.846,0,0,0,1.679-4.087,5.973,5.973,0,0,0-5.825-6.081h0v0Zm-6.516.4h0Z" transform="translate(0 -0.281)"/>
    <path class="cls-1" d="M702.632,10.134l0.2,0.3,0.2-.3c1.086-1.6,2.073-2.592,3.752-2.592h0.1v3.19l4.147-4.087-4.147-4.187V5.648h-0.1a6.2,6.2,0,0,0-5.035,2.991l-0.1.1,0.1,0.1A10.133,10.133,0,0,1,702.632,10.134Zm4.245,4.187h0c-2.27,0-3.356-1.794-4.64-3.887-1.382-2.293-2.961-4.785-6.219-4.785h-2.666V7.542h2.666c2.172,0,3.258,1.794,4.541,3.887,1.382,2.293,2.962,4.785,6.22,4.785h0.1V19.4l4.147-4.087-4.147-4.087v3.091h0Zm-6.713-2.592-0.2-.3-0.2.3c-1.086,1.6-2.073,2.592-3.751,2.592h-2.666v1.994h2.666a6.2,6.2,0,0,0,5.035-2.991l0.1-.1-0.1-.1C700.757,12.627,700.46,12.127,700.164,11.729Z" transform="translate(0 -0.281)"/>
    <path class="cls-1" d="M663.011,12.9a2.668,2.668,0,0,1-3.775-.114c-0.025-.027-0.051-0.055-0.075-0.084a0.1,0.1,0,0,0-.1-0.1,3.025,3.025,0,0,1,0-3.787,2.77,2.77,0,0,1,3.85-.4l0.1,0.1,2.962-2.093a0.1,0.1,0,0,0,.1-0.1,1.008,1.008,0,0,0,.592-1.1,2.773,2.773,0,0,1,2.567-2.592A2.7,2.7,0,0,1,672,4.83a2.769,2.769,0,0,1-1.382,3.19,2.663,2.663,0,0,1-3.258-.494l-0.3-.3c-1.086.8-2.172,1.5-3.258,2.293a0.372,0.372,0,0,0-.1.3v1.5a0.372,0.372,0,0,0,.1.3c1.086,0.8,2.172,1.5,3.258,2.293a2.615,2.615,0,0,1,1.777-1.1,2.718,2.718,0,0,1,3.146,2.209c0,0.028.009,0.056,0.013,0.084h0a2.978,2.978,0,0,1-2.172,3.389,2.79,2.79,0,0,1-3.249-2.239l-0.009-.054a1.234,1.234,0,0,1,0-.6,0.761,0.761,0,0,0-.2-0.4C665.386,14.491,664.2,13.694,663.011,12.9Zm-1.876-3.589a1.443,1.443,0,0,0-1.382,1.5,1.357,1.357,0,0,0,1.316,1.4h0.066a1.443,1.443,0,0,0,1.383-1.5,1.357,1.357,0,0,0-1.317-1.4h-0.066Zm8.293-2.193a1.418,1.418,0,0,0,1.382-1.4h0a1.386,1.386,0,1,0-2.764.2,1.326,1.326,0,0,0,1.382,1.2h0v0Zm0,7.277a1.42,1.42,0,0,0-1.382,1.4h0a1.419,1.419,0,0,0,1.382,1.4,1.493,1.493,0,0,0,1.382-1.4,1.3,1.3,0,0,0-1.2-1.395,1.325,1.325,0,0,0-.176,0h-0.006Z" transform="translate(0 -0.281)"/>
    <path class="cls-1" d="M625.9,7.872h-9.477v1.7H625.9v-1.7Zm0-3.389h-9.477v1.7H625.9v-1.7Zm3.159,6.878V7.872h-1.579v3.39h-3.159v1.7h3.159v3.489h1.579v-3.39h3.159v-1.7H629.06Zm-12.636,1.694h6.318V11.361h-6.318v1.694Z" transform="translate(0 -0.281)"/>
    <path class="cls-1" d="M591.216,16.715l-3.37-3.6a6.646,6.646,0,0,0,1.288-4,6.245,6.245,0,1,0-6.244,6.508,6.634,6.634,0,0,0,3.37-1l3.37,3.7a1.076,1.076,0,0,0,1.487.1h0A1.255,1.255,0,0,0,591.216,16.715Zm-4.163-7.609A4.118,4.118,0,1,1,582.989,4.8a4.216,4.216,0,0,1,4.064,4.305h0Z" transform="translate(0 -0.281)"/>
    <path class="cls-1" d="M543.271,13.962a0.516,0.516,0,0,0,.4.2,0.76,0.76,0,0,0,.4-0.2l3.3-3.545a0.448,0.448,0,0,0,.1-0.5,0.418,0.418,0,0,0-.4-0.3h-1.9V4.947a0.458,0.458,0,0,0-.5-0.4h-1.9a0.54,0.54,0,0,0-.5.4V9.708h-1.9a0.42,0.42,0,0,0-.4.3,0.489,0.489,0,0,0,.1.5Zm5.5-.709v2.633h-10.29V13.253h-1.8V16.8a0.9,0.9,0,0,0,.891.912h12.1a0.9,0.9,0,0,0,.9-0.9V13.253h-1.8Z" transform="translate(0 -0.281)"/>
    <path class="cls-1" d="M507.305,4.451a4.457,4.457,0,0,0-1.974.494,1.774,1.774,0,0,0-.692.494c-0.2-.2-0.493-0.3-0.691-0.494a4.459,4.459,0,0,0-1.974-.494,4.3,4.3,0,0,0-4.245,4.287,7.555,7.555,0,0,0,2.468,5.084,31.534,31.534,0,0,0,3.949,3.289l0.493,0.3,0.494-.3a17.85,17.85,0,0,0,3.949-3.289,7.457,7.457,0,0,0,2.369-5.084,4.149,4.149,0,0,0-4.009-4.285Zm-5.331,1.894a2.242,2.242,0,0,1,1.876,1l0.789,1,0.79-1a2.537,2.537,0,0,1,1.876-1,2.37,2.37,0,0,1,2.372,2.369q0,0.061,0,.123a6.035,6.035,0,0,1-1.875,3.789,20.582,20.582,0,0,1-3.16,2.691,26.707,26.707,0,0,1-3.159-2.691,5.591,5.591,0,0,1-1.875-3.789,2.437,2.437,0,0,1,2.369-2.492h0Z" transform="translate(0 -0.281)"/>
    <path class="cls-1" d="M486.643,10.266h-4.211a0.216,0.216,0,0,1-.2-0.2V5.753a1.219,1.219,0,0,0-1.2-1.2,1.3,1.3,0,0,0-1.2,1.2V9.967a0.216,0.216,0,0,1-.2.2h-4.211a1.2,1.2,0,1,0,0,2.407h4.211a0.216,0.216,0,0,1,.2.2v4.212a1.219,1.219,0,0,0,1.2,1.2,1.3,1.3,0,0,0,1.2-1.2V12.773a0.216,0.216,0,0,1,.2-0.2h4.211a1.22,1.22,0,0,0,1.2-1.2A1.206,1.206,0,0,0,486.643,10.266Z" transform="translate(0 -0.281)"/>
    <path class="cls-1" d="M415.65,9.868a6.933,6.933,0,0,0-7.7-5.782,0.742,0.742,0,0,0-.4.1A7.361,7.361,0,0,0,404.2,5.979c-0.395-.4-0.79-0.9-1.185-1.3a1.053,1.053,0,0,0-.592-0.2,0.549,0.549,0,0,0-.3.494V8.57a0.557,0.557,0,0,0,.494.6h3.85a0.542,0.542,0,0,0,.494-0.3,0.475,0.475,0,0,0-.2-0.494,15.2,15.2,0,0,0-1.283-1.2,5.328,5.328,0,0,1,3.554-1.4,4.881,4.881,0,0,1,2.073,9.271,4.992,4.992,0,0,1-5.232-.494,0.807,0.807,0,0,0-1.141.047c-0.015.017-.03,0.034-0.044,0.052a0.2,0.2,0,0,0-.1.2c-0.3.4-.2,0.7,0.3,1a6.76,6.76,0,0,0,9.455-1.465l0.022-.03A6.877,6.877,0,0,0,415.65,9.868Zm-6.023,2.791c0.593,0.4.889,0.4,1.284-.1s0.3-.8-0.2-1.2a2.133,2.133,0,0,0-.493-0.3,0.807,0.807,0,0,1-.4-0.9v-2.1c0-.6-0.2-0.8-0.889-0.8s-0.888.2-.888,0.8v1.8c-0.494,1.3.395,2.093,1.579,2.791h0Z" transform="translate(0 -0.281)"/>
    <path class="cls-1" d="M367.594,7.075a0.852,0.852,0,0,0-.592-0.7,0.731,0.731,0,0,0-.889.7v0.3a19.123,19.123,0,0,1-.1,2.393,5.488,5.488,0,0,1-5.923,4.785,5.714,5.714,0,0,1-4.739-5.283V7.174a0.742,0.742,0,1,0-1.478-.143l0,0.044v0.1a22.88,22.88,0,0,0,.1,2.592,7.114,7.114,0,0,0,5.232,6.181c0.3,0.1.494,0.1,0.79,0.2v1.694H357.82a0.8,0.8,0,0,0,0,1.6h6.023a0.743,0.743,0,0,0,.691-0.494,0.7,0.7,0,0,0-.289-0.951,0.676,0.676,0,0,0-.106-0.046c-0.1,0-.2-0.1-0.3-0.1h-2.271v-1.6c0.1,0,.3-0.1.395-0.1a6.868,6.868,0,0,0,4.936-3.788A10.757,10.757,0,0,0,367.594,7.075Zm-6.812,5.782a3.8,3.8,0,0,0,3.752-3.589,14.925,14.925,0,0,0,0-2.093h0V5.082a3.867,3.867,0,0,0-3.752-3.589,3.794,3.794,0,0,0-3.751,3.589,30.973,30.973,0,0,0,0,4.287,3.708,3.708,0,0,0,3.751,3.489h0Zm-2.271-7.876a2.287,2.287,0,0,1,2.469-1.894,2.471,2.471,0,0,1,2.073,2.492v3.19a2.273,2.273,0,1,1-4.542.2V7.075h0a14.925,14.925,0,0,1,0-2.093h0Z" transform="translate(0 -0.281)"/>
    <path class="cls-1" d="M308.818,14.021a2.48,2.48,0,0,0-1.184-.2,2.661,2.661,0,0,0-2.676,2.645c0,0.082,0,.164.01,0.246a2.657,2.657,0,0,0,2.613,2.7c0.083,0,.167,0,0.25-0.008a2.755,2.755,0,0,0,2.666-2.791V10.43l6.318-1.794v3.091a2.486,2.486,0,0,0-1.185-.2,2.713,2.713,0,0,0-2.67,2.757c0,0.045,0,.089,0,0.134a2.709,2.709,0,0,0,2.723,2.7c0.047,0,.093,0,0.14,0a2.753,2.753,0,0,0,2.665-2.791V2.46L308.72,5.151v8.872h0.1v0Zm-1.184,3.689a1.148,1.148,0,0,1,.1-2.293,1.1,1.1,0,0,1,1.086,1.1,1.146,1.146,0,0,1-1.093,1.2c-0.031,0-.061,0-0.091,0h0Zm8.095-2.193a1.148,1.148,0,0,1,.1-2.293,1.1,1.1,0,0,1,1.086,1.1,1.276,1.276,0,0,1-1.185,1.2h0Zm1.185-10.865V6.844L310.6,8.638V6.445Z" transform="translate(0 -0.281)"/>
    <path class="cls-1" d="M264.133,13.723a0.511,0.511,0,0,0,.4.2,0.742,0.742,0,0,0,.394-0.2l3.258-3.489a0.441,0.441,0,0,0,.1-0.494,0.414,0.414,0,0,0-.395-0.3h-1.876V4.851a0.453,0.453,0,0,0-.493-0.4h-1.876a0.535,0.535,0,0,0-.494.4V9.536H261.27a0.414,0.414,0,0,0-.395.3,0.48,0.48,0,0,0,.1.494Zm5.429-.7v2.592H259.394V13.025h-1.777v3.489a0.889,0.889,0,0,0,.881.9h11.953a0.888,0.888,0,0,0,.888-0.89v-3.5h-1.777Z" transform="translate(0 -0.281)"/>
    <path class="cls-1" d="M218.093,4.451a4.457,4.457,0,0,0-1.974.494,1.771,1.771,0,0,0-.691.494c-0.2-.2-0.494-0.3-0.691-0.494a4.463,4.463,0,0,0-1.975-.494,4.3,4.3,0,0,0-4.245,4.287,7.564,7.564,0,0,0,2.468,5.084,31.563,31.563,0,0,0,3.949,3.289l0.494,0.3,0.494-.3a17.85,17.85,0,0,0,3.949-3.289,7.465,7.465,0,0,0,2.369-5.084,4.149,4.149,0,0,0-4.009-4.285Zm-5.331,1.894a2.242,2.242,0,0,1,1.876,1l0.79,1,0.79-1a2.535,2.535,0,0,1,1.875-1,2.371,2.371,0,0,1,2.373,2.369q0,0.061,0,.123a6.043,6.043,0,0,1-1.876,3.789,20.575,20.575,0,0,1-3.159,2.691,26.627,26.627,0,0,1-3.159-2.691,5.592,5.592,0,0,1-1.876-3.789,2.437,2.437,0,0,1,2.369-2.492h0Z" transform="translate(0 -0.281)"/>
    <path class="cls-1" d="M169.036,5.449h-9.379v1.6h9.379v-1.6h0Zm0,3.09h-9.379v1.6h9.379v-1.6h0Zm-9.379,4.785h6.22V11.729h-6.22v1.6h0Zm10.958-7.875v6.38a2.149,2.149,0,0,0-.789-0.1A2.272,2.272,0,0,0,167.552,14q0,0.061,0,.123a2.272,2.272,0,0,0,2.249,2.3q0.06,0,.12,0a2.331,2.331,0,0,0,2.271-2.39V7.044h2.369v-1.6h-3.949Z" transform="translate(0 -0.281)"/>
    <path class="cls-1" d="M123.59,8.769h-2.073a0.542,0.542,0,0,1-.494-0.3,32.029,32.029,0,0,0-1.579-3.19,0.776,0.776,0,0,0-.395-0.4,0.746,0.746,0,0,0-.889.1,0.623,0.623,0,0,0-.1.8c0.395,0.9.889,1.794,1.284,2.592,0,0.1.1,0.2,0.1,0.3h-6.22a0.372,0.372,0,0,0,.1-0.3c0.4-.9.888-1.794,1.283-2.592a0.606,0.606,0,0,0-.1-0.8,0.729,0.729,0,0,0-.888-0.1,1.5,1.5,0,0,0-.395.4c-0.494,1.1-1.086,2.093-1.58,3.19a0.541,0.541,0,0,1-.493.3h-2.073a0.765,0.765,0,0,0-.79.7h0v0.1a0.7,0.7,0,0,0,.7.7,0.718,0.718,0,0,0,.089-0.005h0.1a0.263,0.263,0,0,1,.3.224,0.291,0.291,0,0,1,0,.072c0.3,1.5.592,3.091,0.987,4.585,0,0.2.1,0.494,0.1,0.7a0.98,0.98,0,0,0,1.086.8h9.083a0.98,0.98,0,0,0,1.086-.8,1.5,1.5,0,0,0,.1-0.7c0.3-1.5.592-2.991,0.987-4.585a0.316,0.316,0,0,1,.3-0.3h0.1a0.766,0.766,0,0,0,.79-0.7h0v-0.1C124.38,9.069,123.985,8.769,123.59,8.769Zm-10.366,6.579a0.655,0.655,0,0,1-.691-0.6h0c-0.2-.9-0.3-1.794-0.494-2.691a1,1,0,0,1,.1-1,0.494,0.494,0,0,1,.494-0.1,0.659,0.659,0,0,1,.394.494c0.2,1,.4,2.093.593,3.091a0.529,0.529,0,0,1-.316.676,0.544,0.544,0,0,1-.079.022c0.1,0,.1.1,0,0.1h0v0Zm3.85-.6v0.2h0v0.1h0a0.561,0.561,0,0,1-.687.4h0a0.776,0.776,0,0,1-.395-0.4h0v-0.1h0V11.459a0.593,0.593,0,1,1,1.185,0v0h0v1.1a15.63,15.63,0,0,0-.1,2.2h0Zm3.85-2.691c-0.2.9-.3,1.794-0.493,2.691a0.664,0.664,0,0,1-.691.6h0a0.543,0.543,0,0,1-.516-0.568,0.524,0.524,0,0,1,.022-0.13v-0.1c0.2-1,.4-2.093.592-3.09a0.455,0.455,0,0,1,.4-0.494,0.735,0.735,0,0,1,.494.1c0.3,0.2.3,0.394,0.2,0.992h0Z" transform="translate(0 -0.281)"/>
    <path class="cls-1" d="M62.824,6.178a0.592,0.592,0,0,0-.79,0h0a4.8,4.8,0,0,0,0,6.48,0.592,0.592,0,0,0,.79,0h0a0.61,0.61,0,0,0,0-.8,3.453,3.453,0,0,1,0-4.785A0.749,0.749,0,0,0,62.824,6.178Zm-1.678-.9a0.61,0.61,0,0,0,0-.8,0.592,0.592,0,0,0-.79,0h0a7.212,7.212,0,0,0,0,9.969,0.592,0.592,0,0,0,.79,0h0a0.611,0.611,0,0,0,0-.8A6.194,6.194,0,0,1,61.146,5.28ZM59.468,3.486a0.611,0.611,0,0,0,0-.8,0.474,0.474,0,0,0-.671-0.02l-0.02.02h0a9.51,9.51,0,0,0,0,13.358h0a0.592,0.592,0,0,0,.79,0h0a0.612,0.612,0,0,0,0-.8A8.39,8.39,0,0,1,59.468,3.486Zm5.923,3.689a2.1,2.1,0,0,0-2.073,2.093A2.032,2.032,0,0,0,64.8,11.262v6.579a0.592,0.592,0,1,0,1.185,0V11.262a2.122,2.122,0,0,0,1.481-1.994,2.035,2.035,0,0,0-1.975-2.093h-0.1ZM72.1,2.69a0.592,0.592,0,0,0-.79,0h0a0.61,0.61,0,0,0,0,.8,8.3,8.3,0,0,1,.034,11.728l-0.034.034h0a0.61,0.61,0,0,0,0,.8,0.592,0.592,0,0,0,.79,0h0a9.389,9.389,0,0,0,.1-13.258ZM70.426,4.484a0.592,0.592,0,0,0-.79,0h0a0.61,0.61,0,0,0,0,.8,6.067,6.067,0,0,1,0,8.274,0.61,0.61,0,0,0,0,.8,0.592,0.592,0,0,0,.79,0h0a7.286,7.286,0,0,0,0-9.87h0Zm-1.678,1.7a0.592,0.592,0,0,0-.79,0h0a0.61,0.61,0,0,0,0,.8,3.454,3.454,0,0,1,0,4.785,0.61,0.61,0,0,0,0,.8,0.592,0.592,0,0,0,.79,0h0a4.67,4.67,0,0,0,0-6.38h0Z" transform="translate(0 -0.281)"/>
    <path class="cls-1" d="M0,0.286H0Zm0,0H0Zm0,0H0Zm0,13.67H1.283V7.575H0v6.38Zm2.271,1H3.554V6.579H2.271v8.374h0Zm2.172,1.794H16.289V4.784H4.443V16.747ZM6.318,6.679h8.1v8.174h-8.1V6.679Zm13.13,0.9v6.38h1.283V7.575H19.449Zm-2.271,7.376h1.283V6.579H17.178v8.374h0Z" transform="translate(0 -0.281)"/>
  </g>
  <g id="Down">
    <path class="cls-2" d="M1398.86,48.645a0.931,0.931,0,0,0,0,1.2,0.774,0.774,0,0,0,1.09,0h0l2.37-2.592,0.1-.1h0v-0.1h0v-0.1h0v-0.1h0v-0.1h0v-0.1h0v-0.4h0v-0.1h0v-0.1h0V45.95h0v-0.1h0v-0.1h0l-0.1-.1-2.37-2.592a0.775,0.775,0,0,0-1.09,0h0a0.931,0.931,0,0,0,0,1.2l1.09,1.1h-7.7a0.814,0.814,0,0,0-.8.828c0,0.023.01,0.047,0.01,0.07a0.852,0.852,0,0,0,.79.8h7.7Zm-7.4-8.972a6.918,6.918,0,0,0-6.62,7.2V46.95a7.078,7.078,0,0,0,6.62,6.679,6.678,6.678,0,0,0,5.53-3.09,0.828,0.828,0,0,0-.16-1.166c-0.01-.01-0.03-0.02-0.04-0.029a0.707,0.707,0,0,0-1,.075c-0.03.038-.06,0.079-0.09,0.123h0a4.95,4.95,0,0,1-4.14,2.293,5.239,5.239,0,0,1,0-10.467,4.95,4.95,0,0,1,4.14,2.293,0.8,0.8,0,0,0,1.08.3s0.01,0,.01-0.006h0a0.84,0.84,0,0,0,.23-1.155l-0.03-.041a6.679,6.679,0,0,0-5.53-3.09h0v0Z" transform="translate(0 -0.281)"/>
    <path class="cls-2" d="M1366.58,51.537a3.547,3.547,0,0,0-2.96-3.689,9.427,9.427,0,0,0-2.37,0h-0.79l-1.08-.1h-1.98a3.414,3.414,0,0,0-3.35,2.891,14.616,14.616,0,0,0-.1,2.193v0.9a1,1,0,0,0,.2.494,0.808,0.808,0,0,0,.69.4h0.29a0.836,0.836,0,0,0,.6-1V51.936c0-1.4.69-2.093,1.87-2.093h5.63c1.18,0,1.87.8,1.87,2.193V53.63a0.983,0.983,0,0,0,.89,1h0a0.983,0.983,0,0,0,.89-1h0v-0.2A4.382,4.382,0,0,1,1366.58,51.537Zm-6.41-4.087h0.2c0.19,0,.39-0.1.59-0.1a4.76,4.76,0,0,0,2.76-4.885,4.008,4.008,0,0,0-3.16-3.689,3.735,3.735,0,0,0-3.75,2.393,4.839,4.839,0,0,0,.79,4.985,3.407,3.407,0,0,0,2.57,1.3h0Zm-1.19-6.38a1.5,1.5,0,0,1,1.09-.4h0a1.63,1.63,0,0,1,1.48.9,2.68,2.68,0,0,1,.2,2.293,2.613,2.613,0,0,1-.79,1.2,1.317,1.317,0,0,1-1.68.1,3.071,3.071,0,0,1-1.19-2.193,2.506,2.506,0,0,1,.89-1.894h0v0Z" transform="translate(0 -0.281)"/>
    <path class="cls-2" d="M1225.18,49.315h0a0.2,0.2,0,0,0,.2.1h0.1a0.431,0.431,0,0,0,.49,0h0.1a0.1,0.1,0,0,0,.1-0.1h0l1.87-2.492a0.643,0.643,0,0,0,.1-0.6,0.589,0.589,0,0,0-.59-0.3h-1.28V40.543a0.646,0.646,0,0,0-.6-0.6h0a0.645,0.645,0,0,0-.59.6h0v5.381h-1.28a0.846,0.846,0,0,0-.59.3,0.447,0.447,0,0,0,.09.6Zm7.32-1a0.646,0.646,0,0,0-.6.6V50.81a1.876,1.876,0,0,1-1.87,1.894h-8.7a1.89,1.89,0,0,1-1.88-1.892v-1.9a0.581,0.581,0,0,0-.58-0.6,0.591,0.591,0,0,0-.6.588v1.9a3.093,3.093,0,0,0,3.06,3.091h8.69a3.089,3.089,0,0,0,3.07-3.09V48.916a0.637,0.637,0,0,0-.59-0.6h0Z" transform="translate(0 -0.281)"/>
    <path class="cls-2" d="M898.821,49.66a0.889,0.889,0,0,0,.889-0.889V48.763h0V39.093a3.135,3.135,0,0,0-3.079-3.189h-1.364a3.2,3.2,0,0,0-3.159,3.19V52.651a3.134,3.134,0,0,0,3.079,3.189h1.364a3.2,3.2,0,0,0,3.159-3.189,0.889,0.889,0,1,0-1.777-.007V52.75a1.357,1.357,0,0,1-1.316,1.4h-1.35a1.356,1.356,0,0,1-1.382-1.33c0-.022,0-0.044,0-0.066V39.093a1.357,1.357,0,0,1,1.316-1.4h1.35a1.356,1.356,0,0,1,1.382,1.33v9.736a0.889,0.889,0,0,0,.88.9h0.008ZM885.3,35.9h-1.283a3.2,3.2,0,0,0-3.16,3.19V52.651a3.135,3.135,0,0,0,3.079,3.189H885.3a3.2,3.2,0,0,0,3.159-3.189V39.093a3.134,3.134,0,0,0-3.078-3.189H885.3Zm-2.666,3.19a1.357,1.357,0,0,1,1.317-1.4H885.3a1.356,1.356,0,0,1,1.382,1.33c0,0.022,0,.044,0,0.066V52.651a1.356,1.356,0,0,1-1.316,1.4h-1.349a1.356,1.356,0,0,1-1.383-1.329V39.093Z" transform="translate(0 -0.281)"/>
    <path class="cls-2" d="M788.914,55.845a2.891,2.891,0,0,0,2.863-2.492h-5.825A3.071,3.071,0,0,0,788.914,55.845Zm7.4-5.881a5.754,5.754,0,0,1-1.876-4.287V43.384A5.86,5.86,0,0,0,789.7,37.6V36.7a0.79,0.79,0,1,0-1.58-.009V36.7h0v0.9a5.784,5.784,0,0,0-4.739,5.782v2.293a5.919,5.919,0,0,1-1.875,4.287,1.61,1.61,0,0,0-.494,1.1,1.509,1.509,0,0,0,1.382,1.5H795.43a1.443,1.443,0,0,0,1.382-1.5,1.614,1.614,0,0,0-.493-1.1v0Z" transform="translate(0 -0.281)"/>
    <path class="cls-2" d="M747.8,51.138h0l-0.1-.2h0l-0.1-.1-2.171-2.293a0.9,0.9,0,0,0-1.185,0,0.916,0.916,0,0,0,0,1.2l0.79,0.8h-3.752a4.258,4.258,0,0,1-4.247-4.268c0-.039,0-0.079,0-0.118a3.635,3.635,0,0,1,1.185-2.791,0.916,0.916,0,0,0,0-1.2,0.852,0.852,0,0,0-.592-0.3h0a0.7,0.7,0,0,0-.593.3,5.845,5.845,0,0,0-1.678,4.087,6.08,6.08,0,0,0,5.923,6.18h3.752l-0.79.8a0.916,0.916,0,0,0,0,1.2,0.9,0.9,0,0,0,1.185,0h0l2.172-2.293,0.1-.1h0l0.1-.1h0v-0.1h0v-0.7h0Zm0,0.2h0Zm-0.1-.2h0Zm-0.592-11.165h-3.85l0.789-.8a0.916,0.916,0,0,0,0-1.2,0.894,0.894,0,0,0-1.184,0l-2.172,2.293-0.1.1-0.1.1h0v0.1h0v0.2l0.1,0.2h0l0.1,0.1,0.1,0.1,2.172,2.293a0.9,0.9,0,0,0,1.185,0,0.916,0.916,0,0,0,0-1.2l-0.79-.8h3.752a4.321,4.321,0,0,1,4.245,4.386,3.639,3.639,0,0,1-1.185,2.791,0.916,0.916,0,0,0,0,1.2,0.852,0.852,0,0,0,.592.3h0a0.7,0.7,0,0,0,.593-0.3,5.845,5.845,0,0,0,1.678-4.087A6.069,6.069,0,0,0,747.106,39.973Zm-6.516.494h0Zm-0.1.2h0Zm0,0.3h0Z" transform="translate(0 -0.281)"/>
    <path class="cls-2" d="M702.632,46.562l0.2,0.3,0.2-.3c1.086-1.6,2.073-2.592,3.752-2.592h0.1v3.19l4.147-4.087-4.147-4.087v3.19h-0.1a6.2,6.2,0,0,0-5.035,2.991l-0.1.1,0.1,0.1A5.379,5.379,0,0,1,702.632,46.562Zm4.245,4.187h0c-2.27,0-3.356-1.794-4.64-3.887-1.382-2.293-2.961-4.785-6.219-4.785h-2.666V43.97h2.666c2.172,0,3.258,1.794,4.541,3.887,1.382,2.293,2.962,4.785,6.22,4.785h0.1v3.19l4.147-4.087-4.147-4.087v3.091h0Zm-6.713-2.592-0.2-.3-0.2.3c-1.086,1.6-2.073,2.592-3.751,2.592h-2.666v1.994h2.666a6.2,6.2,0,0,0,5.035-2.991l0.1-.1-0.1-.1c-0.3-.494-0.593-1-0.889-1.4h0Z" transform="translate(0 -0.281)"/>
    <path class="cls-2" d="M663.011,48.845a2.668,2.668,0,0,1-3.775-.114c-0.025-.027-0.051-0.055-0.075-0.084a0.1,0.1,0,0,0-.1-0.1,3.025,3.025,0,0,1,0-3.787,2.77,2.77,0,0,1,3.85-.4l0.1,0.1,2.962-2.093a0.1,0.1,0,0,0,.1-0.1,1.008,1.008,0,0,0,.592-1.1,2.773,2.773,0,0,1,2.567-2.592A2.7,2.7,0,0,1,672,40.778a2.769,2.769,0,0,1-1.382,3.19,2.663,2.663,0,0,1-3.258-.494l-0.3-.3c-1.086.8-2.172,1.5-3.258,2.293a0.372,0.372,0,0,0-.1.3v1.5a0.372,0.372,0,0,0,.1.3c1.086,0.8,2.172,1.5,3.258,2.293a2.615,2.615,0,0,1,1.777-1.1,2.718,2.718,0,0,1,3.146,2.209c0,0.028.009,0.056,0.013,0.084h0a2.978,2.978,0,0,1-2.172,3.389,2.79,2.79,0,0,1-3.249-2.239l-0.009-.054a1.234,1.234,0,0,1,0-.6,0.761,0.761,0,0,0-.2-0.4C665.386,50.44,664.2,49.643,663.011,48.845Zm-1.876-3.589a1.443,1.443,0,0,0-1.382,1.5,1.357,1.357,0,0,0,1.316,1.4h0.066a1.443,1.443,0,0,0,1.383-1.5,1.357,1.357,0,0,0-1.317-1.4h-0.066Zm8.293-2.193a1.419,1.419,0,0,0,1.382-1.4h0a1.3,1.3,0,0,0-1.3-1.308,1.285,1.285,0,0,0-.181.012,1.359,1.359,0,0,0-1.289,1.425c0,0.024,0,.047,0,0.071a1.326,1.326,0,0,0,1.382,1.2h0Zm0,7.277a1.419,1.419,0,0,0-1.382,1.4h0a1.382,1.382,0,1,0,2.764.008V51.735a1.3,1.3,0,0,0-1.376-1.395h-0.006Z" transform="translate(0 -0.281)"/>
    <path class="cls-2" d="M626.015,44.14h-9.621v1.727h9.621V44.14Zm0-3.459h-9.621v1.73h9.621v-1.73h0Zm3.207,7.02V44.242h-1.6V47.7h-3.207v1.73h3.207V52.89h1.6V49.431h3.207V47.7h-3.207Zm-12.828,1.73h6.414V47.7h-6.414v1.73Z" transform="translate(0 -0.281)"/>
    <path class="cls-2" d="M591.216,52.852l-3.37-3.6a6.645,6.645,0,0,0,1.288-4,6.245,6.245,0,1,0-6.244,6.508,6.632,6.632,0,0,0,3.37-1l3.37,3.7a1.076,1.076,0,0,0,1.487.1h0A1.254,1.254,0,0,0,591.216,52.852Zm-4.163-7.609a4.118,4.118,0,1,1-4.064-4.305,4.216,4.216,0,0,1,4.064,4.305h0Z" transform="translate(0 -0.281)"/>
    <path class="cls-2" d="M543.271,50.059a0.515,0.515,0,0,0,.4.2,0.757,0.757,0,0,0,.4-0.2l3.3-3.585a0.457,0.457,0,0,0,.1-0.508,0.419,0.419,0,0,0-.4-0.3h-1.9V40.847a0.46,0.46,0,0,0-.5-0.406h-1.9a0.542,0.542,0,0,0-.5.406v4.8h-1.9a0.42,0.42,0,0,0-.4.3,0.5,0.5,0,0,0,.1.508Zm5.5-.717V52h-10.29V49.342h-1.8v3.585a0.908,0.908,0,0,0,.891.922h12.1a0.907,0.907,0,0,0,.9-0.914V49.342h-1.8Z" transform="translate(0 -0.281)"/>
    <path class="cls-2" d="M507.353,40.687a4.5,4.5,0,0,0-2,.5,1.794,1.794,0,0,0-.7.5c-0.2-.2-0.5-0.3-0.7-0.5a4.5,4.5,0,0,0-2-.5,4.358,4.358,0,0,0-4.3,4.353,7.692,7.692,0,0,0,2.5,5.164,31.95,31.95,0,0,0,4,3.341l0.5,0.3,0.5-.3a18.093,18.093,0,0,0,4-3.341,7.589,7.589,0,0,0,2.4-5.164,4.208,4.208,0,0,0-4.057-4.351Zm-5.395,1.923a2.268,2.268,0,0,1,1.9,1.013l0.8,1.012,0.8-1.012a2.565,2.565,0,0,1,1.9-1.013,2.4,2.4,0,0,1,2.4,2.406c0,0.042,0,.083,0,0.125a6.136,6.136,0,0,1-1.9,3.847,20.809,20.809,0,0,1-3.2,2.733,26.953,26.953,0,0,1-3.2-2.733,5.684,5.684,0,0,1-1.9-3.847,2.47,2.47,0,0,1,2.4-2.531h0Z" transform="translate(0 -0.281)"/>
    <path class="cls-2" d="M486.642,45.86h-4.213a0.217,0.217,0,0,1-.2-0.2V41.415a1.225,1.225,0,0,0-1.2-1.213,1.305,1.305,0,0,0-1.2,1.213v4.144a0.216,0.216,0,0,1-.2.2h-4.214a1.225,1.225,0,0,0-1.2,1.213,1.3,1.3,0,0,0,1.2,1.213h4.214a0.216,0.216,0,0,1,.2.2v4.247a1.225,1.225,0,0,0,1.2,1.213,1.3,1.3,0,0,0,1.2-1.213v-4.04a0.217,0.217,0,0,1,.2-0.2h4.213a1.225,1.225,0,0,0,1.2-1.213A1.316,1.316,0,0,0,486.642,45.86Z" transform="translate(0 -0.281)"/>
    <path class="cls-2" d="M415.529,45.965a7.109,7.109,0,0,0-7.892-5.944,0.756,0.756,0,0,0-.4.1,7.856,7.856,0,0,0-3.44,1.743c-0.405-.406-0.81-0.923-1.214-1.332a1.079,1.079,0,0,0-.607-0.2,0.564,0.564,0,0,0-.3.508v3.69a0.571,0.571,0,0,0,.506.615h3.946a0.556,0.556,0,0,0,.506-0.3,0.489,0.489,0,0,0-.2-0.508,15.472,15.472,0,0,0-1.315-1.23,5.451,5.451,0,0,1,3.642-1.435,5.021,5.021,0,0,1,2.125,9.532,5.1,5.1,0,0,1-5.362-.508,0.826,0.826,0,0,0-1.17.048c-0.015.017-.03,0.035-0.044,0.053a0.2,0.2,0,0,0-.1.2c-0.3.407-.2,0.718,0.3,1.024a6.914,6.914,0,0,0,9.69-1.506l0.023-.031A6.63,6.63,0,0,0,415.529,45.965Zm-6.172,2.87c0.608,0.407.911,0.407,1.316-.1s0.3-.82-0.2-1.23a2.2,2.2,0,0,0-.505-0.3,0.831,0.831,0,0,1-.4-0.923V44.121c0-.615-0.2-0.82-0.911-0.82s-0.91.2-.91,0.82v1.844c-0.507,1.332.4,2.152,1.617,2.87h0Z" transform="translate(0 -0.281)"/>
    <path class="cls-2" d="M367.84,43.234a0.861,0.861,0,0,0-.6-0.707,0.732,0.732,0,0,0-.875.559,0.742,0.742,0,0,0-.018.148v0.3a19.831,19.831,0,0,1-.1,2.425,5.531,5.531,0,0,1-5.958,4.851,5.776,5.776,0,0,1-4.767-5.356V43.335a0.747,0.747,0,1,0-1.487-.145l0,0.045v0.1a23.511,23.511,0,0,0,.1,2.627,7.2,7.2,0,0,0,5.264,6.266c0.3,0.1.5,0.1,0.794,0.2v1.718h-2.185a0.809,0.809,0,0,0,0,1.617h6.059a0.748,0.748,0,0,0,.695-0.5,0.716,0.716,0,0,0-.291-0.964,0.687,0.687,0,0,0-.107-0.046c-0.1,0-.2-0.1-0.3-0.1h-2.285V52.531c0.1,0,.3-0.1.4-0.1a6.916,6.916,0,0,0,4.965-3.841A10.978,10.978,0,0,0,367.84,43.234ZM360.988,49.1a3.832,3.832,0,0,0,3.774-3.638,15.337,15.337,0,0,0,0-2.122h0V41.212a3.989,3.989,0,0,0-3.774-3.638,3.831,3.831,0,0,0-3.774,3.638,31.83,31.83,0,0,0,0,4.346,3.744,3.744,0,0,0,3.774,3.537h0ZM358.7,41.111a2.3,2.3,0,0,1,2.482-1.92,2.5,2.5,0,0,1,2.086,2.526v3.239a2.286,2.286,0,1,1-4.568.2h0V43.234h0a15.033,15.033,0,0,1,0-2.122h0Z" transform="translate(0 -0.281)"/>
    <path class="cls-2" d="M309.537,50.21a2.485,2.485,0,0,0-1.185-.2,2.793,2.793,0,0,0,.2,5.582,2.755,2.755,0,0,0,2.666-2.791V46.621l6.318-1.794v3.091a2.481,2.481,0,0,0-1.184-.2,2.793,2.793,0,0,0,.2,5.582,2.753,2.753,0,0,0,2.665-2.791V38.65l-9.773,2.691v8.872h0.1v0ZM308.352,53.9a1.128,1.128,0,0,1-1.088-1.166c0-.01,0-0.02,0-0.03a1.069,1.069,0,0,1,1.185-1.1,1.1,1.1,0,0,1,1.086,1.1,1.147,1.147,0,0,1-1.094,1.2c-0.031,0-.061,0-0.091,0h0Zm8.1-2.193a1.148,1.148,0,0,1,.1-2.293,1.1,1.1,0,0,1,1.086,1.1,1.276,1.276,0,0,1-1.185,1.2h0Zm1.185-10.865v2.193l-6.318,1.794V42.634Z" transform="translate(0 -0.281)"/>
    <path class="cls-2" d="M264.133,49.734a0.511,0.511,0,0,0,.4.2,0.742,0.742,0,0,0,.394-0.2l3.258-3.489a0.441,0.441,0,0,0,.1-0.494,0.413,0.413,0,0,0-.395-0.3h-1.876V40.769a0.453,0.453,0,0,0-.493-0.4h-1.876a0.535,0.535,0,0,0-.494.4v4.676H261.27a0.414,0.414,0,0,0-.395.3,0.478,0.478,0,0,0,.1.494Zm5.429-.7v2.592H259.394V49.036h-1.777v3.489a0.889,0.889,0,0,0,.881.9h11.953a0.888,0.888,0,0,0,.888-0.889v-3.5h-1.777Z" transform="translate(0 -0.281)"/>
    <path class="cls-2" d="M218.093,40.7a4.458,4.458,0,0,0-1.974.494,1.774,1.774,0,0,0-.691.494c-0.2-.2-0.494-0.3-0.691-0.494a4.462,4.462,0,0,0-1.975-.494,4.3,4.3,0,0,0-4.245,4.287,7.564,7.564,0,0,0,2.468,5.084,31.563,31.563,0,0,0,3.949,3.289l0.494,0.3,0.494-.3a17.85,17.85,0,0,0,3.949-3.289,7.465,7.465,0,0,0,2.369-5.084,4.149,4.149,0,0,0-4.009-4.284ZM212.762,42.6a2.242,2.242,0,0,1,1.876,1l0.79,1,0.79-1a2.535,2.535,0,0,1,1.875-1,2.371,2.371,0,0,1,2.373,2.369c0,0.041,0,.082,0,0.123a6.04,6.04,0,0,1-1.876,3.788,20.575,20.575,0,0,1-3.159,2.691,26.618,26.618,0,0,1-3.159-2.691,5.59,5.59,0,0,1-1.876-3.788,2.437,2.437,0,0,1,2.369-2.492h0Z" transform="translate(0 -0.281)"/>
    <path class="cls-2" d="M169.036,41.731h-9.379v1.6h9.379v-1.6h0Zm0,3.091h-9.379v1.6h9.379v-1.6h0Zm-9.379,4.785h6.22v-1.6h-6.22v1.6Zm10.958-7.875v6.38a2.151,2.151,0,0,0-.789-0.1,2.343,2.343,0,1,0,2.369,2.295V43.225h2.369V41.731h-3.949Z" transform="translate(0 -0.281)"/>
    <path class="cls-2" d="M123.59,45.024h-2.073a0.542,0.542,0,0,1-.494-0.3,32.017,32.017,0,0,0-1.579-3.19,0.775,0.775,0,0,0-.395-0.4,0.746,0.746,0,0,0-.889.1,0.623,0.623,0,0,0-.1.8c0.395,0.9.889,1.794,1.284,2.592,0,0.1.1,0.2,0.1,0.3h-6.22a0.372,0.372,0,0,0,.1-0.3c0.4-.9.888-1.794,1.283-2.592a0.607,0.607,0,0,0-.1-0.8,0.729,0.729,0,0,0-.888-0.1,1.5,1.5,0,0,0-.395.4c-0.494,1.1-1.086,2.093-1.58,3.19a0.541,0.541,0,0,1-.493.3h-2.073a0.765,0.765,0,0,0-.79.7h0v0.093a0.7,0.7,0,0,0,.7.7,0.718,0.718,0,0,0,.089-0.005h0.1a0.263,0.263,0,0,1,.3.224,0.291,0.291,0,0,1,0,.072c0.3,1.5.592,3.091,0.987,4.585,0,0.2.1,0.4,0.1,0.7a0.98,0.98,0,0,0,1.086.8h9.083a0.98,0.98,0,0,0,1.086-.8,1.5,1.5,0,0,0,.1-0.7c0.3-1.5.592-3.09,0.987-4.585a0.317,0.317,0,0,1,.3-0.3h0.1a0.765,0.765,0,0,0,.79-0.7h0v-0.1C124.38,45.321,123.985,45.024,123.59,45.024ZM113.224,51.6a0.655,0.655,0,0,1-.691-0.6h0c-0.2-.9-0.3-1.794-0.494-2.692a1,1,0,0,1,.1-1,0.494,0.494,0,0,1,.494-0.1,0.659,0.659,0,0,1,.394.494c0.2,1,.4,2.093.593,3.091a0.527,0.527,0,0,1-.395.7c0.1,0,.1.1,0,0.1h0v0Zm3.85-.6v0.2h0v0.1h0a0.56,0.56,0,0,1-.687.4h0a0.776,0.776,0,0,1-.395-0.4h0V51.2h0V47.713a0.593,0.593,0,1,1,1.185,0v0h0v1.1a15.575,15.575,0,0,0-.1,2.191v0Zm3.85-2.692c-0.2.9-.3,1.794-0.493,2.692a0.663,0.663,0,0,1-.691.6h0a0.543,0.543,0,0,1-.516-0.568,0.524,0.524,0,0,1,.022-0.13v-0.1c0.2-1,.4-2.093.592-3.09a0.455,0.455,0,0,1,.4-0.494,0.736,0.736,0,0,1,.494.1c0.3,0.191.3,0.39,0.2,0.988v0Z" transform="translate(0 -0.281)"/>
    <path class="cls-2" d="M62.824,42.366a0.592,0.592,0,0,0-.79,0h0a4.8,4.8,0,0,0,0,6.48,0.592,0.592,0,0,0,.79,0h0a0.61,0.61,0,0,0,0-.8,3.453,3.453,0,0,1,0-4.785A0.749,0.749,0,0,0,62.824,42.366Zm-1.678-.9a0.61,0.61,0,0,0,0-.8,0.592,0.592,0,0,0-.79,0h0a7.211,7.211,0,0,0,0,9.968,0.592,0.592,0,0,0,.79,0h0a0.61,0.61,0,0,0,0-.8A6.529,6.529,0,0,1,61.146,41.469Zm-1.678-1.794a0.611,0.611,0,0,0,0-.8,0.592,0.592,0,0,0-.79,0h0a9.51,9.51,0,0,0,0,13.357h0a0.592,0.592,0,0,0,.79,0h0a0.611,0.611,0,0,0,0-.8A8.483,8.483,0,0,1,59.468,39.675Zm5.923,3.689a2.1,2.1,0,0,0-2.073,2.093A2.032,2.032,0,0,0,64.8,47.45v6.579a0.592,0.592,0,1,0,1.185,0V47.449a2.122,2.122,0,0,0,1.481-1.994,2.035,2.035,0,0,0-1.975-2.093h-0.1ZM72.1,38.878a0.592,0.592,0,0,0-.79,0h0a0.61,0.61,0,0,0,0,.8A8.3,8.3,0,0,1,71.349,51.4l-0.034.034h0a0.61,0.61,0,0,0,0,.8,0.592,0.592,0,0,0,.79,0h0a9.509,9.509,0,0,0,0-13.357h0Zm-1.678,1.794a0.592,0.592,0,0,0-.79,0h0a0.61,0.61,0,0,0,0,.8,6.067,6.067,0,0,1,0,8.274,0.61,0.61,0,0,0,0,.8,0.592,0.592,0,0,0,.79,0h0a7.285,7.285,0,0,0,0-9.87h0Zm-1.678,1.7a0.592,0.592,0,0,0-.79,0h0a0.61,0.61,0,0,0,0,.8,3.454,3.454,0,0,1,0,4.785,0.61,0.61,0,0,0,0,.8,0.592,0.592,0,0,0,.79,0h0a4.67,4.67,0,0,0,0-6.38h0Z" transform="translate(0 -0.281)"/>
    <path class="cls-2" d="M0,50.144H1.283v-6.38H0v6.38Zm2.271,1H3.554V42.866H2.271V51.14h0Zm2.172,1.794H16.289V40.975H4.443v11.96ZM6.318,42.866h8.1v8.174h-8.1V42.866Zm13.13,0.9v6.38h1.283v-6.38H19.449ZM17.178,51.14h1.283V42.866H17.178V51.14h0Z" transform="translate(0 -0.281)"/>
    <path id="Play_list-2" data-name="Play list" class="cls-2" d="M1564.14,45.04h-14.81v1.775h14.81V45.04Zm0-4.021h-14.81v1.775h14.81V41.019Zm-14.81,9.817h7.79V49.061h-7.79v1.775Zm0,4.021h7.79V53.082h-7.79v1.775Zm10.03-5.706v5.615l4.67-2.808Z" transform="translate(0 -0.281)"/>
    <path id="Genre-2" data-name="Genre" class="cls-2" d="M1592.98,44.211a4.807,4.807,0,0,0-1.23-1.768,28.214,28.214,0,0,0-12.34,0,4.788,4.788,0,0,0-.34,6.5l0.32,0.349,4.13,4.1a0.758,0.758,0,0,0,.54.221,0.8,0.8,0,0,0,.54-0.209,0.727,0.727,0,0,0,.22-0.52,0.694,0.694,0,0,0-.21-0.524l-4.11-4.08-0.27-.3a3.338,3.338,0,0,1,.27-4.506,3.482,3.482,0,0,1,4.58-.252,0.8,0.8,0,0,0,.5.165,0.811,0.811,0,0,0,.5-0.165,3.481,3.481,0,0,1,4.58.252,3.387,3.387,0,0,1,.88,1.227,2.253,2.253,0,0,1,.06,1.327,0.741,0.741,0,0,0,.6.866,0.768,0.768,0,0,0,.57-0.112,0.744,0.744,0,0,0,.33-0.471A3.809,3.809,0,0,0,1592.98,44.211Zm-13.43,4.979h0Zm6.22,4.015a1.692,1.692,0,0,1,1.72-1.662,1.76,1.76,0,0,1,.57.095v-1.87a0.553,0.553,0,0,1,.4-0.529l4.57-1.364a0.589,0.589,0,0,1,.51.084,0.536,0.536,0,0,1,.23.446v4.063a1.716,1.716,0,1,1-1.71-1.662,1.76,1.76,0,0,1,.57.095V49.152l-3.43,1.023V53.2A1.716,1.716,0,0,1,1585.77,53.2Z" transform="translate(0 -0.281)"/>
    <path id="Admin-2" data-name="Admin" class="cls-2" d="M1520.05,53.233a0.727,0.727,0,0,0-.54.881,0.212,0.212,0,0,1-.05.185,0.2,0.2,0,0,1-.17.084h-7.97a0.221,0.221,0,0,1-.17-0.084,0.212,0.212,0,0,1-.04-0.185,4.319,4.319,0,0,1,7.12-2.167,0.74,0.74,0,0,0,1.04-.042,0.726,0.726,0,0,0,.19-0.526,0.714,0.714,0,0,0-.24-0.508,5.623,5.623,0,0,0-1.59-1.042,3.328,3.328,0,1,0-4.64,0,6.049,6.049,0,0,0-1.29.775,5.78,5.78,0,0,0-2.01,3.168,1.642,1.642,0,0,0,.32,1.43,1.663,1.663,0,0,0,1.31.64h7.97a1.687,1.687,0,0,0,1.64-2.07A0.736,0.736,0,0,0,1520.05,53.233Zm-4.74-7.658a1.869,1.869,0,1,1-1.87,1.869A1.864,1.864,0,0,1,1515.31,45.575Zm6.33-.488h-0.33a0.137,0.137,0,0,1-.12-0.08,0.167,0.167,0,0,1,.02-0.171l0.23-.231a2.044,2.044,0,0,0,0-2.873l-0.46-.46a2.028,2.028,0,0,0-2.87,0l-0.23.231a0.156,0.156,0,0,1-.16.02,0.129,0.129,0,0,1-.09-0.124V41.074a2.033,2.033,0,0,0-2.03-2.031h-0.65a2.033,2.033,0,0,0-2.03,2.031V41.4a0.129,0.129,0,0,1-.09.124,0.156,0.156,0,0,1-.16-0.02l-0.23-.231a2.028,2.028,0,0,0-2.87,0l-0.46.46a2.037,2.037,0,0,0,0,2.873l0.23,0.231a0.167,0.167,0,0,1,.02.171,0.126,0.126,0,0,1-.12.08h-0.33a2.033,2.033,0,0,0-2.03,2.031v0.65a2.033,2.033,0,0,0,2.03,2.031h0.33a0.133,0.133,0,0,1,.12.088l0.01,0.011a0.7,0.7,0,0,0,.39.4,0.746,0.746,0,0,0,.28.056,0.714,0.714,0,0,0,.28-0.056,0.752,0.752,0,0,0,.4-0.4,0.772,0.772,0,0,0,0-.56l-0.01-.01a1.585,1.585,0,0,0-1.47-.992h-0.33a0.573,0.573,0,0,1-.57-0.569v-0.65a0.573,0.573,0,0,1,.57-0.569h0.33a1.585,1.585,0,0,0,1.47-.992l0.01-.01a1.609,1.609,0,0,0-.34-1.746l-0.24-.231a0.573,0.573,0,0,1,0-.8l0.46-.46a0.557,0.557,0,0,1,.81,0l0.23,0.232a1.587,1.587,0,0,0,1.74.341l0.01,0a1.6,1.6,0,0,0,.99-1.475V41.074a0.573,0.573,0,0,1,.57-0.569h0.65a0.573,0.573,0,0,1,.57.569V41.4a1.6,1.6,0,0,0,.99,1.475l0.01,0a1.587,1.587,0,0,0,1.74-.341l0.23-.231a0.557,0.557,0,0,1,.81,0l0.46,0.46a0.586,0.586,0,0,1,0,.8l-0.24.231a1.609,1.609,0,0,0-.34,1.746l0.01,0.01a1.585,1.585,0,0,0,1.47.992h0.33a0.573,0.573,0,0,1,.57.569v0.65a0.573,0.573,0,0,1-.57.569h-0.33a1.585,1.585,0,0,0-1.47.992l-0.01.01a0.739,0.739,0,0,0,.4.955,0.727,0.727,0,0,0,.56,0,0.7,0.7,0,0,0,.39-0.4l0.01-.011a0.133,0.133,0,0,1,.12-0.088h0.33a2.033,2.033,0,0,0,2.03-2.031v-0.65A2.033,2.033,0,0,0,1521.64,45.088Z" transform="translate(0 -0.281)"/>
    <path id="Blog-2" data-name="Blog" class="cls-2" d="M1486.75,46.348a0.79,0.79,0,1,0,.79-0.79A0.788,0.788,0,0,0,1486.75,46.348Zm-1.16,6.268a0.8,0.8,0,0,0-.57-0.206,7.69,7.69,0,0,1-3.26-.556,0.781,0.781,0,0,0-.6,0l-2.61,1.1,0.85-2.015a0.774,0.774,0,0,0-.14-0.833,5.321,5.321,0,0,1-1.4-3.575c0-3.261,3.05-5.914,6.81-5.914s6.81,2.653,6.81,5.914a5.211,5.211,0,0,1-.56,2.3,0.792,0.792,0,0,0,1.42.7,6.754,6.754,0,0,0,.72-3c0-4.132-3.76-7.494-8.39-7.494s-8.39,3.362-8.39,7.494a6.838,6.838,0,0,0,1.48,4.236l-1.42,3.364a0.793,0.793,0,0,0,1.04,1.035l4.1-1.733a9.2,9.2,0,0,0,3.19.56q0.21,0,.42-0.009a0.787,0.787,0,0,0,.55-0.256,0.8,0.8,0,0,0,.21-0.568A0.777,0.777,0,0,0,1485.59,52.616Zm-1.74-6.268a0.79,0.79,0,1,0,.79-0.79A0.788,0.788,0,0,0,1483.85,46.348Zm5.07,2.42a0.742,0.742,0,0,0-.34-0.2l-2.6-.721a0.791,0.791,0,0,0-.97.991l0.77,2.539a0.844,0.844,0,0,0,.2.33l3.54,3.533a2.076,2.076,0,0,0,2.93-2.942Zm1.28,3.507-0.71.707-2.26-2.256-0.29-.974,1.02,0.282Zm1.28,1.492a0.489,0.489,0,0,1-.49.5h-0.01a0.5,0.5,0,0,1-.35-0.147l-0.02-.021,0.71-.707,0.02,0.022A0.509,0.509,0,0,1,1491.48,53.766Zm-10.53-7.418a0.79,0.79,0,1,0,.79-0.79A0.788,0.788,0,0,0,1480.95,46.348Z" transform="translate(0 -0.281)"/>
  </g>
</svg>
