<svg id="SVG" xmlns="http://www.w3.org/2000/svg" viewBox="0 0 116.61 54.37"><defs><style>.cls-1{fill:#72859b;}.cls-2{fill:#fb324f;}</style></defs><title>new-icon_02</title><path id="Play_list" data-name="Play list" class="cls-1" d="M89.86,6.21H75.05V8H89.86Zm0-4H75.05V4H89.86ZM75.05,12h7.79V10.23H75.05Zm0,4h7.79V14.25H75.05Zm10-5.71v5.62l4.67-2.81Z" transform="translate(-2 -1.2)"/><path id="Blog" class="cls-1" d="M12.47,8.51a.79.79,0,1,0,.79-.79.79.79,0,0,0-.79.79Zm-1.16,6.26a.78.78,0,0,0-.57-.2A7.74,7.74,0,0,1,7.48,14a.78.78,0,0,0-.6,0l-2.61,1.1.85-2A.79.79,0,0,0,5,12.26a5.35,5.35,0,0,1-1.4-3.57c0-3.26,3.05-5.91,6.81-5.91S17.2,5.43,17.2,8.69a5.24,5.24,0,0,1-.56,2.3.79.79,0,0,0,1.42.7,6.66,6.66,0,0,0,.72-3c0-4.13-3.76-7.49-8.39-7.49S2,4.56,2,8.69a6.87,6.87,0,0,0,1.48,4.24L2.06,16.29a.79.79,0,0,0,.43,1,.76.76,0,0,0,.61,0l4.1-1.73a8.9,8.9,0,0,0,3.19.56h.42a.79.79,0,0,0,.76-.82A.78.78,0,0,0,11.31,14.77ZM9.57,8.51a.79.79,0,1,0,.79-.79.79.79,0,0,0-.79.79Zm5.07,2.42a.66.66,0,0,0-.34-.2L11.7,10a.78.78,0,0,0-1,.54.86.86,0,0,0,0,.45l.77,2.54a.94.94,0,0,0,.2.33l3.54,3.53a2.08,2.08,0,1,0,2.93-2.94Zm1.28,3.5-.71.71L13,12.88l-.29-1,1,.28Zm1.28,1.5a.49.49,0,0,1-.48.5h0a.56.56,0,0,1-.35-.15l0,0,.71-.71,0,0a.52.52,0,0,1,.14.35ZM6.67,8.51a.79.79,0,1,0,.79-.79.79.79,0,0,0-.79.79Z" transform="translate(-2 -1.2)"/><path id="Admin" class="cls-1" d="M45.77,15.39a.73.73,0,0,0-.54.88h0a.23.23,0,0,1-.22.27H37a.21.21,0,0,1-.21-.27A4.32,4.32,0,0,1,44,14.11a.74.74,0,0,0,1,0,.72.72,0,0,0,.19-.52.71.71,0,0,0-.24-.51,5.4,5.4,0,0,0-1.59-1,3.33,3.33,0,1,0-4.71-.07.46.46,0,0,1,.07.07,6,6,0,0,0-1.29.77,5.84,5.84,0,0,0-2,3.17A1.69,1.69,0,0,0,37,18h8a1.68,1.68,0,0,0,1.68-1.69,1.64,1.64,0,0,0,0-.38A.74.74,0,0,0,45.77,15.39ZM41,7.73A1.87,1.87,0,1,1,39.16,9.6,1.87,1.87,0,0,1,41,7.73Zm6.33-.48H47a.17.17,0,0,1-.12-.08.19.19,0,0,1,0-.18l.23-.23a2,2,0,0,0,0-2.87l-.46-.46a2,2,0,0,0-2.87,0h0l-.23.23a.14.14,0,0,1-.16,0,.14.14,0,0,1-.09-.12V3.23a2,2,0,0,0-2-2h-.65a2,2,0,0,0-2,2v.33a.12.12,0,0,1-.09.12.14.14,0,0,1-.16,0l-.23-.23a2,2,0,0,0-2.87,0h0l-.46.46a2,2,0,0,0,0,2.88l.23.23a.15.15,0,0,1,0,.17.13.13,0,0,1-.12.08h-.33a2,2,0,0,0-2,2v.65a2,2,0,0,0,2,2H35a.13.13,0,0,1,.12.09h0a.7.7,0,0,0,.39.4.66.66,0,0,0,.28,0,.54.54,0,0,0,.28,0,.78.78,0,0,0,.4-.4.77.77,0,0,0,0-.56h0a1.58,1.58,0,0,0-1.47-1h-.33a.58.58,0,0,1-.57-.57V9.28a.57.57,0,0,1,.57-.57H35a1.58,1.58,0,0,0,1.47-1h0A1.62,1.62,0,0,0,36.1,6l-.24-.23a.57.57,0,0,1,0-.8l.46-.46a.56.56,0,0,1,.79,0l0,0,.23.23A1.57,1.57,0,0,0,39.1,5h0a1.58,1.58,0,0,0,1-1.47V3.23a.58.58,0,0,1,.57-.57h.65a.58.58,0,0,1,.57.57v.33a1.58,1.58,0,0,0,1,1.47h0a1.57,1.57,0,0,0,1.74-.34l.23-.23a.56.56,0,0,1,.79,0l0,0,.46.46a.59.59,0,0,1,0,.8L45.89,6a1.62,1.62,0,0,0-.34,1.75v0a1.58,1.58,0,0,0,1.47,1h.33a.58.58,0,0,1,.57.57v.65a.58.58,0,0,1-.57.57H47a1.58,1.58,0,0,0-1.47,1h0a.74.74,0,0,0,.4,1,.77.77,0,0,0,.56,0,.73.73,0,0,0,.39-.4v0A.13.13,0,0,1,47,12h.33a2,2,0,0,0,2-2V9.28a2,2,0,0,0-2-2Z" transform="translate(-2 -1.2)"/><path id="Play_list-2" data-name="Play list-2" class="cls-2" d="M89.86,44.76H75.05v1.77H89.86Zm0-4H75.05v1.77H89.86ZM75.05,50.55h7.79V48.78H75.05Zm0,4h7.79V52.8H75.05Zm10-5.71v5.61l4.67-2.8Z" transform="translate(-2 -1.2)"/><path id="Admin-2" class="cls-2" d="M45.77,53a.73.73,0,0,0-.54.88h0a.23.23,0,0,1-.22.27H37a.21.21,0,0,1-.21-.27A4.32,4.32,0,0,1,44,51.67a.74.74,0,0,0,1-.05.72.72,0,0,0,.19-.52.71.71,0,0,0-.24-.51,5.4,5.4,0,0,0-1.59-1,3.33,3.33,0,1,0-4.71-.07l.07.07a6,6,0,0,0-1.29.77,5.84,5.84,0,0,0-2,3.17A1.69,1.69,0,0,0,37,55.56h8a1.68,1.68,0,0,0,1.68-1.69,1.64,1.64,0,0,0,0-.38A.74.74,0,0,0,45.77,53ZM41,45.29a1.87,1.87,0,1,1-1.87,1.87A1.87,1.87,0,0,1,41,45.29Zm6.33-.48H47a.17.17,0,0,1-.12-.08.19.19,0,0,1,0-.18l.23-.23a2,2,0,0,0,0-2.87L46.7,41a2,2,0,0,0-2.87,0h0l-.23.23a.14.14,0,0,1-.16,0,.14.14,0,0,1-.09-.12v-.33a2,2,0,0,0-2-2h-.65a2,2,0,0,0-2,2v.33a.12.12,0,0,1-.09.12.14.14,0,0,1-.16,0L38.16,41a2,2,0,0,0-2.87,0h0l-.46.46a2,2,0,0,0,0,2.87l.23.24a.15.15,0,0,1,0,.17.13.13,0,0,1-.12.08h-.33a2,2,0,0,0-2,2v.65a2,2,0,0,0,2,2H35a.13.13,0,0,1,.12.09h0a.73.73,0,0,0,.39.4.87.87,0,0,0,.28,0A.66.66,0,0,0,36,50a.78.78,0,0,0,.4-.4.77.77,0,0,0,0-.56h0a1.58,1.58,0,0,0-1.47-1h-.33a.58.58,0,0,1-.57-.57v-.65a.57.57,0,0,1,.57-.57H35a1.58,1.58,0,0,0,1.47-1h0a1.6,1.6,0,0,0-.34-1.75l-.24-.23a.57.57,0,0,1,0-.8l.46-.46a.56.56,0,0,1,.79,0l0,0,.23.23a1.59,1.59,0,0,0,1.74.34h0a1.59,1.59,0,0,0,1-1.47v-.34a.58.58,0,0,1,.57-.57h.65a.58.58,0,0,1,.57.57v.33a1.58,1.58,0,0,0,1,1.47h0a1.57,1.57,0,0,0,1.74-.34l.23-.23a.56.56,0,0,1,.79,0l0,0,.46.46a.59.59,0,0,1,0,.8l-.24.23a1.62,1.62,0,0,0-.34,1.75h0a1.58,1.58,0,0,0,1.47,1h.33a.58.58,0,0,1,.57.57v.65a.58.58,0,0,1-.57.57H47a1.58,1.58,0,0,0-1.47,1h0a.74.74,0,0,0,.4,1,.77.77,0,0,0,.56,0,.73.73,0,0,0,.39-.4v0a.13.13,0,0,1,.12-.08h.33a2,2,0,0,0,2-2v-.65a2,2,0,0,0-2-2Z" transform="translate(-2 -1.2)"/><path id="Blog-2" class="cls-2" d="M12.47,46.07a.79.79,0,1,0,.79-.79.79.79,0,0,0-.79.79Zm-1.16,6.26a.78.78,0,0,0-.57-.2,7.74,7.74,0,0,1-3.26-.56.78.78,0,0,0-.6,0l-2.61,1.1.85-2A.79.79,0,0,0,5,49.82a5.35,5.35,0,0,1-1.4-3.57c0-3.26,3.05-5.91,6.81-5.91S17.2,43,17.2,46.25a5.24,5.24,0,0,1-.56,2.3.79.79,0,0,0,1.42.7,6.66,6.66,0,0,0,.72-3c0-4.13-3.76-7.49-8.39-7.49S2,42.12,2,46.25a6.87,6.87,0,0,0,1.48,4.24L2.06,53.85a.79.79,0,0,0,.43,1,.76.76,0,0,0,.61,0l4.1-1.73a8.9,8.9,0,0,0,3.19.56h.42a.79.79,0,0,0,.76-.82A.78.78,0,0,0,11.31,52.33ZM9.57,46.07a.79.79,0,1,0,.79-.79.79.79,0,0,0-.79.79Zm5.07,2.42a.66.66,0,0,0-.34-.2l-2.6-.72a.78.78,0,0,0-1,.54.86.86,0,0,0,0,.45l.77,2.54a.94.94,0,0,0,.2.33L15.24,55A2.08,2.08,0,1,0,18.17,52ZM15.92,52l-.71.71L13,50.44l-.29-1,1,.28Zm1.28,1.5a.49.49,0,0,1-.48.5h0a.56.56,0,0,1-.35-.15l0,0,.71-.71,0,0a.52.52,0,0,1,.14.35ZM6.67,46.07a.79.79,0,1,0,.79-.79.79.79,0,0,0-.79.79Z" transform="translate(-2 -1.2)"/><path class="cls-1" d="M104.85,6.5c0,1.13.84,2.52,2.43,4a23.42,23.42,0,0,0,2.53,2,2.8,2.8,0,0,0-.52,1.05,23.51,23.51,0,0,1-2.8-2.2c-1.87-1.74-2.81-3.37-2.81-4.86a4.26,4.26,0,0,1,1.18-3.08,3.91,3.91,0,0,1,2.84-1.15,4.34,4.34,0,0,1,3.45,1.46,4.44,4.44,0,0,1,.44-.43,4.61,4.61,0,0,1,3-1,3.91,3.91,0,0,1,2.85,1.15,3.86,3.86,0,0,1,1,1.78l-1.07.56a2.75,2.75,0,0,0-2.79-2.33,3.51,3.51,0,0,0-1.84.48,6.1,6.1,0,0,0-1.58,2,5.87,5.87,0,0,0-.59-1v0a4.74,4.74,0,0,0-.88-.92,3.49,3.49,0,0,0-2-.57A2.84,2.84,0,0,0,104.85,6.5ZM118.61,13a.31.31,0,0,1,0,.1.37.37,0,0,1,0,.11,1.75,1.75,0,1,1-1.75-1.75,1.7,1.7,0,0,1,.59.1V8.27a12.25,12.25,0,0,1-3.59.69v5.11s0,.06,0,.09,0,.08,0,.12a1.75,1.75,0,1,1-1.75-1.75,1.61,1.61,0,0,1,.58.1V7.8h.58a10.69,10.69,0,0,0,4.49-.92l.85-.44V13Zm-5.92,1.29a.59.59,0,1,0-1.17,0,.59.59,0,0,0,1.17,0Zm4.75-1.08a.59.59,0,0,0-.58-.59.6.6,0,0,0-.59.59.59.59,0,0,0,.59.58A.58.58,0,0,0,117.44,13.2Z" transform="translate(-2 -1.2)"/><path class="cls-2" d="M104.85,45.05c0,1.13.84,2.51,2.43,4a21.16,21.16,0,0,0,2.53,2,3,3,0,0,0-.52,1.05,21.61,21.61,0,0,1-2.8-2.2c-1.87-1.73-2.81-3.37-2.81-4.85A4.29,4.29,0,0,1,104.86,42a4,4,0,0,1,2.84-1.15,4.62,4.62,0,0,1,3,1,6,6,0,0,1,.45.43,4.32,4.32,0,0,1,.44-.42,4.61,4.61,0,0,1,3-1A4,4,0,0,1,117.43,42a3.89,3.89,0,0,1,1,1.79l-1.07.56A2.75,2.75,0,0,0,114.58,42a3.51,3.51,0,0,0-1.84.48,6,6,0,0,0-1.58,2,5.45,5.45,0,0,0-.59-1h0a4.74,4.74,0,0,0-.88-.92,3.49,3.49,0,0,0-2-.57A2.84,2.84,0,0,0,104.85,45.05Zm13.76,6.49a.28.28,0,0,1,0,.09.45.45,0,0,1,0,.11A1.75,1.75,0,1,1,116.86,50a1.71,1.71,0,0,1,.59.11V46.82a12.65,12.65,0,0,1-3.59.68v5.12s0,.06,0,.08,0,.08,0,.12a1.75,1.75,0,1,1-1.75-1.75,1.86,1.86,0,0,1,.58.1V46.35h.58a10.87,10.87,0,0,0,4.49-.92l.85-.45v6.56Zm-5.92,1.28a.59.59,0,0,0-1.17,0,.59.59,0,1,0,1.17,0Zm4.75-1.08a.58.58,0,0,0-.58-.58.59.59,0,1,0,0,1.17A.58.58,0,0,0,117.44,51.74Z" transform="translate(-2 -1.2)"/></svg>