<svg 
 xmlns="http://www.w3.org/2000/svg"
 xmlns:xlink="http://www.w3.org/1999/xlink"
 width="16px" height="20px">
<path fill-rule="evenodd"  fill="rgb(114, 133, 155)"
 d="M14.600,16.667 L1.400,16.667 C0.628,16.667 -0.000,16.013 -0.000,15.208 C-0.000,14.782 0.178,14.378 0.490,14.101 C1.706,13.029 2.400,11.472 2.400,9.823 L2.400,7.500 C2.400,4.568 4.490,2.140 7.200,1.733 L7.200,0.833 C7.200,0.372 7.558,-0.000 8.000,-0.000 C8.441,-0.000 8.800,0.372 8.800,0.833 L8.800,1.733 C11.509,2.140 13.600,4.568 13.600,7.500 L13.600,9.823 C13.600,11.472 14.294,13.029 15.503,14.094 C15.822,14.378 16.000,14.782 16.000,15.208 C16.000,16.013 15.372,16.667 14.600,16.667 ZM8.000,20.000 C6.551,20.000 5.339,18.924 5.061,17.500 L10.939,17.500 C10.661,18.924 9.449,20.000 8.000,20.000 Z"/>
</svg>