<svg id="SVG" xmlns="http://www.w3.org/2000/svg" width="1468" height="56" viewBox="0 0 1468 56">
  <defs>
    <style>
      .cls-1 {
        fill: #72859b;
      }

      .cls-1, .cls-2, .cls-3 {
        fill-rule: evenodd;
      }

      .cls-2 {
        fill: #fb324f;
      }

      .cls-3 {
        fill: #fff;
      }
    </style>
  </defs>
  <path class="cls-1" d="M1096.96,17.057a0.758,0.758,0,0,0,0-.908l-4.4-4.538,4.4-4.538a0.568,0.568,0,0,0,0-.908l-0.4-.4a0.558,0.558,0,0,0-.9,0h0l-5.31,5.345a0.774,0.774,0,0,0-.2.5h0a1.07,1.07,0,0,0,.2.5l5.31,5.345a0.761,0.761,0,0,0,.5.2,1.051,1.051,0,0,0,.5-0.2Zm-6.71-5.446h0Z"/>
  <path class="cls-1" d="M1186.37,17.057a0.568,0.568,0,0,1,0-.908l4.4-4.538-4.4-4.538a0.568,0.568,0,0,1,0-.908l0.4-.4a0.558,0.558,0,0,1,.9,0h0l5.3,5.345a0.774,0.774,0,0,1,.2.5h0a1.07,1.07,0,0,1-.2.5l-5.3,5.345a0.761,0.761,0,0,1-.5.2,1.051,1.051,0,0,1-.5-0.2Zm6.7-5.446h0Z"/>
  <path class="cls-2" d="M1402.4,48.927a0.926,0.926,0,0,0,0,1.21,0.78,0.78,0,0,0,1.1,0h0l2.4-2.622,0.1-.1h0v-0.1h0v-0.1h0v-0.1h0v-0.1h0v-0.1h0v-0.4h0v-0.1h0v-0.1h0V46.2h0V46.1h0V46h0l-0.1-.1-2.4-2.622a0.78,0.78,0,0,0-1.1,0h0a0.926,0.926,0,0,0,0,1.21l1.1,1.109h-7.8a0.821,0.821,0,0,0-.8.908,0.864,0.864,0,0,0,.8.807h7.8Zm-7.5-9.077a7,7,0,0,0-6.7,7.362,7.156,7.156,0,0,0,6.7,6.757,6.751,6.751,0,0,0,5.6-3.126,0.842,0.842,0,0,0-.2-1.21,0.719,0.719,0,0,0-1.1.2h0a5.033,5.033,0,0,1-4.2,2.32,5.3,5.3,0,0,1,0-10.59,5.033,5.033,0,0,1,4.2,2.32,0.8,0.8,0,0,0,1.1.3h0a0.842,0.842,0,0,0,.2-1.21,6.751,6.751,0,0,0-5.6-3.126h0Z"/>
  <path class="cls-2" d="M1370.19,51.852a3.6,3.6,0,0,0-3-3.732,9.562,9.562,0,0,0-2.4,0h-0.8l-1.1-.1h-2a3.458,3.458,0,0,0-3.4,2.925,16.48,16.48,0,0,0-.1,2.219v0.908a1.07,1.07,0,0,0,.2.5,0.841,0.841,0,0,0,.7.4h0.3a0.839,0.839,0,0,0,.6-1.009V52.256c0-1.412.7-2.118,1.9-2.118h5.7c1.2,0,1.9.807,1.9,2.219V53.97a0.992,0.992,0,0,0,.9,1.009h0a0.992,0.992,0,0,0,.9-1.009h0v-0.2A4.285,4.285,0,0,1,1370.19,51.852Zm-6.5-4.135h0.2c0.2,0,.4-0.1.6-0.1a4.811,4.811,0,0,0,2.8-4.942,4.06,4.06,0,0,0-3.2-3.732,3.783,3.783,0,0,0-3.8,2.421,4.877,4.877,0,0,0,.8,5.043,3.461,3.461,0,0,0,2.6,1.311h0Zm-1.2-6.455a1.5,1.5,0,0,1,1.1-.4h0a1.648,1.648,0,0,1,1.5.908,2.721,2.721,0,0,1,.2,2.32,2.573,2.573,0,0,1-.8,1.21,1.332,1.332,0,0,1-1.7.1,3.081,3.081,0,0,1-1.2-2.219,2.492,2.492,0,0,1,.9-1.916h0Z"/>
  <path class="cls-2" d="M1228.17,49.331h0a0.2,0.2,0,0,0,.2.1h0.1a0.443,0.443,0,0,0,.5,0h0.1a0.1,0.1,0,0,0,.1-0.1h0l1.9-2.521a0.672,0.672,0,0,0,.1-0.605,0.6,0.6,0,0,0-.6-0.3h-1.3V40.456a0.648,0.648,0,0,0-.6-0.605h0a0.648,0.648,0,0,0-.6.605h0V45.9h-1.3a0.862,0.862,0,0,0-.6.3,0.459,0.459,0,0,0,.1.605Zm7.41-1.009a0.648,0.648,0,0,0-.6.605v1.916a1.909,1.909,0,0,1-1.91,1.916h-8.8a1.907,1.907,0,0,1-1.9-1.916V48.927a0.6,0.6,0,1,0-1.2,0v1.916a3.129,3.129,0,0,0,3.1,3.127h8.8a3.131,3.131,0,0,0,3.11-3.126V48.927a0.648,0.648,0,0,0-.6-0.605h0Z"/>
  <path class="cls-2" d="M901.228,50.743a0.9,0.9,0,0,0,.9-0.908h0V40.052a3.173,3.173,0,0,0-3.2-3.227h-1.3a3.236,3.236,0,0,0-3.2,3.227V53.769a3.173,3.173,0,0,0,3.2,3.227h1.3a3.236,3.236,0,0,0,3.2-3.227,0.9,0.9,0,1,0-1.8,0v0.1a1.373,1.373,0,0,1-1.4,1.412h-1.3a1.373,1.373,0,0,1-1.4-1.412V40.052a1.373,1.373,0,0,1,1.4-1.412h1.3a1.373,1.373,0,0,1,1.4,1.412v9.783a0.9,0.9,0,0,0,.9.908h0Zm-13.7-13.918h-1.3a3.236,3.236,0,0,0-3.2,3.227V53.769a3.173,3.173,0,0,0,3.2,3.227h1.3a3.236,3.236,0,0,0,3.2-3.227V40.052A3.173,3.173,0,0,0,887.526,36.825Zm-2.7,3.227a1.373,1.373,0,0,1,1.4-1.412h1.3a1.373,1.373,0,0,1,1.4,1.412V53.769a1.373,1.373,0,0,1-1.4,1.412h-1.3a1.373,1.373,0,0,1-1.4-1.412V40.052Z"/>
  <path class="cls-1" d="M1422.52,12.173l2.2,2.2v1.88l-3.14-3.141a2,2,0,0,1,0-2.815l8.28-8.3H1438V9.469a4.14,4.14,0,0,0-.55-0.329,4.994,4.994,0,0,0-.78-0.309v-5.5h-6.26l-7.89,7.907A0.662,0.662,0,0,0,1422.52,12.173Zm10.7-6.056a0.665,0.665,0,1,0,.66-0.664A0.665,0.665,0,0,0,1433.22,6.117Zm4.78,5.844h0v5.047a1.776,1.776,0,0,1-1.15,1.533,4.942,4.942,0,0,1-2.17.459,5.019,5.019,0,0,1-2.18-.459,0.533,0.533,0,0,0-.96,0,5.382,5.382,0,0,1-4.35,0,1.764,1.764,0,0,1-1.14-1.533v-2.59h0V14.385a1.764,1.764,0,0,1,1.14-1.533,5.348,5.348,0,0,1,4.17-.07v-0.82h0v-0.1a1.781,1.781,0,0,1,1.14-1.533,5.019,5.019,0,0,1,2.18-.459,4.942,4.942,0,0,1,2.17.459,1.776,1.776,0,0,1,1.15,1.533v0.1Zm-5.31-.1a0.709,0.709,0,0,0,.41.345,4.074,4.074,0,0,0,3.16,0,0.709,0.709,0,0,0,.41-0.345,0.709,0.709,0,0,0-.41-0.345,4.074,4.074,0,0,0-3.16,0A0.709,0.709,0,0,0,1432.69,11.861Zm-5.32,2.524a0.76,0.76,0,0,0,.42.345,3.661,3.661,0,0,0,1.58.319,3.872,3.872,0,0,0,1.59-.306,0.691,0.691,0,0,0,.4-0.325,0.757,0.757,0,0,0-.42-0.366,3.561,3.561,0,0,0-1.57-.331,3.661,3.661,0,0,0-1.58.319A0.76,0.76,0,0,0,1427.37,14.385Zm3.99,2.623v-0.99a5.6,5.6,0,0,1-3.99-.015v1.006a0.76,0.76,0,0,0,.42.345,4.072,4.072,0,0,0,3.16,0A0.708,0.708,0,0,0,1431.36,17.008Zm5.31,0V16a5.469,5.469,0,0,1-3.98,0v1.006a0.708,0.708,0,0,0,.41.345,4.072,4.072,0,0,0,3.16,0A0.708,0.708,0,0,0,1436.67,17.008Zm0-2.623V13.479a5.47,5.47,0,0,1-3.98,0v0.906a0.709,0.709,0,0,0,.41.345,4.074,4.074,0,0,0,3.16,0A0.709,0.709,0,0,0,1436.67,14.385Z"/>
  <path class="cls-1" d="M1468,7.068h-15v1.8h15v-1.8ZM1468,3h-15V4.8h15V3Zm-15,9.932h7.89v-1.8H1453v1.8ZM1453,17h7.89V15.2H1453V17Zm10.16-5.773v5.681l4.73-2.841Z"/>
  <path class="cls-2" d="M1468,45.068h-15v1.8h15v-1.8ZM1468,41h-15v1.8h15V41Zm-15,9.932h7.89v-1.8H1453v1.8ZM1453,55h7.89V53.2H1453V55Zm10.16-5.773v5.681l4.73-2.841Z"/>
  <path class="cls-2" d="M1422.52,49.173l2.2,2.2v1.88l-3.14-3.141a2,2,0,0,1,0-2.815l8.28-8.3H1438v7.469a4.143,4.143,0,0,0-.55-0.329,4.99,4.99,0,0,0-.78-0.309v-5.5h-6.26l-7.89,7.907A0.662,0.662,0,0,0,1422.52,49.173Zm10.7-6.056a0.665,0.665,0,1,0,.66-0.664A0.665,0.665,0,0,0,1433.22,43.117Zm4.78,5.844h0v5.047a1.776,1.776,0,0,1-1.15,1.533,4.942,4.942,0,0,1-2.17.459,5.019,5.019,0,0,1-2.18-.459,0.533,0.533,0,0,0-.96,0,5.382,5.382,0,0,1-4.35,0,1.764,1.764,0,0,1-1.14-1.533v-2.59h0V51.385a1.764,1.764,0,0,1,1.14-1.533,5.348,5.348,0,0,1,4.17-.07v-0.82h0v-0.1a1.781,1.781,0,0,1,1.14-1.533,5.019,5.019,0,0,1,2.18-.459,4.942,4.942,0,0,1,2.17.459,1.776,1.776,0,0,1,1.15,1.533v0.1Zm-5.31-.1a0.709,0.709,0,0,0,.41.345,4.074,4.074,0,0,0,3.16,0,0.709,0.709,0,0,0,.41-0.345,0.709,0.709,0,0,0-.41-0.345,4.074,4.074,0,0,0-3.16,0A0.709,0.709,0,0,0,1432.69,48.861Zm-5.32,2.523a0.76,0.76,0,0,0,.42.345,3.661,3.661,0,0,0,1.58.319,3.872,3.872,0,0,0,1.59-.306,0.691,0.691,0,0,0,.4-0.325,0.757,0.757,0,0,0-.42-0.366,3.561,3.561,0,0,0-1.57-.331,3.661,3.661,0,0,0-1.58.319A0.76,0.76,0,0,0,1427.37,51.385Zm3.99,2.623v-0.99a5.6,5.6,0,0,1-3.99-.015v1.006a0.76,0.76,0,0,0,.42.345,4.072,4.072,0,0,0,3.16,0A0.708,0.708,0,0,0,1431.36,54.008Zm5.31,0V53a5.469,5.469,0,0,1-3.98,0v1.006a0.708,0.708,0,0,0,.41.345,4.072,4.072,0,0,0,3.16,0A0.708,0.708,0,0,0,1436.67,54.008Zm0-2.623V50.479a5.47,5.47,0,0,1-3.98,0v0.906a0.709,0.709,0,0,0,.41.345,4.074,4.074,0,0,0,3.16,0A0.709,0.709,0,0,0,1436.67,51.385Z"/>
  <g id="Up_profile" data-name="Up profile">
    <path id="_2" data-name="2" class="cls-1" d="M1402.4,13.628a0.926,0.926,0,0,0,0,1.21,0.78,0.78,0,0,0,1.1,0h0l2.4-2.622,0.1-.1h0v-0.1h0v-0.1h0v-0.1h0v-0.1h0v-0.1h0v-0.4h0v-0.1h0v-0.1h0v-0.1h0V10.8h0V10.7h0l-0.1-.1-2.4-2.622a0.78,0.78,0,0,0-1.1,0h0a0.926,0.926,0,0,0,0,1.21l1.1,1.109h-7.8a0.821,0.821,0,0,0-.8.908,0.864,0.864,0,0,0,.8.807h7.8Zm-7.5-9.077a7,7,0,0,0-6.7,7.362,7.156,7.156,0,0,0,6.7,6.757,6.751,6.751,0,0,0,5.6-3.126,0.842,0.842,0,0,0-.2-1.21,0.719,0.719,0,0,0-1.1.2h0a5.033,5.033,0,0,1-4.2,2.32,5.219,5.219,0,0,1-5-5.547,5.245,5.245,0,0,1,5-5.043,5.033,5.033,0,0,1,4.2,2.32,0.8,0.8,0,0,0,1.1.3h0a0.842,0.842,0,0,0,.2-1.21,6.751,6.751,0,0,0-5.6-3.126h0Z"/>
    <path id="_1" data-name="1" class="cls-1" d="M1370.19,15.545a3.6,3.6,0,0,0-3-3.732,9.562,9.562,0,0,0-2.4,0h-0.8l-1.1-.1h-2a3.458,3.458,0,0,0-3.4,2.925,16.478,16.478,0,0,0-.1,2.219v0.908a1.07,1.07,0,0,0,.2.5,0.841,0.841,0,0,0,.7.4h0.3a0.839,0.839,0,0,0,.6-1.008V15.948c0-1.412.7-2.118,1.9-2.118h5.7c1.2,0,1.9.807,1.9,2.219v1.614a0.992,0.992,0,0,0,.9,1.008h0a0.992,0.992,0,0,0,.9-1.008h0v-0.2A4.285,4.285,0,0,1,1370.19,15.545Zm-6.5-4.135h0.2c0.2,0,.4-0.1.6-0.1a4.811,4.811,0,0,0,2.8-4.942,4.06,4.06,0,0,0-3.2-3.732,3.783,3.783,0,0,0-3.8,2.421,4.877,4.877,0,0,0,.8,5.043,3.461,3.461,0,0,0,2.6,1.311h0Zm-1.2-6.455a1.5,1.5,0,0,1,1.1-.4h0a1.648,1.648,0,0,1,1.5.908,2.721,2.721,0,0,1,.2,2.32,2.573,2.573,0,0,1-.8,1.21,1.332,1.332,0,0,1-1.7.1,3.081,3.081,0,0,1-1.2-2.219,2.492,2.492,0,0,1,.9-1.916h0Z"/>
  </g>
  <g id="White_Up" data-name="White Up">
    <path id="_6" data-name="6" class="cls-3" d="M1050.55,14.133h0l0.2,0.2a0.1,0.1,0,0,1,.1.1,0.632,0.632,0,0,0,.6,0,0.1,0.1,0,0,0,.1-0.1c0.1,0,.1-0.1.2-0.1h0l2.3-3.026a0.767,0.767,0,0,0,.1-0.807,0.669,0.669,0,0,0-.7-0.4h-1.5V3.341a0.792,0.792,0,0,0-.8-0.807,0.739,0.739,0,0,0-.8.807V9.9h-1.5a1.01,1.01,0,0,0-.7.4,0.766,0.766,0,0,0,.1.807Zm8.9-1.21a0.851,0.851,0,0,0-.8.706h0v2.32a2.4,2.4,0,0,1-2.3,2.32h-10.5a2.4,2.4,0,0,1-2.3-2.32v-2.32a0.792,0.792,0,0,0-.8-0.807,0.739,0.739,0,0,0-.8.807v2.32a3.881,3.881,0,0,0,3.8,3.832h10.5a3.88,3.88,0,0,0,3.8-3.832v-2.32A0.566,0.566,0,0,0,1059.45,12.922Z"/>
    <path id="_5" data-name="5" class="cls-3" d="M1018.24,0.719a0.518,0.518,0,0,0-.4-0.2,0.756,0.756,0,0,0-.4.2,0.617,0.617,0,0,0,0,.807,13.371,13.371,0,0,1,0,18.255,0.618,0.618,0,0,0,0,.807,0.518,0.518,0,0,0,.4.2,0.756,0.756,0,0,0,.4-0.2A14.582,14.582,0,0,0,1018.24.719Zm-2.3,2.32a0.518,0.518,0,0,0-.4-0.2,0.756,0.756,0,0,0-.4.2,0.617,0.617,0,0,0,0,.807,9.805,9.805,0,0,1,0,13.515,0.618,0.618,0,0,0,0,.807,0.518,0.518,0,0,0,.4.2,0.756,0.756,0,0,0,.4-0.2,11.036,11.036,0,0,0,0-15.128h0Zm-2.4,2.521a0.518,0.518,0,0,0-.4-0.2,0.756,0.756,0,0,0-.4.2,0.617,0.617,0,0,0,0,.807,6.262,6.262,0,0,1,0,8.472,0.617,0.617,0,0,0,0,.807,0.518,0.518,0,0,0,.4.2,0.755,0.755,0,0,0,.4-0.2,7.5,7.5,0,0,0,0-10.085h0Zm-3.3-2.824a0.468,0.468,0,0,0-.6.1l-3.9,3.328h-3.1a0.563,0.563,0,0,0-.5.605h0v7.766a0.563,0.563,0,0,0,.5.605h3.1l3.9,3.328a0.365,0.365,0,0,0,.3.1c0.1,0,.2,0,0.2-0.1a0.555,0.555,0,0,0,.3-0.5V3.24c0.2-.2,0-0.4-0.2-0.5h0Zm-0.7,1.715v12.3l-3.2-2.723a0.366,0.366,0,0,0-.3-0.1h-2.7V7.274h2.7a0.365,0.365,0,0,0,.3-0.1Z"/>
    <path id="_4" data-name="4" class="cls-3" d="M980.939,11.107a6.073,6.073,0,0,0-1,.706l-4.6,2.925c-1,.605-1.9,1.21-2.9,1.815a0.624,0.624,0,0,1-.8-0.2,0.373,0.373,0,0,1-.1-0.3V11.006a0.38,0.38,0,0,1-.2.2l-1,.706-4.6,2.925-2.9,1.815a0.538,0.538,0,0,1-.8-0.2,0.372,0.372,0,0,1-.1-0.3V5.157a0.373,0.373,0,0,1,.1-0.3h0a0.619,0.619,0,0,1,.4-0.3h0.1a0.365,0.365,0,0,1,.3.1h0l1,0.706c1.5,1.009,3,1.916,4.6,2.925,1,0.605,1.9,1.21,2.9,1.815a0.379,0.379,0,0,1,.2.2V5.257a0.373,0.373,0,0,1,.1-0.3h0a0.622,0.622,0,0,1,.4-0.3h0.1a0.365,0.365,0,0,1,.3.1h0l1,0.706,4.6,2.925c1,0.605,1.9,1.21,2.9,1.815a0.66,0.66,0,0,1,.2.908A0.138,0.138,0,0,0,980.939,11.107Zm-10.9-.5a0.348,0.348,0,0,1-.2-0.1c-1.5-1.009-3-1.916-4.6-2.925l-2-1.311V15.04l0.2-.1,4.6-2.925Zm9.5,0a0.348,0.348,0,0,1-.2-0.1l-4.6-2.925-2-1.311V15.04a0.348,0.348,0,0,0,.2-0.1c1.5-1.008,3.1-1.916,4.6-2.925Z"/>
    <path id="_3" data-name="3" class="cls-3" d="M941.234,14.435a0.9,0.9,0,0,0,.9-0.908h0V3.745a3.173,3.173,0,0,0-3.2-3.227h-1.3a3.236,3.236,0,0,0-3.2,3.227V17.461a3.173,3.173,0,0,0,3.2,3.227h1.3a3.236,3.236,0,0,0,3.2-3.227,0.9,0.9,0,1,0-1.8,0,1.373,1.373,0,0,1-1.4,1.412h-1.3a1.373,1.373,0,0,1-1.4-1.412V3.745a1.373,1.373,0,0,1,1.4-1.412h1.3a1.373,1.373,0,0,1,1.4,1.412v9.783a0.9,0.9,0,0,0,.9.908h0Zm-13.7-13.918h-1.3a3.236,3.236,0,0,0-3.2,3.227V17.461a3.173,3.173,0,0,0,3.2,3.227h1.3a3.236,3.236,0,0,0,3.2-3.227V3.745A3.173,3.173,0,0,0,927.532.517Zm-2.7,3.227a1.373,1.373,0,0,1,1.4-1.412h1.3a1.373,1.373,0,0,1,1.4,1.412V17.461a1.373,1.373,0,0,1-1.4,1.412h-1.3a1.373,1.373,0,0,1-1.4-1.412V3.745Z"/>
    <path id="_2-2" data-name="2" class="cls-3" d="M900.828,8.686l-14.1-7.766c-1.6-.908-3.6-0.3-3.6,1.916V18.369a2.15,2.15,0,0,0,2,2.32h0.1a2.282,2.282,0,0,0,1.4-.4l14.1-7.766a2.092,2.092,0,0,0,1.2-2.723A1.728,1.728,0,0,0,900.828,8.686Zm-15.3,9.581V2.938l14,7.665Z"/>
    <path id="_1-2" data-name="1" class="cls-3" d="M844.32,11.107l1,0.706,4.6,2.925,2.9,1.815a0.624,0.624,0,0,0,.8-0.2,0.373,0.373,0,0,0,.1-0.3V11.006a0.38,0.38,0,0,0,.2.2l1,0.706,4.6,2.925,2.9,1.815a0.538,0.538,0,0,0,.8-0.2,0.372,0.372,0,0,0,.1-0.3V5.157a0.373,0.373,0,0,0-.1-0.3h0a0.619,0.619,0,0,0-.4-0.3h-0.1a0.365,0.365,0,0,0-.3.1h0l-1,.706-4.6,2.925-2.9,1.815a0.379,0.379,0,0,0-.2.2V5.257a0.373,0.373,0,0,0-.1-0.3h0a0.622,0.622,0,0,0-.4-0.3h-0.1a0.365,0.365,0,0,0-.3.1h0l-1,.706-4.6,2.925-2.9,1.815a0.66,0.66,0,0,0-.2.908A0.138,0.138,0,0,1,844.32,11.107Zm10.9-.5,0.2-.1,4.6-2.925,2-1.311V15.04l-0.2-.1-4.6-2.925Zm-9.5,0,0.2-.1,4.6-2.925,2-1.311V15.04l-0.2-.1-4.6-2.925Z"/>
    <path class="cls-3" d="M1128.96,17.057a0.758,0.758,0,0,0,0-.908l-4.4-4.538,4.4-4.538a0.568,0.568,0,0,0,0-.908l-0.4-.4a0.558,0.558,0,0,0-.9,0h0l-5.3,5.345a0.774,0.774,0,0,0-.2.5h0a1.07,1.07,0,0,0,.2.5l5.3,5.345a0.761,0.761,0,0,0,.5.2,1.051,1.051,0,0,0,.5-0.2Zm-6.7-5.446h0Z"/>
    <path class="cls-3" d="M1154.36,17.057a0.568,0.568,0,0,1,0-.908l4.4-4.538-4.4-4.538a0.568,0.568,0,0,1,0-.908l0.4-.4a0.558,0.558,0,0,1,.9,0h0l5.3,5.345a0.774,0.774,0,0,1,.2.5h0a1.07,1.07,0,0,1-.2.5l-5.3,5.345a0.761,0.761,0,0,1-.5.2,1.051,1.051,0,0,1-.5-0.2Zm6.7-5.446h0Z"/>
    <path class="cls-3" d="M1322.89,13.83a2.705,2.705,0,0,1-3.9-.2,0.1,0.1,0,0,0-.1-0.1,3.057,3.057,0,0,1,0-3.832,2.808,2.808,0,0,1,3.9-.4l0.1,0.1,3-2.118a0.1,0.1,0,0,0,.1-0.1,1.018,1.018,0,0,0,.6-1.109,2.808,2.808,0,0,1,2.6-2.622,2.731,2.731,0,0,1,2.8,2.219,2.874,2.874,0,0,1-1.3,3.227,2.7,2.7,0,0,1-3.3-.5l-0.3-.3c-1.1.807-2.2,1.513-3.3,2.32a0.372,0.372,0,0,0-.1.3v1.513a0.373,0.373,0,0,0,.1.3c1.1,0.807,2.2,1.513,3.3,2.32a2.65,2.65,0,0,1,1.8-1.109,2.751,2.751,0,0,1,3.2,2.32h0a3.013,3.013,0,0,1-2.2,3.429,2.825,2.825,0,0,1-3.3-2.32,1.239,1.239,0,0,1,0-.605,0.767,0.767,0,0,0-.2-0.4C1325.29,15.444,1324.09,14.637,1322.89,13.83Zm-1.9-3.631a1.46,1.46,0,0,0-1.4,1.513,1.373,1.373,0,0,0,1.4,1.412,1.46,1.46,0,0,0,1.4-1.513,1.373,1.373,0,0,0-1.4-1.412h0Zm8.4-2.219a1.463,1.463,0,1,0-1.4-1.513h0a1.528,1.528,0,0,0,1.4,1.513h0Zm0,7.262a1.463,1.463,0,1,0,1.4,1.513h0a1.528,1.528,0,0,0-1.4-1.513h0Z"/>
    <path class="cls-3" d="M1290.78,8.989h-9.6V10.7h9.6V8.989Zm0-4.438h-9.6V6.266h9.6V4.551Zm3.21,8.976V10h-1.61v3.429h-3.2v1.714h3.2v3.53h1.61V15.242h3.2V13.527h-3.2Zm-12.81,1.715h6.4V13.527h-6.4v1.715Z"/>
    <path class="cls-3" d="M1256.88,4.551a4.521,4.521,0,0,0-2,.5,1.794,1.794,0,0,0-.7.5c-0.2-.2-0.5-0.3-0.7-0.5a4.521,4.521,0,0,0-2-.5,4.351,4.351,0,0,0-4.3,4.337,7.978,7.978,0,0,0,2.4,5.144,31.94,31.94,0,0,0,4,3.328l0.5,0.3,0.5-.3a18.074,18.074,0,0,0,4-3.328,7.549,7.549,0,0,0,2.4-5.144A4.061,4.061,0,0,0,1256.88,4.551Zm-5.4,1.916a2.27,2.27,0,0,1,1.9,1.009l0.8,1.009,0.8-1.009a2.57,2.57,0,0,1,1.9-1.009,2.4,2.4,0,0,1,2.4,2.521,6.658,6.658,0,0,1-1.9,3.833,20.831,20.831,0,0,1-3.2,2.723,26.982,26.982,0,0,1-3.2-2.723,5.656,5.656,0,0,1-1.9-3.833,2.467,2.467,0,0,1,2.4-2.521h0Z"/>
    <path class="cls-3" d="M1228.17,14.032h0a0.2,0.2,0,0,0,.2.1h0.1a0.443,0.443,0,0,0,.5,0h0.1a0.1,0.1,0,0,0,.1-0.1h0l1.9-2.521a0.672,0.672,0,0,0,.1-0.605,0.6,0.6,0,0,0-.6-0.3h-1.3V5.157a0.648,0.648,0,0,0-.6-0.605h0a0.648,0.648,0,0,0-.6.605h0V10.6h-1.3a0.861,0.861,0,0,0-.6.3,0.459,0.459,0,0,0,.1.605Zm7.41-1.009a0.648,0.648,0,0,0-.6.605v1.916a1.909,1.909,0,0,1-1.91,1.916h-8.8a1.907,1.907,0,0,1-1.9-1.916V13.628a0.6,0.6,0,1,0-1.2,0v1.916a3.129,3.129,0,0,0,3.1,3.127h8.8a3.131,3.131,0,0,0,3.11-3.126V13.628a0.648,0.648,0,0,0-.6-0.605h0Z"/>
  </g>
  <g id="Down">
    <path id="_18" data-name="18" class="cls-2" d="M791.112,57a2.926,2.926,0,0,0,2.9-2.521h-5.9A3.11,3.11,0,0,0,791.112,57Zm7.5-5.95a5.819,5.819,0,0,1-1.9-4.337v-2.32a5.931,5.931,0,0,0-4.8-5.85V37.632a0.8,0.8,0,1,0-1.6,0h0v0.908a5.853,5.853,0,0,0-4.8,5.85v2.32a5.985,5.985,0,0,1-1.9,4.337,1.626,1.626,0,0,0-.5,1.109,1.528,1.528,0,0,0,1.4,1.513h13.2a1.461,1.461,0,0,0,1.4-1.513A1.631,1.631,0,0,0,798.613,51.045Z"/>
    <path id="_17" data-name="17" class="cls-2" d="M749.706,51.449h0l-0.1-.2h0l-0.1-.1-2.2-2.32a0.907,0.907,0,0,0-1.2,0,0.926,0.926,0,0,0,0,1.21l0.8,0.807h-3.8a4.31,4.31,0,0,1-4.3-4.438,3.677,3.677,0,0,1,1.2-2.824,0.926,0.926,0,0,0,0-1.21,0.862,0.862,0,0,0-.6-0.3h0a0.711,0.711,0,0,0-.6.3,5.91,5.91,0,0,0-1.7,4.135,6.155,6.155,0,0,0,6,6.253h3.8l-0.8.807a0.926,0.926,0,0,0,0,1.21,0.907,0.907,0,0,0,1.2,0h0l2.2-2.32,0.1-.1h0l0.1-.1h0v-0.1h0V51.449Zm0,0.2h0Zm-0.1-.2h0ZM0,0H0ZM749.006,40.153h-3.9l0.8-.807a0.926,0.926,0,0,0,0-1.21,0.907,0.907,0,0,0-1.2,0l-2.2,2.32-0.1.1-0.1.1h0v0.1h0v0.2l0.1,0.2h0l0.1,0.1,0.1,0.1,2.2,2.32a0.907,0.907,0,0,0,1.2,0,0.926,0.926,0,0,0,0-1.21l-0.8-.807h3.8a4.374,4.374,0,0,1,4.3,4.438,3.677,3.677,0,0,1-1.2,2.824,0.926,0.926,0,0,0,0,1.21,0.862,0.862,0,0,0,.6.3h0a0.711,0.711,0,0,0,.6-0.3,5.91,5.91,0,0,0,1.7-4.135A6.144,6.144,0,0,0,749.006,40.153Zm-6.6.5h0Zm-0.1.2h0Zm0,0.1h0Zm0,0.2h0ZM0,0H0Z"/>
    <path id="_16" data-name="16" class="cls-2" d="M704.2,46.608l0.2,0.3,0.2-.3c1.1-1.614,2.1-2.622,3.8-2.622h0.1v3.227l4.2-4.135-4.2-4.135V42.17h-0.1a6.278,6.278,0,0,0-5.1,3.026l-0.1.1,0.1,0.1A5.427,5.427,0,0,1,704.2,46.608Zm4.3,4.236h0c-2.3,0-3.4-1.815-4.7-3.933-1.4-2.32-3-4.841-6.3-4.841h-2.7v1.916h2.7c2.2,0,3.3,1.815,4.6,3.933,1.4,2.32,3,4.841,6.3,4.841h0.1v3.227l4.2-4.135-4.2-4.135v3.127h0Zm-6.8-2.622-0.2-.3-0.2.3c-1.1,1.614-2.1,2.622-3.8,2.622h-2.7v2.017h2.7a6.28,6.28,0,0,0,5.1-3.026l0.1-.1-0.1-.1c-0.3-.5-0.6-1.009-0.9-1.412h0Z"/>
    <path id="_15" data-name="15" class="cls-2" d="M664.794,49.129a2.705,2.705,0,0,1-3.9-.2,0.1,0.1,0,0,0-.1-0.1,3.058,3.058,0,0,1,0-3.832,2.808,2.808,0,0,1,3.9-.4l0.1,0.1,3-2.118a0.1,0.1,0,0,0,.1-0.1,1.018,1.018,0,0,0,.6-1.109,2.808,2.808,0,0,1,2.6-2.622,2.732,2.732,0,0,1,2.8,2.219,2.8,2.8,0,0,1-1.4,3.227,2.7,2.7,0,0,1-3.3-.5l-0.3-.3c-1.1.807-2.2,1.513-3.3,2.32a0.373,0.373,0,0,0-.1.3v1.513a0.373,0.373,0,0,0,.1.3c1.1,0.807,2.2,1.513,3.3,2.32a2.65,2.65,0,0,1,1.8-1.109,2.752,2.752,0,0,1,3.2,2.32h0a3.014,3.014,0,0,1-2.2,3.429,2.825,2.825,0,0,1-3.3-2.32,1.24,1.24,0,0,1,0-.605,0.767,0.767,0,0,0-.2-0.4C667.2,50.743,665.994,49.936,664.794,49.129Zm-1.9-3.631a1.46,1.46,0,0,0-1.4,1.513,1.373,1.373,0,0,0,1.4,1.412,1.46,1.46,0,0,0,1.4-1.513,1.373,1.373,0,0,0-1.4-1.412h0Zm8.4-2.219a1.437,1.437,0,0,0,1.4-1.412h0a1.32,1.32,0,0,0-1.5-1.311,1.375,1.375,0,0,0-1.3,1.513,1.342,1.342,0,0,0,1.4,1.21h0Zm0,7.362a1.436,1.436,0,0,0-1.4,1.412h0a1.4,1.4,0,1,0,2.8,0A1.317,1.317,0,0,0,671.3,50.642Z"/>
    <path id="_14" data-name="14" class="cls-2" d="M627.689,44.288h-9.6V46h9.6V44.288Zm0-3.429h-9.6v1.715h9.6V40.859h0Zm3.2,6.959V44.389h-1.6v3.429h-3.2v1.715h3.2v3.429h1.6V49.533h3.2V47.818h-3.2Zm-12.8,1.715h6.4V47.818h-6.4v1.715Z"/>
    <path id="_13" data-name="13" class="cls-2" d="M592.784,53.063l-3.4-3.631a6.69,6.69,0,0,0,1.3-4.034,6.3,6.3,0,1,0-6.3,6.556,6.7,6.7,0,0,0,3.4-1.009l3.4,3.732a1.086,1.086,0,0,0,1.5.1h0A1.262,1.262,0,0,0,592.784,53.063Zm-4.2-7.665a4.154,4.154,0,1,1-4.1-4.337,4.249,4.249,0,0,1,4.1,4.337h0Z"/>
    <path id="_12" data-name="12" class="cls-2" d="M544.677,50.239a0.518,0.518,0,0,0,.4.2,0.756,0.756,0,0,0,.4-0.2l3.3-3.53a0.446,0.446,0,0,0,.1-0.5,0.419,0.419,0,0,0-.4-0.3h-1.9v-4.74a0.459,0.459,0,0,0-.5-0.4h-1.9a0.539,0.539,0,0,0-.5.4V45.9h-1.9a0.419,0.419,0,0,0-.4.3,0.484,0.484,0,0,0,.1.5Zm5.5-.706v2.622h-10.3V49.533h-1.8v3.53a0.9,0.9,0,0,0,.9.908h12.1a0.9,0.9,0,0,0,.9-0.908v-3.53h-1.8Z"/>
    <path id="_11" data-name="11" class="cls-2" d="M508.772,40.859a4.522,4.522,0,0,0-2,.5,1.8,1.8,0,0,0-.7.5c-0.2-.2-0.5-0.3-0.7-0.5a4.523,4.523,0,0,0-2-.5,4.351,4.351,0,0,0-4.3,4.337,7.643,7.643,0,0,0,2.5,5.144,31.95,31.95,0,0,0,4,3.328l0.5,0.3,0.5-.3a18.074,18.074,0,0,0,4-3.328,7.545,7.545,0,0,0,2.4-5.144A4.2,4.2,0,0,0,508.772,40.859Zm-5.4,1.916a2.271,2.271,0,0,1,1.9,1.009l0.8,1.008,0.8-1.008a2.57,2.57,0,0,1,1.9-1.009,2.4,2.4,0,0,1,2.4,2.521,6.108,6.108,0,0,1-1.9,3.832,20.831,20.831,0,0,1-3.2,2.723,26.99,26.99,0,0,1-3.2-2.723,5.656,5.656,0,0,1-1.9-3.832,2.467,2.467,0,0,1,2.4-2.521h0Z"/>
    <path id="_10" data-name="10" class="cls-2" d="M487.869,46.2h-4.2a0.216,0.216,0,0,1-.2-0.2V41.767a1.221,1.221,0,0,0-1.2-1.21,1.3,1.3,0,0,0-1.2,1.21V45.9a0.216,0.216,0,0,1-.2.2h-4.2a1.222,1.222,0,0,0-1.2,1.21,1.3,1.3,0,0,0,1.2,1.21h4.2a0.216,0.216,0,0,1,.2.2v4.236a1.221,1.221,0,0,0,1.2,1.21,1.3,1.3,0,0,0,1.2-1.21V48.927a0.216,0.216,0,0,1,.2-0.2h4.2a1.221,1.221,0,0,0,1.2-1.21A1.312,1.312,0,0,0,487.869,46.2Z"/>
    <path id="_9" data-name="9" class="cls-2" d="M416.659,46.305a7.021,7.021,0,0,0-7.8-5.849,0.751,0.751,0,0,0-.4.1,7.781,7.781,0,0,0-3.4,1.715c-0.4-.4-0.8-0.908-1.2-1.311a1.067,1.067,0,0,0-.6-0.2,0.555,0.555,0,0,0-.3.5v3.631a0.563,0.563,0,0,0,.5.605h3.9a0.549,0.549,0,0,0,.5-0.3,0.481,0.481,0,0,0-.2-0.5,15.431,15.431,0,0,0-1.3-1.21,5.4,5.4,0,0,1,3.6-1.412,4.937,4.937,0,0,1,2.1,9.38,5.062,5.062,0,0,1-5.3-.5,0.818,0.818,0,0,0-1.2.1,0.2,0.2,0,0,0-.1.2c-0.3.4-.2,0.706,0.3,1.008a6.853,6.853,0,0,0,9.6-1.513A6.506,6.506,0,0,0,416.659,46.305Zm-6.1,2.824c0.6,0.4.9,0.4,1.3-.1s0.3-.807-0.2-1.21a2.183,2.183,0,0,0-.5-0.3,0.817,0.817,0,0,1-.4-0.908V44.49c0-.605-0.2-0.807-0.9-0.807s-0.9.2-.9,0.807v1.815C408.458,47.616,409.358,48.423,410.558,49.129Z"/>
    <path id="_8" data-name="8" class="cls-2" d="M368.952,43.481a0.863,0.863,0,0,0-.6-0.706,0.738,0.738,0,0,0-.9.706v0.3a19.6,19.6,0,0,1-.1,2.42,5.558,5.558,0,0,1-6,4.841,5.783,5.783,0,0,1-4.8-5.345V43.582a0.752,0.752,0,1,0-1.5-.1v0.1a22.99,22.99,0,0,0,.1,2.622,7.2,7.2,0,0,0,5.3,6.253c0.3,0.1.5,0.1,0.8,0.2v1.715h-2.2a0.807,0.807,0,0,0,0,1.614h6.1a0.752,0.752,0,0,0,.7-0.5,0.711,0.711,0,0,0-.4-1.008c-0.1,0-.2-0.1-0.3-0.1h-2.3V52.76c0.1,0,.3-0.1.4-0.1a6.956,6.956,0,0,0,5-3.833A10.868,10.868,0,0,0,368.952,43.481Zm-6.9,5.85a3.843,3.843,0,0,0,3.8-3.631,14.972,14.972,0,0,0,0-2.118h0V41.464a4,4,0,0,0-3.8-3.631,3.842,3.842,0,0,0-3.8,3.631,31.382,31.382,0,0,0,0,4.337,3.756,3.756,0,0,0,3.8,3.53h0Zm-2.3-7.968a2.315,2.315,0,0,1,2.5-1.916,2.5,2.5,0,0,1,2.1,2.521V45.2a2.3,2.3,0,1,1-4.6.2V43.481h0a14.9,14.9,0,0,1,0-2.118h0Z"/>
    <path id="_7" data-name="7" class="cls-2" d="M310.144,50.541a2.518,2.518,0,0,0-1.2-.2,2.826,2.826,0,0,0,.2,5.648,2.788,2.788,0,0,0,2.7-2.824V46.91l6.4-1.815v3.127a2.518,2.518,0,0,0-1.2-.2,2.826,2.826,0,0,0,.2,5.648,2.788,2.788,0,0,0,2.7-2.824v-12l-9.9,2.723v8.976h0.1Zm-1.2,3.732a1.141,1.141,0,0,1-1.1-1.21,1.082,1.082,0,0,1,1.2-1.109,1.115,1.115,0,0,1,1.1,1.109,1.16,1.16,0,0,1-1.2,1.21h0Zm8.2-2.219a1.161,1.161,0,0,1,.1-2.32,1.115,1.115,0,0,1,1.1,1.109,1.292,1.292,0,0,1-1.2,1.21h0Zm1.2-10.993V43.28l-6.4,1.815V42.876Z"/>
    <path id="_6-2" data-name="6" class="cls-2" d="M264.638,50.239a0.518,0.518,0,0,0,.4.2,0.756,0.756,0,0,0,.4-0.2l3.3-3.53a0.446,0.446,0,0,0,.1-0.5,0.419,0.419,0,0,0-.4-0.3h-1.9v-4.74a0.459,0.459,0,0,0-.5-0.4h-1.9a0.54,0.54,0,0,0-.5.4V45.9h-1.9a0.419,0.419,0,0,0-.4.3,0.484,0.484,0,0,0,.1.5Zm5.5-.706v2.622h-10.3V49.533h-1.8v3.53a0.9,0.9,0,0,0,.9.908h12.1a0.9,0.9,0,0,0,.9-0.908v-3.53h-1.8Z"/>
    <path id="_5-2" data-name="5" class="cls-2" d="M218.731,40.859a4.522,4.522,0,0,0-2,.5,1.8,1.8,0,0,0-.7.5c-0.2-.2-0.5-0.3-0.7-0.5a4.526,4.526,0,0,0-2-.5,4.351,4.351,0,0,0-4.3,4.337,7.643,7.643,0,0,0,2.5,5.144,31.878,31.878,0,0,0,4,3.328l0.5,0.3,0.5-.3a18.074,18.074,0,0,0,4-3.328,7.545,7.545,0,0,0,2.4-5.144A4.2,4.2,0,0,0,218.731,40.859Zm-5.4,1.916a2.272,2.272,0,0,1,1.9,1.009l0.8,1.008,0.8-1.008a2.57,2.57,0,0,1,1.9-1.009,2.4,2.4,0,0,1,2.4,2.521,6.113,6.113,0,0,1-1.9,3.832,20.831,20.831,0,0,1-3.2,2.723,26.99,26.99,0,0,1-3.2-2.723,5.656,5.656,0,0,1-1.9-3.832,2.467,2.467,0,0,1,2.4-2.521h0Z"/>
    <path id="_4-2" data-name="4" class="cls-2" d="M169.524,41.868h-9.5v1.614h9.5V41.868h0Zm0,3.127h-9.5v1.614h9.5V44.994h0Zm-9.5,4.841h6.3V48.222h-6.3v1.614Zm11.1-7.967v6.455a2.185,2.185,0,0,0-.8-0.1,2.371,2.371,0,0,0,.1,4.74,2.36,2.36,0,0,0,2.3-2.42V43.38h2.4V41.868h-4Z"/>
    <path id="_3-2" data-name="3" class="cls-2" d="M124.218,45.2h-2.1a0.549,0.549,0,0,1-.5-0.3,32.213,32.213,0,0,0-1.6-3.227,0.784,0.784,0,0,0-.4-0.4,0.756,0.756,0,0,0-.9.1,0.629,0.629,0,0,0-.1.807c0.4,0.908.9,1.815,1.3,2.622,0,0.1.1,0.2,0.1,0.3h-6.3a0.373,0.373,0,0,0,.1-0.3c0.4-.908.9-1.815,1.3-2.622a0.614,0.614,0,0,0-.1-0.807,0.74,0.74,0,0,0-.9-0.1,1.515,1.515,0,0,0-.4.4c-0.5,1.109-1.1,2.118-1.6,3.227a0.549,0.549,0,0,1-.5.3h-2.1a0.775,0.775,0,0,0-.8.706h0V46a0.711,0.711,0,0,0,.8.706h0.1a0.266,0.266,0,0,1,.3.3c0.3,1.513.6,3.127,1,4.639,0,0.2.1,0.4,0.1,0.706a0.992,0.992,0,0,0,1.1.807h9.2a0.992,0.992,0,0,0,1.1-.807,1.507,1.507,0,0,0,.1-0.706c0.3-1.513.6-3.126,1-4.639a0.321,0.321,0,0,1,.3-0.3h0.1a0.775,0.775,0,0,0,.8-0.706h0V45.9C125.018,45.5,124.618,45.2,124.218,45.2Zm-10.5,6.656a0.663,0.663,0,0,1-.7-0.605h0c-0.2-.908-0.3-1.815-0.5-2.723a1.008,1.008,0,0,1,.1-1.008,0.5,0.5,0,0,1,.5-0.1,0.669,0.669,0,0,1,.4.5c0.2,1.008.4,2.118,0.6,3.127a0.534,0.534,0,0,1-.4.706c0.1,0,.1.1,0,0.1h0Zm3.9-.605v0.2h0v0.1h0a0.568,0.568,0,0,1-.7.4,0.784,0.784,0,0,1-.4-0.4h0v-0.1h0v-3.53a0.6,0.6,0,1,1,1.2,0h0v1.109A15.748,15.748,0,0,0,117.617,51.247Zm3.9-2.723c-0.2.908-.3,1.815-0.5,2.723a0.671,0.671,0,0,1-.7.605h0a0.549,0.549,0,0,1-.5-0.706v-0.1c0.2-1.009.4-2.118,0.6-3.126a0.46,0.46,0,0,1,.4-0.5,0.744,0.744,0,0,1,.5.1C121.617,47.717,121.617,47.919,121.517,48.524Z"/>
    <path id="_2-3" data-name="2" class="cls-2" d="M62.909,42.574a0.6,0.6,0,0,0-.8,0h0a4.85,4.85,0,0,0,0,6.556,0.6,0.6,0,0,0,.8,0h0a0.617,0.617,0,0,0,0-.807,3.491,3.491,0,0,1,0-4.841A0.757,0.757,0,0,0,62.909,42.574Zm-1.7-.908a0.617,0.617,0,0,0,0-.807,0.6,0.6,0,0,0-.8,0h0a7.29,7.29,0,0,0,0,10.085,0.6,0.6,0,0,0,.8,0h0a0.617,0.617,0,0,0,0-.807A6.6,6.6,0,0,1,61.209,41.666Zm-1.7-1.815a0.618,0.618,0,0,0,0-.807,0.6,0.6,0,0,0-.8,0h0a9.614,9.614,0,0,0,0,13.514h0a0.6,0.6,0,0,0,.8,0h0a0.618,0.618,0,0,0,0-.807A8.575,8.575,0,0,1,59.509,39.851Zm6,3.732a2.122,2.122,0,0,0-2.1,2.118,2.056,2.056,0,0,0,1.5,2.017v6.656a0.6,0.6,0,1,0,1.2,0V47.717a2.147,2.147,0,0,0,1.5-2.017,2.06,2.06,0,0,0-2.1-2.118h0Zm6.8-4.538a0.6,0.6,0,0,0-.8,0h0a0.617,0.617,0,0,0,0,.807,8.39,8.39,0,0,1,0,11.9h0a0.617,0.617,0,0,0,0,.807,0.6,0.6,0,0,0,.8,0h0a9.613,9.613,0,0,0,0-13.514h0Zm-1.7,1.815a0.6,0.6,0,0,0-.8,0h0a0.617,0.617,0,0,0,0,.807,6.133,6.133,0,0,1,0,8.371,0.617,0.617,0,0,0,0,.807,0.6,0.6,0,0,0,.8,0h0A7.364,7.364,0,0,0,70.61,40.859Zm-1.7,1.715a0.6,0.6,0,0,0-.8,0h0a0.617,0.617,0,0,0,0,.807,3.491,3.491,0,0,1,0,4.841,0.617,0.617,0,0,0,0,.807,0.6,0.6,0,0,0,.8,0h0a4.721,4.721,0,0,0,0-6.455h0Z"/>
    <path id="_1-3" data-name="1" class="cls-2" d="M0,50.138H1.3V43.683H0v6.455Zm2.3,1.008H3.6V42.775H2.3v8.371h0Zm2.2,1.815h12v-12.1H4.5v12.1ZM6.4,42.775h8.2v8.27H6.4v-8.27Zm13.3,0.908v6.455H21V43.683H19.7Zm-2.3,7.463h1.3V42.775H17.4v8.371h0Z"/>
  </g>
  <g id="Up">
    <path id="_19" data-name="19" class="cls-1" d="M821.117,0.517a2.017,2.017,0,1,1-2,2.017A2.015,2.015,0,0,1,821.117.517Zm0,8.068a2.017,2.017,0,1,1-2,2.017A2.015,2.015,0,0,1,821.117,8.586Zm0,8.068a2.017,2.017,0,1,1-2,2.017A2.015,2.015,0,0,1,821.117,16.654Z"/>
    <path id="_18-2" data-name="18" class="cls-1" d="M791.112,20.688a2.926,2.926,0,0,0,2.9-2.521h-5.9A3.11,3.11,0,0,0,791.112,20.688Zm7.5-5.95a5.819,5.819,0,0,1-1.9-4.337V8.081a5.931,5.931,0,0,0-4.8-5.85V1.324a0.8,0.8,0,1,0-1.6,0h0V2.232a5.853,5.853,0,0,0-4.8,5.85V10.4a5.985,5.985,0,0,1-1.9,4.337,1.626,1.626,0,0,0-.5,1.109,1.528,1.528,0,0,0,1.4,1.513h13.2a1.461,1.461,0,0,0,1.4-1.513A1.631,1.631,0,0,0,798.613,14.738Z"/>
    <path id="_17-2" data-name="17" class="cls-1" d="M749.706,15.141h0l-0.1-.2h0l-0.1-.1-2.2-2.32a0.907,0.907,0,0,0-1.2,0,0.926,0.926,0,0,0,0,1.21l0.8,0.807h-3.8a4.31,4.31,0,0,1-4.3-4.438,3.677,3.677,0,0,1,1.2-2.824,0.926,0.926,0,0,0,0-1.21,0.862,0.862,0,0,0-.6-0.3h0a0.711,0.711,0,0,0-.6.3,5.91,5.91,0,0,0-1.7,4.135,6.155,6.155,0,0,0,6,6.253h3.8l-0.8.807a0.926,0.926,0,0,0,0,1.21,0.907,0.907,0,0,0,1.2,0h0l2.2-2.32,0.1-.1h0l0.1-.1h0v-0.1h0V15.141Zm-0.1,0h0Zm0.1,0.4h0Zm-0.7-11.7h-3.9l0.8-.807a0.926,0.926,0,0,0,0-1.21,0.907,0.907,0,0,0-1.2,0l-2.2,2.32-0.1.1-0.1.1h0v0.1h0v0.2l0.1,0.2h0l0.1,0.1,0.1,0.1,2.2,2.32a0.907,0.907,0,0,0,1.2,0,0.926,0.926,0,0,0,0-1.21l-0.9-.5h3.8a4.374,4.374,0,0,1,4.3,4.438,3.677,3.677,0,0,1-1.2,2.824,0.926,0.926,0,0,0,0,1.21,0.861,0.861,0,0,0,.6.3h0a0.711,0.711,0,0,0,.6-0.3,5.91,5.91,0,0,0,1.7-4.135,6.046,6.046,0,0,0-5.9-6.152h0Zm-6.6.4h0Zm-0.1.3h0Zm0,0.1h0Z"/>
    <path id="_16-2" data-name="16" class="cls-1" d="M704.2,10.3l0.2,0.3,0.2-.3c1.1-1.614,2.1-2.622,3.8-2.622h0.1v3.227l4.2-4.135-4.2-4.236V5.762h-0.1a6.278,6.278,0,0,0-5.1,3.026l-0.1.1,0.1,0.1A10.233,10.233,0,0,1,704.2,10.3Zm4.3,4.236h0c-2.3,0-3.4-1.815-4.7-3.933-1.4-2.32-3-4.841-6.3-4.841h-2.7V7.678h2.7c2.2,0,3.3,1.815,4.6,3.933,1.4,2.32,3,4.841,6.3,4.841h0.1V19.68l4.2-4.135-4.2-4.135v3.127h0Zm-6.8-2.622-0.2-.3-0.2.3c-1.1,1.614-2.1,2.622-3.8,2.622h-2.7v2.017h2.7a6.28,6.28,0,0,0,5.1-3.026l0.1-.1-0.1-.1C702.3,12.822,702,12.317,701.7,11.914Z"/>
    <path id="_15-2" data-name="15" class="cls-1" d="M664.794,12.822a2.705,2.705,0,0,1-3.9-.2,0.1,0.1,0,0,0-.1-0.1,3.057,3.057,0,0,1,0-3.832,2.808,2.808,0,0,1,3.9-.4l0.1,0.1,3-2.118a0.1,0.1,0,0,0,.1-0.1,1.018,1.018,0,0,0,.6-1.109,2.808,2.808,0,0,1,2.6-2.622,2.732,2.732,0,0,1,2.8,2.219,2.8,2.8,0,0,1-1.4,3.227,2.7,2.7,0,0,1-3.3-.5l-0.3-.3c-1.1.807-2.2,1.513-3.3,2.32a0.373,0.373,0,0,0-.1.3v1.513a0.373,0.373,0,0,0,.1.3c1.1,0.807,2.2,1.513,3.3,2.32a2.65,2.65,0,0,1,1.8-1.109,2.752,2.752,0,0,1,3.2,2.32h0a3.014,3.014,0,0,1-2.2,3.429,2.825,2.825,0,0,1-3.3-2.32,1.24,1.24,0,0,1,0-.605,0.767,0.767,0,0,0-.2-0.4C667.2,14.435,665.994,13.628,664.794,12.822Zm-1.9-3.631a1.46,1.46,0,0,0-1.4,1.513,1.373,1.373,0,0,0,1.4,1.412,1.46,1.46,0,0,0,1.4-1.513,1.373,1.373,0,0,0-1.4-1.412h0Zm8.4-2.219a1.436,1.436,0,0,0,1.4-1.412h0a1.4,1.4,0,1,0-2.8.2,1.342,1.342,0,0,0,1.4,1.21h0Zm0,7.362a1.437,1.437,0,0,0-1.4,1.412h0a1.436,1.436,0,0,0,1.4,1.412,1.512,1.512,0,0,0,1.4-1.412A1.317,1.317,0,0,0,671.3,14.334Z"/>
    <path id="_14-2" data-name="14" class="cls-1" d="M627.689,7.98h-9.6V9.695h9.6V7.98Zm0-3.429h-9.6V6.266h9.6V4.551Zm3.2,6.959V7.98h-1.6V11.41h-3.2v1.715h3.2v3.53h1.6V13.225h3.2V11.51h-3.2Zm-12.8,1.714h6.4V11.51h-6.4v1.714Z"/>
    <path id="_13-2" data-name="13" class="cls-1" d="M592.784,16.755l-3.4-3.631a6.69,6.69,0,0,0,1.3-4.034,6.3,6.3,0,1,0-6.3,6.556,6.7,6.7,0,0,0,3.4-1.008l3.4,3.732a1.086,1.086,0,0,0,1.5.1h0A1.262,1.262,0,0,0,592.784,16.755Zm-4.2-7.665a4.154,4.154,0,1,1-4.1-4.337,4.249,4.249,0,0,1,4.1,4.337h0Z"/>
    <path id="_12-2" data-name="12" class="cls-1" d="M544.677,13.931a0.518,0.518,0,0,0,.4.2,0.756,0.756,0,0,0,.4-0.2l3.3-3.53a0.446,0.446,0,0,0,.1-0.5,0.419,0.419,0,0,0-.4-0.3h-1.9V4.955a0.459,0.459,0,0,0-.5-0.4h-1.9a0.539,0.539,0,0,0-.5.4v4.74h-1.9a0.419,0.419,0,0,0-.4.3,0.485,0.485,0,0,0,.1.5Zm5.5-.706v2.622h-10.3V13.225h-1.8v3.53a0.9,0.9,0,0,0,.9.908h12.1a0.9,0.9,0,0,0,.9-0.908v-3.53h-1.8Z"/>
    <path id="_11-2" data-name="11" class="cls-1" d="M508.772,4.551a4.521,4.521,0,0,0-2,.5,1.794,1.794,0,0,0-.7.5c-0.2-.2-0.5-0.3-0.7-0.5a4.522,4.522,0,0,0-2-.5,4.351,4.351,0,0,0-4.3,4.337,7.643,7.643,0,0,0,2.5,5.144,31.95,31.95,0,0,0,4,3.328l0.5,0.3,0.5-.3a18.074,18.074,0,0,0,4-3.328,7.545,7.545,0,0,0,2.4-5.144A4.2,4.2,0,0,0,508.772,4.551Zm-5.4,1.916a2.271,2.271,0,0,1,1.9,1.009l0.8,1.009,0.8-1.009a2.57,2.57,0,0,1,1.9-1.009,2.4,2.4,0,0,1,2.4,2.521,6.108,6.108,0,0,1-1.9,3.833,20.831,20.831,0,0,1-3.2,2.723,26.99,26.99,0,0,1-3.2-2.723,5.656,5.656,0,0,1-1.9-3.833,2.467,2.467,0,0,1,2.4-2.521h0Z"/>
    <path id="_10-2" data-name="10" class="cls-1" d="M487.869,10.3h-4.2a0.216,0.216,0,0,1-.2-0.2V5.762a1.221,1.221,0,0,0-1.2-1.21,1.3,1.3,0,0,0-1.2,1.21V10a0.216,0.216,0,0,1-.2.2h-4.2a1.21,1.21,0,0,0,0,2.421h4.2a0.216,0.216,0,0,1,.2.2v4.236a1.221,1.221,0,0,0,1.2,1.21,1.3,1.3,0,0,0,1.2-1.21V12.822a0.216,0.216,0,0,1,.2-0.2h4.2a1.221,1.221,0,0,0,1.2-1.21A1.207,1.207,0,0,0,487.869,10.3Z"/>
    <path id="_9-2" data-name="9" class="cls-1" d="M416.659,10a7.021,7.021,0,0,0-7.8-5.85,0.751,0.751,0,0,0-.4.1,7.461,7.461,0,0,0-3.4,1.815c-0.4-.4-0.8-0.908-1.2-1.311a1.066,1.066,0,0,0-.6-0.2,0.555,0.555,0,0,0-.3.5V8.686a0.563,0.563,0,0,0,.5.605h3.9a0.549,0.549,0,0,0,.5-0.3,0.481,0.481,0,0,0-.2-0.5,15.431,15.431,0,0,0-1.3-1.21,5.4,5.4,0,0,1,3.6-1.412,4.937,4.937,0,0,1,2.1,9.38,5.062,5.062,0,0,1-5.3-.5,0.818,0.818,0,0,0-1.2.1,0.2,0.2,0,0,0-.1.2c-0.3.4-.2,0.706,0.3,1.008a6.853,6.853,0,0,0,9.6-1.513A6.952,6.952,0,0,0,416.659,10Zm-6.1,2.824c0.6,0.4.9,0.4,1.3-.1s0.3-.807-0.2-1.21a2.179,2.179,0,0,0-.5-0.3,0.817,0.817,0,0,1-.4-0.908V8.182c0-.605-0.2-0.807-0.9-0.807s-0.9.2-.9,0.807V10c-0.5,1.311.4,2.118,1.6,2.824h0Z"/>
    <path id="_8-2" data-name="8" class="cls-1" d="M368.952,7.174a0.863,0.863,0,0,0-.6-0.706,0.738,0.738,0,0,0-.9.706v0.3a19.6,19.6,0,0,1-.1,2.421,5.558,5.558,0,0,1-6,4.841,5.783,5.783,0,0,1-4.8-5.345V7.274a0.752,0.752,0,1,0-1.5-.1v0.1a22.989,22.989,0,0,0,.1,2.622,7.2,7.2,0,0,0,5.3,6.253c0.3,0.1.5,0.1,0.8,0.2v1.714h-2.2a0.807,0.807,0,0,0,0,1.614h6.1a0.752,0.752,0,0,0,.7-0.5,0.711,0.711,0,0,0-.4-1.009c-0.1,0-.2-0.1-0.3-0.1h-2.3V16.452c0.1,0,.3-0.1.4-0.1a6.956,6.956,0,0,0,5-3.833A10.868,10.868,0,0,0,368.952,7.174Zm-6.9,5.85a3.843,3.843,0,0,0,3.8-3.631,14.971,14.971,0,0,0,0-2.118h0V5.157a3.914,3.914,0,0,0-3.8-3.631,3.842,3.842,0,0,0-3.8,3.631,31.383,31.383,0,0,0,0,4.337,3.755,3.755,0,0,0,3.8,3.53h0Zm-2.3-7.968a2.315,2.315,0,0,1,2.5-1.916,2.5,2.5,0,0,1,2.1,2.521V8.888a2.3,2.3,0,1,1-4.6.2V7.174h0a14.9,14.9,0,0,1,0-2.118h0Z"/>
    <path id="_7-2" data-name="7" class="cls-1" d="M310.144,14.233a2.518,2.518,0,0,0-1.2-.2,2.693,2.693,0,0,0-2.7,2.925,2.689,2.689,0,0,0,2.9,2.723,2.788,2.788,0,0,0,2.7-2.824V10.6l6.4-1.815v3.127a2.518,2.518,0,0,0-1.2-.2,2.748,2.748,0,0,0-2.7,2.925,2.743,2.743,0,0,0,2.9,2.723,2.788,2.788,0,0,0,2.7-2.824v-12l-9.9,2.723v8.976h0.1Zm-1.2,3.732a1.161,1.161,0,0,1,.1-2.32,1.115,1.115,0,0,1,1.1,1.109,1.16,1.16,0,0,1-1.2,1.21h0Zm8.2-2.219a1.161,1.161,0,0,1,.1-2.32,1.115,1.115,0,0,1,1.1,1.109,1.292,1.292,0,0,1-1.2,1.21h0Zm1.2-10.993V6.972l-6.4,1.815V6.568Z"/>
    <path id="_6-3" data-name="6" class="cls-1" d="M264.638,13.931a0.518,0.518,0,0,0,.4.2,0.756,0.756,0,0,0,.4-0.2l3.3-3.53a0.446,0.446,0,0,0,.1-0.5,0.419,0.419,0,0,0-.4-0.3h-1.9V4.955a0.459,0.459,0,0,0-.5-0.4h-1.9a0.54,0.54,0,0,0-.5.4v4.74h-1.9a0.419,0.419,0,0,0-.4.3,0.485,0.485,0,0,0,.1.5Zm5.5-.706v2.622h-10.3V13.225h-1.8v3.53a0.9,0.9,0,0,0,.9.908h12.1a0.9,0.9,0,0,0,.9-0.908v-3.53h-1.8Z"/>
    <path id="_5-3" data-name="5" class="cls-1" d="M218.731,4.551a4.521,4.521,0,0,0-2,.5,1.794,1.794,0,0,0-.7.5c-0.2-.2-0.5-0.3-0.7-0.5a4.525,4.525,0,0,0-2-.5,4.351,4.351,0,0,0-4.3,4.337,7.643,7.643,0,0,0,2.5,5.144,31.878,31.878,0,0,0,4,3.328l0.5,0.3,0.5-.3a18.074,18.074,0,0,0,4-3.328,7.545,7.545,0,0,0,2.4-5.144A4.2,4.2,0,0,0,218.731,4.551Zm-5.4,1.916a2.272,2.272,0,0,1,1.9,1.009l0.8,1.009,0.8-1.009a2.57,2.57,0,0,1,1.9-1.009,2.4,2.4,0,0,1,2.4,2.521,6.113,6.113,0,0,1-1.9,3.833,20.831,20.831,0,0,1-3.2,2.723,26.99,26.99,0,0,1-3.2-2.723,5.656,5.656,0,0,1-1.9-3.833,2.467,2.467,0,0,1,2.4-2.521h0Z"/>
    <path id="_4-3" data-name="4" class="cls-1" d="M169.524,5.56h-9.5V7.174h9.5V5.56h0Zm0,3.126h-9.5V10.3h9.5V8.686h0Zm-9.5,4.841h6.3V11.914h-6.3v1.614Zm11.1-7.967v6.455a2.185,2.185,0,0,0-.8-0.1,2.3,2.3,0,0,0-2.3,2.421,2.3,2.3,0,0,0,2.4,2.32,2.36,2.36,0,0,0,2.3-2.421V7.174h2.4V5.56h-4Z"/>
    <path id="_3-3" data-name="3" class="cls-1" d="M124.218,8.888h-2.1a0.549,0.549,0,0,1-.5-0.3,32.206,32.206,0,0,0-1.6-3.227,0.784,0.784,0,0,0-.4-0.4,0.756,0.756,0,0,0-.9.1,0.629,0.629,0,0,0-.1.807c0.4,0.908.9,1.815,1.3,2.622,0,0.1.1,0.2,0.1,0.3h-6.3a0.373,0.373,0,0,0,.1-0.3c0.4-.908.9-1.815,1.3-2.622a0.614,0.614,0,0,0-.1-0.807,0.74,0.74,0,0,0-.9-0.1,1.515,1.515,0,0,0-.4.4c-0.5,1.109-1.1,2.118-1.6,3.227a0.549,0.549,0,0,1-.5.3h-2.1a0.775,0.775,0,0,0-.8.706h0v0.1a0.711,0.711,0,0,0,.8.706h0.1a0.266,0.266,0,0,1,.3.3c0.3,1.513.6,3.127,1,4.639,0,0.2.1,0.5,0.1,0.706a0.992,0.992,0,0,0,1.1.807h9.2a0.992,0.992,0,0,0,1.1-.807,1.507,1.507,0,0,0,.1-0.706c0.3-1.513.6-3.026,1-4.639a0.32,0.32,0,0,1,.3-0.3h0.1a0.775,0.775,0,0,0,.8-0.706h0v-0.1C125.018,9.191,124.618,8.888,124.218,8.888Zm-10.5,6.656a0.663,0.663,0,0,1-.7-0.605h0c-0.2-.908-0.3-1.815-0.5-2.723a1.008,1.008,0,0,1,.1-1.008,0.5,0.5,0,0,1,.5-0.1,0.669,0.669,0,0,1,.4.5c0.2,1.009.4,2.118,0.6,3.127a0.534,0.534,0,0,1-.4.706c0.1,0,.1.1,0,0.1h0Zm3.9-.605v0.2h0v0.1h0a0.568,0.568,0,0,1-.7.4,0.784,0.784,0,0,1-.4-0.4h0v-0.1h0v-3.53a0.6,0.6,0,1,1,1.2,0h0v1.109A15.748,15.748,0,0,0,117.617,14.939Zm3.9-2.723c-0.2.908-.3,1.815-0.5,2.723a0.671,0.671,0,0,1-.7.605h0a0.549,0.549,0,0,1-.5-0.706v-0.1c0.2-1.008.4-2.118,0.6-3.126a0.46,0.46,0,0,1,.4-0.5,0.744,0.744,0,0,1,.5.1C121.617,11.41,121.617,11.611,121.517,12.216Z"/>
    <path id="_2-4" data-name="2" class="cls-1" d="M62.909,6.266a0.6,0.6,0,0,0-.8,0h0a4.85,4.85,0,0,0,0,6.556,0.6,0.6,0,0,0,.8,0h0a0.617,0.617,0,0,0,0-.807,3.491,3.491,0,0,1,0-4.841A0.757,0.757,0,0,0,62.909,6.266Zm-1.7-.908a0.617,0.617,0,0,0,0-.807,0.6,0.6,0,0,0-.8,0h0a7.291,7.291,0,0,0,0,10.086,0.6,0.6,0,0,0,.8,0h0a0.618,0.618,0,0,0,0-.807A6.261,6.261,0,0,1,61.209,5.358Zm-1.7-1.815a0.618,0.618,0,0,0,0-.807,0.481,0.481,0,0,0-.7,0h0a9.614,9.614,0,0,0,0,13.515h0a0.6,0.6,0,0,0,.8,0h0a0.618,0.618,0,0,0,0-.807A8.481,8.481,0,0,1,59.509,3.543Zm6,3.732a2.122,2.122,0,0,0-2.1,2.118,2.056,2.056,0,0,0,1.5,2.017v6.656a0.6,0.6,0,1,0,1.2,0V11.41a2.147,2.147,0,0,0,1.5-2.017,2.06,2.06,0,0,0-2.1-2.118h0Zm6.8-4.538a0.6,0.6,0,0,0-.8,0h0a0.617,0.617,0,0,0,0,.807,8.39,8.39,0,0,1,0,11.9h0a0.617,0.617,0,0,0,0,.807,0.6,0.6,0,0,0,.8,0h0a9.491,9.491,0,0,0,.1-13.414Zm-1.7,1.815a0.6,0.6,0,0,0-.8,0h0a0.617,0.617,0,0,0,0,.807,6.133,6.133,0,0,1,0,8.371,0.617,0.617,0,0,0,0,.807,0.6,0.6,0,0,0,.8,0h0A7.365,7.365,0,0,0,70.61,4.551Zm-1.7,1.715a0.6,0.6,0,0,0-.8,0h0a0.617,0.617,0,0,0,0,.807,3.491,3.491,0,0,1,0,4.841,0.617,0.617,0,0,0,0,.807,0.6,0.6,0,0,0,.8,0h0a4.721,4.721,0,0,0,0-6.455h0Z"/>
    <path id="_1-4" data-name="1" class="cls-1" d="M0,0H0ZM0,13.83H1.3V7.375H0V13.83Zm2.3,1.009H3.6V6.367H2.3v8.472h0Zm2.2,1.815h12V4.551H4.5v12.1ZM6.4,6.468h8.2v8.27H6.4V6.468ZM19.7,7.375V13.83H21V7.375H19.7Zm-2.3,7.463h1.3V6.367H17.4v8.472h0Z"/>
  </g>
</svg>
