<svg 
 xmlns="http://www.w3.org/2000/svg"
 xmlns:xlink="http://www.w3.org/1999/xlink"
 width="12px" height="12px">
<path fill-rule="evenodd"  fill="rgb(119, 119, 119)"
 d="M11.359,5.172 L6.847,5.172 L6.847,0.660 C6.847,0.455 6.568,0.009 6.010,0.009 C5.452,0.009 5.172,0.455 5.172,0.660 L5.172,5.172 L0.661,5.172 C0.455,5.172 0.010,5.451 0.010,6.009 C0.010,6.567 0.455,6.846 0.661,6.846 L5.173,6.846 L5.173,11.358 C5.173,11.563 5.452,12.009 6.010,12.009 C6.568,12.009 6.847,11.563 6.847,11.358 L6.847,6.846 L11.359,6.846 C11.564,6.846 12.010,6.567 12.010,6.009 C12.010,5.451 11.564,5.172 11.359,5.172 Z"/>
</svg>