<svg id="SVG" xmlns="http://www.w3.org/2000/svg" viewBox="0 0 12.33 54.4"><defs><style>.cls-1{fill:#72859b;}.cls-2{fill:#fb324f;}</style></defs><title>icon_left_03</title><path class="cls-1" d="M10.53,4.77a.63.63,0,0,0-.62.63v7a1.2,1.2,0,0,1-1.26,1.13h-5a1.18,1.18,0,0,1-1.25-1.13v-7a.63.63,0,1,0-1.25,0v7a2.43,2.43,0,0,0,2.5,2.38h5a2.45,2.45,0,0,0,2.51-2.38v-7A.63.63,0,0,0,10.53,4.77Z"/><path class="cls-1" d="M11.16,2.9H8.66V1.65A.63.63,0,0,0,8,1H4.28a.63.63,0,0,0-.62.63V2.9H1.16a.63.63,0,1,0,0,1.25h10a.63.63,0,0,0,0-1.25Zm-6.25,0V2.27h2.5V2.9Z"/><path class="cls-1" d="M5.53,11V6.65a.63.63,0,1,0-1.25,0V11a.63.63,0,1,0,1.25,0Z"/><path class="cls-1" d="M8,11V6.65a.63.63,0,1,0-1.25,0V11A.63.63,0,1,0,8,11Z"/><path class="cls-2" d="M10.53,43.38a.62.62,0,0,0-.62.62v7a1.21,1.21,0,0,1-1.26,1.14h-5A1.2,1.2,0,0,1,2.41,51V44a.63.63,0,0,0-1.25,0v7a2.45,2.45,0,0,0,2.5,2.39h5A2.46,2.46,0,0,0,11.16,51V44A.62.62,0,0,0,10.53,43.38Z"/><path class="cls-2" d="M11.16,41.5H8.66V40.25A.62.62,0,0,0,8,39.63H4.28a.62.62,0,0,0-.62.62V41.5H1.16a.63.63,0,1,0,0,1.25h10a.63.63,0,0,0,0-1.25Zm-6.25,0v-.62h2.5v.62Z"/><path class="cls-2" d="M5.53,49.63V45.25a.63.63,0,0,0-1.25,0v4.38a.63.63,0,0,0,1.25,0Z"/><path class="cls-2" d="M8,49.63V45.25a.63.63,0,0,0-1.25,0v4.38a.63.63,0,0,0,1.25,0Z"/></svg>