<svg 
 xmlns="http://www.w3.org/2000/svg"
 xmlns:xlink="http://www.w3.org/1999/xlink"
 width="15px" height="13px">
<path fill-rule="evenodd"  fill="rgb(119, 119, 119)"
 d="M13.308,1.678 C12.637,0.918 11.706,0.499 10.687,0.499 C9.254,0.499 8.347,1.354 7.838,2.071 C7.706,2.257 7.594,2.444 7.500,2.619 C7.405,2.444 7.293,2.257 7.161,2.071 C6.653,1.354 5.745,0.499 4.312,0.499 C3.293,0.499 2.363,0.918 1.692,1.678 C1.052,2.403 0.700,3.374 0.700,4.412 C0.700,5.543 1.142,6.594 2.090,7.721 C2.938,8.728 4.158,9.766 5.570,10.968 C6.096,11.416 6.641,11.879 7.220,12.385 L7.237,12.401 C7.312,12.466 7.406,12.499 7.500,12.499 C7.593,12.499 7.687,12.466 7.762,12.401 L7.780,12.385 C8.359,11.879 8.903,11.416 9.430,10.968 C10.842,9.766 12.062,8.728 12.909,7.721 C13.858,6.594 14.300,5.543 14.300,4.412 C14.300,3.374 13.947,2.403 13.308,1.678 ZM8.913,10.362 C8.459,10.748 7.992,11.145 7.500,11.573 C7.007,11.145 6.541,10.748 6.087,10.362 C3.323,8.009 1.497,6.456 1.497,4.412 C1.497,3.568 1.779,2.784 2.290,2.204 C2.807,1.618 3.525,1.295 4.312,1.295 C5.405,1.295 6.111,1.967 6.511,2.531 C6.870,3.037 7.057,3.547 7.121,3.743 C7.175,3.906 7.327,4.017 7.500,4.017 C7.672,4.017 7.825,3.906 7.879,3.743 C7.942,3.547 8.130,3.037 8.489,2.531 C8.889,1.967 9.595,1.295 10.687,1.295 C11.474,1.295 12.192,1.618 12.710,2.204 C13.221,2.784 13.503,3.568 13.503,4.412 C13.503,6.456 11.677,8.009 8.913,10.362 Z"/>
</svg>