<svg id="SVG" xmlns="http://www.w3.org/2000/svg" viewBox="0 0 144.49 54.37"><defs><style>.cls-1{fill:#72859b;}.cls-2{fill:#fb324f;}</style></defs><title>icon_left</title><path id="Play_list" data-name="Play list" class="cls-1" d="M87.86,5H73.05V6.8H87.86Zm0-4H73.05V2.8H87.86ZM73.05,10.8h7.79V9H73.05Zm0,4h7.79V13.05H73.05Zm10-5.71v5.62l4.67-2.81Z"/><path id="Blog" class="cls-1" d="M10.47,7.31a.79.79,0,1,0,.79-.79h0A.79.79,0,0,0,10.47,7.31ZM9.31,13.57a.8.8,0,0,0-.57-.2,7.72,7.72,0,0,1-3.26-.57.78.78,0,0,0-.6,0L2.27,13.9l.85-2A.78.78,0,0,0,3,11.06,5.37,5.37,0,0,1,1.6,7.49c0-3.26,3.05-5.91,6.81-5.91S15.2,4.23,15.2,7.49a5.24,5.24,0,0,1-.56,2.3.79.79,0,0,0,1.42.7,6.66,6.66,0,0,0,.72-3C16.78,3.36,13,0,8.39,0S0,3.36,0,7.49a6.87,6.87,0,0,0,1.48,4.24L.06,15.09a.79.79,0,0,0,.43,1,.72.72,0,0,0,.61,0l4.1-1.73a8.9,8.9,0,0,0,3.19.56h.42a.79.79,0,0,0,.76-.82h0A.79.79,0,0,0,9.31,13.57ZM7.57,7.31a.79.79,0,1,0,.79-.79h0A.79.79,0,0,0,7.57,7.31Zm5.07,2.42a.66.66,0,0,0-.34-.2L9.7,8.8a.79.79,0,0,0-1,.49s0,0,0,.05a.86.86,0,0,0,0,.45l.77,2.54a.94.94,0,0,0,.2.33l3.54,3.53a2.08,2.08,0,0,0,3.13-2.74l-.2-.2Zm1.28,3.5-.71.71L11,11.68l-.29-1,1,.28Zm1.28,1.5a.49.49,0,0,1-.48.5h0a.58.58,0,0,1-.35-.15h0l.71-.71h0a.52.52,0,0,1,.14.35ZM4.67,7.31a.79.79,0,1,0,.79-.79h0A.79.79,0,0,0,4.67,7.31Z"/><path id="Admin" class="cls-1" d="M43.77,14.19a.73.73,0,0,0-.54.88h0a.24.24,0,0,1-.19.27H35a.22.22,0,0,1-.22-.2.17.17,0,0,1,0-.07A4.32,4.32,0,0,1,40,11.81a4.25,4.25,0,0,1,2,1.1.74.74,0,0,0,1,0,.72.72,0,0,0,.19-.52.71.71,0,0,0-.24-.51,5.61,5.61,0,0,0-1.59-1,3.33,3.33,0,1,0-4.71-.07.23.23,0,0,1,.07.07,6,6,0,0,0-1.29.77,5.82,5.82,0,0,0-2,3.17,1.69,1.69,0,0,0,1.37,2l.2,0h8a1.68,1.68,0,0,0,1.68-1.68h0a2.41,2.41,0,0,0,0-.38.73.73,0,0,0-.89-.54ZM39,6.53a1.87,1.87,0,1,1-1.84,1.9v0A1.87,1.87,0,0,1,39,6.53Zm6.33-.48H45A.2.2,0,0,1,44.88,6a.19.19,0,0,1,0-.18l.23-.23a2,2,0,0,0,0-2.83l0,0-.46-.46a2,2,0,0,0-2.83,0l0,0h0l-.23.23a.15.15,0,0,1-.16,0,.14.14,0,0,1-.09-.12V2a2,2,0,0,0-2-2h-.65a2,2,0,0,0-2,2v.33a.12.12,0,0,1-.09.12.15.15,0,0,1-.16,0l-.23-.23a2,2,0,0,0-2.83,0l0,0h0l-.46.46a2,2,0,0,0-.05,2.83s0,0,.05,0l.23.23a.14.14,0,0,1,0,.17.13.13,0,0,1-.12.08h-.33a2,2,0,0,0-2,2h0v.65a2,2,0,0,0,2,2H33a.13.13,0,0,1,.12.09h0a.7.7,0,0,0,.39.4.66.66,0,0,0,.28,0,.66.66,0,0,0,.28,0,.78.78,0,0,0,.4-.4.77.77,0,0,0,0-.56h0a1.59,1.59,0,0,0-1.47-1h-.33a.59.59,0,0,1-.57-.57v-.6a.58.58,0,0,1,.57-.57H33a1.59,1.59,0,0,0,1.47-1h0A1.62,1.62,0,0,0,34.1,4.8l-.24-.23a.57.57,0,0,1,0-.8l.46-.46a.56.56,0,0,1,.79,0h0l.23.23a1.57,1.57,0,0,0,1.76.26h0a1.59,1.59,0,0,0,1-1.47V2a.59.59,0,0,1,.57-.57h.65a.59.59,0,0,1,.57.57v.33a1.59,1.59,0,0,0,1,1.47h0a1.57,1.57,0,0,0,1.74-.34l.23-.23a.56.56,0,0,1,.79,0h0l.46.46a.59.59,0,0,1,0,.8l-.22.28a1.62,1.62,0,0,0-.34,1.75h0a1.59,1.59,0,0,0,1.47,1h.33a.59.59,0,0,1,.57.57v.65a.59.59,0,0,1-.57.57H45a1.59,1.59,0,0,0-1.47,1h0a.74.74,0,0,0,.36,1l0,0a.77.77,0,0,0,.56,0,.73.73,0,0,0,.39-.4h0A.13.13,0,0,1,45,10.8h.33a2,2,0,0,0,2-2V8.08a2,2,0,0,0-2-2Z"/><path id="Play_list-2" data-name="Play list-2" class="cls-2" d="M87.86,43.55H73.05v1.77H87.86Zm0-4H73.05v1.77H87.86ZM73.05,49.34h7.79V47.57H73.05Zm0,4h7.79V51.59H73.05Zm10-5.71v5.61l4.67-2.8Z"/><path id="Admin-2" class="cls-2" d="M43.77,51.8a.73.73,0,0,0-.54.88h0A.24.24,0,0,1,43,53H35a.22.22,0,0,1-.22-.2.17.17,0,0,1,0-.07,4.31,4.31,0,0,1,5.13-3.31A4.38,4.38,0,0,1,42,50.47a.74.74,0,0,0,1,0,.72.72,0,0,0,.19-.52.71.71,0,0,0-.24-.51,5.61,5.61,0,0,0-1.59-1,3.33,3.33,0,1,0-4.71-.07l.07.07a6,6,0,0,0-1.29.77,5.82,5.82,0,0,0-2,3.17,1.7,1.7,0,0,0,1.31,2,2.3,2.3,0,0,0,.26,0h8a1.68,1.68,0,0,0,1.68-1.68h0a2.41,2.41,0,0,0,0-.38A.74.74,0,0,0,43.77,51.8ZM39,44.09A1.87,1.87,0,1,1,37.13,46h0A1.87,1.87,0,0,1,39,44.09Zm6.33-.48H45a.2.2,0,0,1-.12-.08.19.19,0,0,1,0-.18l.23-.23a2,2,0,0,0,0-2.83l0,0-.41-.45a2,2,0,0,0-2.83,0l0,0h0L41.6,40a.15.15,0,0,1-.16,0,.14.14,0,0,1-.09-.12v-.33a2,2,0,0,0-2-2H38.7a2,2,0,0,0-2,2v.33a.12.12,0,0,1-.09.12.15.15,0,0,1-.16,0l-.29-.23a2,2,0,0,0-2.83,0l0,0h0l-.46.46a2,2,0,0,0,0,2.83l0,0,.23.24a.14.14,0,0,1,0,.17.13.13,0,0,1-.12.08h-.33a2,2,0,0,0-2,2v.65a2,2,0,0,0,2,2H33a.13.13,0,0,1,.12.09h0a.73.73,0,0,0,.39.4.66.66,0,0,0,.28,0,.78.78,0,0,0,.21,0,.78.78,0,0,0,.4-.4.77.77,0,0,0,0-.56h0a1.59,1.59,0,0,0-1.47-1H32.6a.59.59,0,0,1-.57-.57v-.65a.58.58,0,0,1,.57-.57H33a1.59,1.59,0,0,0,1.47-1h0a1.6,1.6,0,0,0-.34-1.75l-.24-.23a.57.57,0,0,1,0-.8l.46-.46a.56.56,0,0,1,.79,0h0l.23.23a1.58,1.58,0,0,0,1.74.34h0a1.59,1.59,0,0,0,1-1.47v-.34a.59.59,0,0,1,.57-.57h.65a.59.59,0,0,1,.57.57v.33a1.59,1.59,0,0,0,1,1.47h0A1.57,1.57,0,0,0,42.64,41l.23-.23a.56.56,0,0,1,.79,0h0l.46.46a.59.59,0,0,1,0,.8l-.24.23A1.62,1.62,0,0,0,43.54,44h0A1.59,1.59,0,0,0,45,45h.33a.59.59,0,0,1,.57.57v.65a.59.59,0,0,1-.57.57H45a1.59,1.59,0,0,0-1.47,1h0a.74.74,0,0,0,.36,1l0,0a.77.77,0,0,0,.56,0,.73.73,0,0,0,.39-.4h0a.13.13,0,0,1,.12-.08h.33a2,2,0,0,0,2-2V45.7a2,2,0,0,0-2-2Z"/><path id="Blog-2" class="cls-2" d="M10.47,44.87a.79.79,0,1,0,.79-.79.79.79,0,0,0-.79.79ZM9.31,51.13a.8.8,0,0,0-.57-.2,7.74,7.74,0,0,1-3.26-.56.78.78,0,0,0-.6,0l-2.61,1.1.85-2A.8.8,0,0,0,3,48.62a5.37,5.37,0,0,1-1.4-3.57c0-3.26,3.05-5.91,6.81-5.91s6.79,2.66,6.79,5.91a5.24,5.24,0,0,1-.56,2.3.79.79,0,0,0,1.42.7,6.66,6.66,0,0,0,.72-3c0-4.13-3.76-7.49-8.39-7.49S0,40.92,0,45.05a6.87,6.87,0,0,0,1.48,4.24L.06,52.65a.79.79,0,0,0,.43,1,.72.72,0,0,0,.61,0l4.1-1.73a8.9,8.9,0,0,0,3.19.56h.42a.79.79,0,0,0,.76-.82h0A.79.79,0,0,0,9.31,51.13ZM7.57,44.87a.79.79,0,1,0,.79-.79.79.79,0,0,0-.79.79Zm5.07,2.42a.66.66,0,0,0-.34-.2l-2.6-.72a.79.79,0,0,0-1,.49s0,0,0,0a.86.86,0,0,0,0,.45l.77,2.54a.94.94,0,0,0,.2.33l3.57,3.57a2.1,2.1,0,0,0,2.93-3Zm1.28,3.51-.71.71L11,49.24l-.29-1,1,.28Zm1.28,1.5a.49.49,0,0,1-.48.5h0a.58.58,0,0,1-.35-.15h0l.71-.71h0a.52.52,0,0,1,.14.35ZM4.67,44.87a.79.79,0,1,0,.79-.79.79.79,0,0,0-.79.79Z"/><path class="cls-1" d="M102.85,5.3c0,1.13.84,2.52,2.43,4a24.42,24.42,0,0,0,2.53,2,2.8,2.8,0,0,0-.52,1,23.77,23.77,0,0,1-2.8-2.2c-1.87-1.74-2.81-3.37-2.81-4.86a4.26,4.26,0,0,1,1.18-3.08,3.93,3.93,0,0,1,2.84-1.15,4.35,4.35,0,0,1,3.45,1.46,4.47,4.47,0,0,1,.44-.43,4.59,4.59,0,0,1,3-1,3.89,3.89,0,0,1,2.85,1.15,3.85,3.85,0,0,1,1,1.78l-1.07.56a2.75,2.75,0,0,0-2.79-2.33,3.49,3.49,0,0,0-1.84.48,6.15,6.15,0,0,0-1.58,2,5.59,5.59,0,0,0-.59-1h0a5.11,5.11,0,0,0-.88-.92,3.45,3.45,0,0,0-2-.57,2.84,2.84,0,0,0-2.85,2.83A1.77,1.77,0,0,0,102.85,5.3Zm13.76,6.5a.17.17,0,0,1,0,.1.21.21,0,0,1,0,.11,1.75,1.75,0,1,1-1.75-1.75,1.7,1.7,0,0,1,.59.1V7.07a12.28,12.28,0,0,1-3.59.69v5.32a1.75,1.75,0,1,1-1.75-1.75h0a1.65,1.65,0,0,1,.58.1V6.6h.58a10.66,10.66,0,0,0,4.49-.92l.85-.44Zm-5.92,1.29a.59.59,0,0,0-.51-.66.59.59,0,0,0-.66.51.38.38,0,0,0,0,.15.59.59,0,0,0,.66.51A.58.58,0,0,0,110.69,13.09ZM115.44,12a.6.6,0,0,0-.58-.59.61.61,0,0,0-.59.59.6.6,0,0,0,.59.58.58.58,0,0,0,.58-.58h0Z"/><path class="cls-2" d="M102.85,43.85c0,1.13.84,2.51,2.43,4a21.17,21.17,0,0,0,2.53,2,3,3,0,0,0-.52,1,22,22,0,0,1-2.8-2.2c-1.87-1.73-2.81-3.37-2.81-4.85a4.32,4.32,0,0,1,1.18-3.05,4,4,0,0,1,2.84-1.15,4.59,4.59,0,0,1,3,1,6.14,6.14,0,0,1,.45.43,4.37,4.37,0,0,1,.44-.42,4.59,4.59,0,0,1,3-1,4,4,0,0,1,2.84,1.14,3.89,3.89,0,0,1,1,1.79l-1.07.56a2.75,2.75,0,0,0-2.78-2.35,3.49,3.49,0,0,0-1.84.48,6.15,6.15,0,0,0-1.58,2,5.59,5.59,0,0,0-.59-1h0a5.11,5.11,0,0,0-.88-.92,3.45,3.45,0,0,0-2-.57,2.84,2.84,0,0,0-2.85,2.83A1.77,1.77,0,0,0,102.85,43.85Zm13.76,6.49v.2a1.75,1.75,0,1,1-1.76-1.74h0a1.71,1.71,0,0,1,.59.11V45.62a12.6,12.6,0,0,1-3.59.68v5.32a1.75,1.75,0,1,1-1.75-1.75,1.91,1.91,0,0,1,.58.1V45.15h.58a10.81,10.81,0,0,0,4.49-.92l.85-.45Zm-5.92,1.28a.59.59,0,0,0-.66-.51.58.58,0,0,0-.51.51.59.59,0,0,0,.51.66.59.59,0,0,0,.66-.51A.38.38,0,0,0,110.69,51.62Zm4.75-1.08a.58.58,0,0,0-.58-.58h0a.59.59,0,0,0-.66.51.59.59,0,0,0,.51.66h.15a.58.58,0,0,0,.58-.58Z"/><path class="cls-1" d="M143.7,14.85h-4.51a.6.6,0,0,1-.59-.59v-2.8a1.27,1.27,0,1,0-2.53,0v2.8a.6.6,0,0,1-.59.59H131a.6.6,0,0,1-.59-.59V6.72a1.67,1.67,0,0,1,.68-1.33L137,1.12a.57.57,0,0,1,.68,0l5.92,4.27a1.67,1.67,0,0,1,.68,1.33v7.57A.64.64,0,0,1,143.7,14.85Zm-3.92-1.15h3.36v-7a.51.51,0,0,0-.21-.39l-5.57-4-5.56,4a.48.48,0,0,0-.21.38v7H135V11.46a2.42,2.42,0,1,1,4.83,0Z"/><path class="cls-2" d="M143.7,53.36h-4.51a.59.59,0,0,1-.59-.59V50a1.27,1.27,0,0,0-2.53,0v2.8a.59.59,0,0,1-.59.59H131a.59.59,0,0,1-.59-.59V45.23a1.64,1.64,0,0,1,.68-1.32L137,39.63a.6.6,0,0,1,.68,0l5.92,4.28a1.64,1.64,0,0,1,.68,1.32V52.8A.64.64,0,0,1,143.7,53.36Zm-3.92-1.15h3.36v-7a.49.49,0,0,0-.21-.38l-5.57-4-5.56,4a.49.49,0,0,0-.21.38v7H135V50a2.42,2.42,0,0,1,4.83,0Z"/></svg>