<svg 
 xmlns="http://www.w3.org/2000/svg"
 xmlns:xlink="http://www.w3.org/1999/xlink"
 width="12px" height="13px">
<path fill-rule="evenodd"  fill="rgb(119, 119, 119)"
 d="M9.473,8.209 C8.790,8.209 8.181,8.537 7.791,9.046 L4.527,7.205 C4.604,6.982 4.646,6.743 4.646,6.497 C4.646,6.248 4.604,6.011 4.525,5.787 L7.786,3.948 C8.173,4.458 8.785,4.790 9.471,4.790 C10.640,4.790 11.595,3.828 11.595,2.645 C11.595,1.461 10.643,0.499 9.471,0.499 C8.299,0.499 7.347,1.461 7.347,2.645 C7.347,2.894 7.389,3.133 7.468,3.355 L4.209,5.193 C3.822,4.680 3.210,4.351 2.524,4.351 C1.355,4.351 0.400,5.313 0.400,6.497 C0.400,7.680 1.355,8.642 2.526,8.642 C3.212,8.642 3.824,8.311 4.214,7.797 L7.475,9.638 C7.396,9.863 7.352,10.105 7.352,10.354 C7.352,11.535 8.304,12.499 9.476,12.499 C10.648,12.499 11.600,11.538 11.600,10.354 C11.600,9.170 10.645,8.209 9.473,8.209 ZM9.473,1.175 C10.278,1.175 10.931,1.835 10.931,2.647 C10.931,3.459 10.278,4.120 9.473,4.120 C8.669,4.120 8.015,3.459 8.015,2.647 C8.015,1.835 8.672,1.175 9.473,1.175 ZM2.526,7.969 C1.722,7.969 1.068,7.309 1.068,6.497 C1.068,5.684 1.722,5.024 2.526,5.024 C3.331,5.024 3.984,5.684 3.984,6.497 C3.984,7.309 3.328,7.969 2.526,7.969 ZM9.473,11.824 C8.669,11.824 8.015,11.164 8.015,10.352 C8.015,9.539 8.669,8.879 9.473,8.879 C10.278,8.879 10.931,9.539 10.931,10.352 C10.931,11.164 10.278,11.824 9.473,11.824 Z"/>
</svg>