<!--<svg xmlns="http://www.w3.org/2000/svg"  version="1.1" xmlns:xlink="http://www.w3.org/1999/xlink" xmlns:svgjs="http://svgjs.com/svgjs" x="0" y="0" viewBox="0 0 512 512" style="enable-background:new 0 0 512 512" xml:space="preserve"><g><path xmlns="http://www.w3.org/2000/svg" d="m238.738 271.339-27.974-26.939a15 15 0 1 0 -20.8 21.6l38.558 37.139a14.965 14.965 0 0 0 21.009-.184l72.719-72.718a15 15 0 0 0 -21.215-21.215l-62.294 62.317zm18.292-271.332a34.56 34.56 0 0 1 23.474 10.1l30.723 30.746a4.213 4.213 0 0 0 4.49 1.214l42-11.249a34.661 34.661 0 0 1 42.43 24.492l11.25 42a4.22 4.22 0 0 0 3.276 3.276l42.018 11.25a34.705 34.705 0 0 1 24.492 42.43l-11.272 42a4.285 4.285 0 0 0 1.214 4.49l30.742 30.744a34.653 34.653 0 0 1 0 48.983l-30.746 30.746a4.287 4.287 0 0 0 -1.214 4.491l11.272 42a34.706 34.706 0 0 1 -24.492 42.431l-42.018 11.249a4.22 4.22 0 0 0 -3.276 3.276l-11.25 42a34.66 34.66 0 0 1 -42.43 24.491l-42-11.249a4.213 4.213 0 0 0 -4.49 1.214l-30.723 30.734a34.707 34.707 0 0 1 -49.006 0l-30.742-30.746a4.208 4.208 0 0 0 -4.468-1.214l-42.007 11.249a34.661 34.661 0 0 1 -42.428-24.491l-11.251-42a4.218 4.218 0 0 0 -3.281-3.276l-42-11.249a34.7 34.7 0 0 1 -24.5-42.431l11.259-41.995a4.218 4.218 0 0 0 -1.21-4.491l-30.738-30.742a34.664 34.664 0 0 1 0-48.983l30.75-30.746a4.232 4.232 0 0 0 1.2-4.49l-11.259-42a34.7 34.7 0 0 1 24.5-42.43l42-11.25a4.218 4.218 0 0 0 3.281-3.276l11.251-41.995a34.667 34.667 0 0 1 42.428-24.492l42.007 11.249a4.178 4.178 0 0 0 4.468-1.214l30.746-30.742a34.558 34.558 0 0 1 23.471-10.104zm-1.041 367.58a111.6 111.6 0 1 1 111.6-111.6 111.715 111.715 0 0 1 -111.6 111.6z" fill="#49adf4" fill-rule="evenodd" data-original="#49adf4"/></g></svg> -->
<svg xmlns="http://www.w3.org/2000/svg" height="24" width="24" version="1.1" xmlns:xlink="http://www.w3.org/1999/xlink" xmlns:svgjs="http://svgjs.com/svgjs" x="0" y="0" viewBox="0 0 2.54 2.54" style="enable-background:new 0 0 512 512" xml:space="preserve"><g><g xmlns="http://www.w3.org/2000/svg" id="图层_x0020_1"><circle cx="1.27" cy="1.27" fill="#00ba00" r="1.27" data-original="#00ba00"/><path d="m.87344 1.88938-.46448-.49713c-.06359-.06806-.05994-.17574.00812-.23933.06806-.06359.17574-.05993.23933.00812l.35828.38346.56711-.52987c.0051-.00477.01043-.00914.01594-.01316l.26669-.24917c.06806-.06359.17575-.05993.23933.00813.06359.06805.05993.17574-.00812.23933l-.81454.76105-.00087-.00093-.28176.26326-.12503-.13382z" fill="#ffffff" data-original="#ffffff"/></g></g></svg>